<?xml version="1.0" standalone="no"?>
 <!DOCTYPE svg PUBLIC "-//W3C//DTD SVG 1.1//EN" 
 "http://www.w3.org/Graphics/SVG/1.1/DTD/svg11.dtd"> 
<svg
  xmlns:svg="http://www.w3.org/2000/svg"
  xmlns="http://www.w3.org/2000/svg"
  xmlns:xlink="http://www.w3.org/1999/xlink"
  version="1.1"
  width="29.700220cm" height="21.000720cm" viewBox="0 0 116930 82680">
<title>SVG Picture created as rfm_to_usb-F_Cu.svg date 2022/03/06 22:53:19 </title>
  <desc>Picture generated by PCBNEW </desc>
<g style="fill:#000000; fill-opacity:1;stroke:#000000; stroke-opacity:1;
stroke-linecap:round; stroke-linejoin:round;"
 transform="translate(0 0) scale(1 1)">
</g>
<g style="fill:#000000; fill-opacity:0.0; 
stroke:#000000; stroke-width:-0.000393701; stroke-opacity:1; 
stroke-linecap:round; stroke-linejoin:round;">
</g>
<g style="fill:#000000; fill-opacity:1.0; 
stroke:#000000; stroke-width:7.87402; stroke-opacity:1; 
stroke-linecap:round; stroke-linejoin:round;">
<rect x="18565.9" y="8882.72" width="11542.6" height="21643.8" rx="0" />
</g>
<g style="fill:#FFFFFF; fill-opacity:1.0; 
stroke:#FFFFFF; stroke-width:7.87402; stroke-opacity:1; 
stroke-linecap:round; stroke-linejoin:round;">
<g >
</g>
<g style="fill:#FFFFFF; fill-opacity:1.0; 
stroke:#FFFFFF; stroke-width:0; stroke-opacity:1; 
stroke-linecap:round; stroke-linejoin:round;">
<path style="fill:#FFFFFF; fill-opacity:1.0; 
stroke:#FFFFFF; stroke-width:0; stroke-opacity:1; 
stroke-linecap:round; stroke-linejoin:round;fill-rule:evenodd;"
d="M 22845.4,12574.6
22845.4,11905.4
23514.6,11905.4
23514.6,12574.6
Z" /> 
</g>
<g >
</g>
<g style="fill:#FFFFFF; fill-opacity:1.0; 
stroke:#FFFFFF; stroke-width:0; stroke-opacity:1; 
stroke-linecap:round; stroke-linejoin:round;">
<path style="fill:#FFFFFF; fill-opacity:1.0; 
stroke:#FFFFFF; stroke-width:0; stroke-opacity:1; 
stroke-linecap:round; stroke-linejoin:round;fill-rule:evenodd;"
d="M 25685.4,12574.6
25685.4,11905.4
26354.6,11905.4
26354.6,12574.6
Z" /> 
</g>
<g >
</g>
<g style="fill:#FFFFFF; fill-opacity:1.0; 
stroke:#FFFFFF; stroke-width:0; stroke-opacity:1; 
stroke-linecap:round; stroke-linejoin:round;">
<path style="fill:#FFFFFF; fill-opacity:1.0; 
stroke:#FFFFFF; stroke-width:0; stroke-opacity:1; 
stroke-linecap:round; stroke-linejoin:round;fill-rule:evenodd;"
d="M 24265.4,12574.6
24265.4,11905.4
24934.6,11905.4
24934.6,12574.6
Z" /> 
</g>
<g >
</g>
<g >
</g>
<g style="fill:#FFFFFF; fill-opacity:1.0; 
stroke:#FFFFFF; stroke-width:0; stroke-opacity:1; 
stroke-linecap:round; stroke-linejoin:round;">
<path style="fill:#FFFFFF; fill-opacity:1.0; 
stroke:#FFFFFF; stroke-width:0; stroke-opacity:1; 
stroke-linecap:round; stroke-linejoin:round;fill-rule:evenodd;"
d="M 21915.3,20353.7
21324.7,20353.7
21324.7,19566.3
21915.3,19566.3
Z" /> 
</g>
<g >
</g>
<g style="fill:#FFFFFF; fill-opacity:1.0; 
stroke:#FFFFFF; stroke-width:0; stroke-opacity:1; 
stroke-linecap:round; stroke-linejoin:round;">
<path style="fill:#FFFFFF; fill-opacity:1.0; 
stroke:#FFFFFF; stroke-width:0; stroke-opacity:1; 
stroke-linecap:round; stroke-linejoin:round;fill-rule:evenodd;"
d="M 22072.3,16721.1
22077.7,16721.8
22082.9,16723.2
22088,16725
22092.9,16727.3
22097.6,16730.1
22101.9,16733.3
22105.9,16736.9
22109.5,16740.9
22112.8,16745.3
22115.5,16749.9
22117.9,16754.8
22119.7,16759.9
22121,16765.2
22121.8,16770.5
22122,16775.9
22122,16886.1
22121.8,16891.5
22121,16896.9
22119.7,16902.1
22117.9,16907.2
22115.5,16912.1
22112.8,16916.8
22109.5,16921.1
22105.9,16925.1
22101.9,16928.7
22097.6,16932
22092.9,16934.8
22088,16937.1
22082.9,16938.9
22077.7,16940.2
22072.3,16941
22066.9,16941.3
21933.1,16941.3
21927.7,16941
21922.3,16940.2
21917.1,16938.9
21912,16937.1
21907.1,16934.8
21902.4,16932
21898.1,16928.7
21894.1,16925.1
21890.5,16921.1
21887.2,16916.8
21884.5,16912.1
21882.1,16907.2
21880.3,16902.1
21879,16896.9
21878.2,16891.5
21878,16886.1
21878,16775.9
21878.2,16770.5
21879,16765.2
21880.3,16759.9
21882.1,16754.8
21884.5,16749.9
21887.2,16745.3
21890.5,16740.9
21894.1,16736.9
21898.1,16733.3
21902.4,16730.1
21907.1,16727.3
21912,16725
21917.1,16723.2
21922.3,16721.8
21927.7,16721.1
21933.1,16720.8
22066.9,16720.8
Z" /> 
<path style="fill:#FFFFFF; fill-opacity:1.0; 
stroke:#FFFFFF; stroke-width:0; stroke-opacity:1; 
stroke-linecap:round; stroke-linejoin:round;fill-rule:evenodd;"
d="M 22072.3,17099
22077.7,17099.8
22082.9,17101.1
22088,17102.9
22092.9,17105.2
22097.6,17108
22101.9,17111.3
22105.9,17114.9
22109.5,17118.9
22112.8,17123.2
22115.5,17127.9
22117.9,17132.8
22119.7,17137.9
22121,17143.1
22121.8,17148.5
22122,17153.9
22122,17264.1
22121.8,17269.5
22121,17274.8
22119.7,17280.1
22117.9,17285.2
22115.5,17290.1
22112.8,17294.7
22109.5,17299.1
22105.9,17303.1
22101.9,17306.7
22097.6,17309.9
22092.9,17312.7
22088,17315
22082.9,17316.8
22077.7,17318.2
22072.3,17318.9
22066.9,17319.2
21933.1,17319.2
21927.7,17318.9
21922.3,17318.2
21917.1,17316.8
21912,17315
21907.1,17312.7
21902.4,17309.9
21898.1,17306.7
21894.1,17303.1
21890.5,17299.1
21887.2,17294.7
21884.5,17290.1
21882.1,17285.2
21880.3,17280.1
21879,17274.8
21878.2,17269.5
21878,17264.1
21878,17153.9
21878.2,17148.5
21879,17143.1
21880.3,17137.9
21882.1,17132.8
21884.5,17127.9
21887.2,17123.2
21890.5,17118.9
21894.1,17114.9
21898.1,17111.3
21902.4,17108
21907.1,17105.2
21912,17102.9
21917.1,17101.1
21922.3,17099.8
21927.7,17099
21933.1,17098.7
22066.9,17098.7
Z" /> 
</g>
<g >
</g>
<g style="fill:#FFFFFF; fill-opacity:1.0; 
stroke:#FFFFFF; stroke-width:0; stroke-opacity:1; 
stroke-linecap:round; stroke-linejoin:round;">
<path style="fill:#FFFFFF; fill-opacity:1.0; 
stroke:#FFFFFF; stroke-width:0; stroke-opacity:1; 
stroke-linecap:round; stroke-linejoin:round;fill-rule:evenodd;"
d="M 23738,18593.2
23743.2,18593.9
23748.3,18595.2
23753.2,18597
23757.9,18599.2
23762.4,18601.9
23766.6,18605
23770.4,18608.5
23773.9,18612.3
23777,18616.5
23779.7,18621
23781.9,18625.7
23783.7,18630.6
23785,18635.7
23785.7,18640.9
23786,18646.1
23786,18752.4
23785.7,18757.6
23785,18762.7
23783.7,18767.8
23781.9,18772.7
23779.7,18777.4
23777,18781.9
23773.9,18786.1
23770.4,18789.9
23766.6,18793.4
23762.4,18796.6
23757.9,18799.2
23753.2,18801.5
23748.3,18803.2
23743.2,18804.5
23738,18805.3
23732.8,18805.5
23587.2,18805.5
23582,18805.3
23576.8,18804.5
23571.7,18803.2
23566.8,18801.5
23562.1,18799.2
23557.6,18796.6
23553.4,18793.4
23549.6,18789.9
23546.1,18786.1
23543,18781.9
23540.3,18777.4
23538.1,18772.7
23536.3,18767.8
23535,18762.7
23534.3,18757.6
23534,18752.4
23534,18646.1
23534.3,18640.9
23535,18635.7
23536.3,18630.6
23538.1,18625.7
23540.3,18621
23543,18616.5
23546.1,18612.3
23549.6,18608.5
23553.4,18605
23557.6,18601.9
23562.1,18599.2
23566.8,18597
23571.7,18595.2
23576.8,18593.9
23582,18593.2
23587.2,18592.9
23732.8,18592.9
Z" /> 
<path style="fill:#FFFFFF; fill-opacity:1.0; 
stroke:#FFFFFF; stroke-width:0; stroke-opacity:1; 
stroke-linecap:round; stroke-linejoin:round;fill-rule:evenodd;"
d="M 23738,18994.7
23743.2,18995.5
23748.3,18996.8
23753.2,18998.5
23757.9,19000.8
23762.4,19003.4
23766.6,19006.6
23770.4,19010.1
23773.9,19013.9
23777,19018.1
23779.7,19022.6
23781.9,19027.3
23783.7,19032.2
23785,19037.3
23785.7,19042.4
23786,19047.6
23786,19153.9
23785.7,19159.1
23785,19164.3
23783.7,19169.4
23781.9,19174.3
23779.7,19179
23777,19183.5
23773.9,19187.7
23770.4,19191.5
23766.6,19195
23762.4,19198.1
23757.9,19200.8
23753.2,19203
23748.3,19204.8
23743.2,19206.1
23738,19206.8
23732.8,19207.1
23587.2,19207.1
23582,19206.8
23576.8,19206.1
23571.7,19204.8
23566.8,19203
23562.1,19200.8
23557.6,19198.1
23553.4,19195
23549.6,19191.5
23546.1,19187.7
23543,19183.5
23540.3,19179
23538.1,19174.3
23536.3,19169.4
23535,19164.3
23534.3,19159.1
23534,19153.9
23534,19047.6
23534.3,19042.4
23535,19037.3
23536.3,19032.2
23538.1,19027.3
23540.3,19022.6
23543,19018.1
23546.1,19013.9
23549.6,19010.1
23553.4,19006.6
23557.6,19003.4
23562.1,19000.8
23566.8,18998.5
23571.7,18996.8
23576.8,18995.5
23582,18994.7
23587.2,18994.5
23732.8,18994.5
Z" /> 
</g>
<g >
</g>
<g style="fill:#FFFFFF; fill-opacity:1.0; 
stroke:#FFFFFF; stroke-width:0; stroke-opacity:1; 
stroke-linecap:round; stroke-linejoin:round;">
<path style="fill:#FFFFFF; fill-opacity:1.0; 
stroke:#FFFFFF; stroke-width:0; stroke-opacity:1; 
stroke-linecap:round; stroke-linejoin:round;fill-rule:evenodd;"
d="M 24158,18593.2
24163.2,18593.9
24168.3,18595.2
24173.2,18597
24177.9,18599.2
24182.4,18601.9
24186.6,18605
24190.4,18608.5
24193.9,18612.3
24197,18616.5
24199.7,18621
24201.9,18625.7
24203.7,18630.6
24205,18635.7
24205.7,18640.9
24206,18646.1
24206,18752.4
24205.7,18757.6
24205,18762.7
24203.7,18767.8
24201.9,18772.7
24199.7,18777.4
24197,18781.9
24193.9,18786.1
24190.4,18789.9
24186.6,18793.4
24182.4,18796.6
24177.9,18799.2
24173.2,18801.5
24168.3,18803.2
24163.2,18804.5
24158,18805.3
24152.8,18805.5
24007.2,18805.5
24002,18805.3
23996.8,18804.5
23991.7,18803.2
23986.8,18801.5
23982.1,18799.2
23977.6,18796.6
23973.4,18793.4
23969.6,18789.9
23966.1,18786.1
23963,18781.9
23960.3,18777.4
23958.1,18772.7
23956.3,18767.8
23955,18762.7
23954.3,18757.6
23954,18752.4
23954,18646.1
23954.3,18640.9
23955,18635.7
23956.3,18630.6
23958.1,18625.7
23960.3,18621
23963,18616.5
23966.1,18612.3
23969.6,18608.5
23973.4,18605
23977.6,18601.9
23982.1,18599.2
23986.8,18597
23991.7,18595.2
23996.8,18593.9
24002,18593.2
24007.2,18592.9
24152.8,18592.9
Z" /> 
<path style="fill:#FFFFFF; fill-opacity:1.0; 
stroke:#FFFFFF; stroke-width:0; stroke-opacity:1; 
stroke-linecap:round; stroke-linejoin:round;fill-rule:evenodd;"
d="M 24158,18994.7
24163.2,18995.5
24168.3,18996.8
24173.2,18998.5
24177.9,19000.8
24182.4,19003.4
24186.6,19006.6
24190.4,19010.1
24193.9,19013.9
24197,19018.1
24199.7,19022.6
24201.9,19027.3
24203.7,19032.2
24205,19037.3
24205.7,19042.4
24206,19047.6
24206,19153.9
24205.7,19159.1
24205,19164.3
24203.7,19169.4
24201.9,19174.3
24199.7,19179
24197,19183.5
24193.9,19187.7
24190.4,19191.5
24186.6,19195
24182.4,19198.1
24177.9,19200.8
24173.2,19203
24168.3,19204.8
24163.2,19206.1
24158,19206.8
24152.8,19207.1
24007.2,19207.1
24002,19206.8
23996.8,19206.1
23991.7,19204.8
23986.8,19203
23982.1,19200.8
23977.6,19198.1
23973.4,19195
23969.6,19191.5
23966.1,19187.7
23963,19183.5
23960.3,19179
23958.1,19174.3
23956.3,19169.4
23955,19164.3
23954.3,19159.1
23954,19153.9
23954,19047.6
23954.3,19042.4
23955,19037.3
23956.3,19032.2
23958.1,19027.3
23960.3,19022.6
23963,19018.1
23966.1,19013.9
23969.6,19010.1
23973.4,19006.6
23977.6,19003.4
23982.1,19000.8
23986.8,18998.5
23991.7,18996.8
23996.8,18995.5
24002,18994.7
24007.2,18994.5
24152.8,18994.5
Z" /> 
</g>
<g >
</g>
<g style="fill:#FFFFFF; fill-opacity:1.0; 
stroke:#FFFFFF; stroke-width:0; stroke-opacity:1; 
stroke-linecap:round; stroke-linejoin:round;">
<path style="fill:#FFFFFF; fill-opacity:1.0; 
stroke:#FFFFFF; stroke-width:0; stroke-opacity:1; 
stroke-linecap:round; stroke-linejoin:round;fill-rule:evenodd;"
d="M 24578,18593.2
24583.2,18593.9
24588.3,18595.2
24593.2,18597
24597.9,18599.2
24602.4,18601.9
24606.6,18605
24610.4,18608.5
24613.9,18612.3
24617,18616.5
24619.7,18621
24621.9,18625.7
24623.7,18630.6
24625,18635.7
24625.7,18640.9
24626,18646.1
24626,18752.4
24625.7,18757.6
24625,18762.7
24623.7,18767.8
24621.9,18772.7
24619.7,18777.4
24617,18781.9
24613.9,18786.1
24610.4,18789.9
24606.6,18793.4
24602.4,18796.6
24597.9,18799.2
24593.2,18801.5
24588.3,18803.2
24583.2,18804.5
24578,18805.3
24572.8,18805.5
24427.2,18805.5
24422,18805.3
24416.8,18804.5
24411.7,18803.2
24406.8,18801.5
24402.1,18799.2
24397.6,18796.6
24393.4,18793.4
24389.6,18789.9
24386.1,18786.1
24383,18781.9
24380.3,18777.4
24378.1,18772.7
24376.3,18767.8
24375,18762.7
24374.3,18757.6
24374,18752.4
24374,18646.1
24374.3,18640.9
24375,18635.7
24376.3,18630.6
24378.1,18625.7
24380.3,18621
24383,18616.5
24386.1,18612.3
24389.6,18608.5
24393.4,18605
24397.6,18601.9
24402.1,18599.2
24406.8,18597
24411.7,18595.2
24416.8,18593.9
24422,18593.2
24427.2,18592.9
24572.8,18592.9
Z" /> 
<path style="fill:#FFFFFF; fill-opacity:1.0; 
stroke:#FFFFFF; stroke-width:0; stroke-opacity:1; 
stroke-linecap:round; stroke-linejoin:round;fill-rule:evenodd;"
d="M 24578,18994.7
24583.2,18995.5
24588.3,18996.8
24593.2,18998.5
24597.9,19000.8
24602.4,19003.4
24606.6,19006.6
24610.4,19010.1
24613.9,19013.9
24617,19018.1
24619.7,19022.6
24621.9,19027.3
24623.7,19032.2
24625,19037.3
24625.7,19042.4
24626,19047.6
24626,19153.9
24625.7,19159.1
24625,19164.3
24623.7,19169.4
24621.9,19174.3
24619.7,19179
24617,19183.5
24613.9,19187.7
24610.4,19191.5
24606.6,19195
24602.4,19198.1
24597.9,19200.8
24593.2,19203
24588.3,19204.8
24583.2,19206.1
24578,19206.8
24572.8,19207.1
24427.2,19207.1
24422,19206.8
24416.8,19206.1
24411.7,19204.8
24406.8,19203
24402.1,19200.8
24397.6,19198.1
24393.4,19195
24389.6,19191.5
24386.1,19187.7
24383,19183.5
24380.3,19179
24378.1,19174.3
24376.3,19169.4
24375,19164.3
24374.3,19159.1
24374,19153.9
24374,19047.6
24374.3,19042.4
24375,19037.3
24376.3,19032.2
24378.1,19027.3
24380.3,19022.6
24383,19018.1
24386.1,19013.9
24389.6,19010.1
24393.4,19006.6
24397.6,19003.4
24402.1,19000.8
24406.8,18998.5
24411.7,18996.8
24416.8,18995.5
24422,18994.7
24427.2,18994.5
24572.8,18994.5
Z" /> 
</g>
<g >
</g>
<g style="fill:#FFFFFF; fill-opacity:1.0; 
stroke:#FFFFFF; stroke-width:0; stroke-opacity:1; 
stroke-linecap:round; stroke-linejoin:round;">
<path style="fill:#FFFFFF; fill-opacity:1.0; 
stroke:#FFFFFF; stroke-width:0; stroke-opacity:1; 
stroke-linecap:round; stroke-linejoin:round;fill-rule:evenodd;"
d="M 25291.5,18198.2
25296.9,18199
25302.1,18200.3
25307.2,18202.1
25312.1,18204.5
25316.8,18207.2
25321.1,18210.5
25325.1,18214.1
25328.7,18218.1
25332,18222.4
25334.8,18227.1
25337.1,18232
25338.9,18237.1
25340.2,18242.3
25341,18247.7
25341.3,18253.1
25341.3,18386.9
25341,18392.3
25340.2,18397.7
25338.9,18402.9
25337.1,18408
25334.8,18412.9
25332,18417.6
25328.7,18421.9
25325.1,18425.9
25321.1,18429.5
25316.8,18432.8
25312.1,18435.5
25307.2,18437.9
25302.1,18439.7
25296.9,18441
25291.5,18441.8
25286.1,18442
25175.9,18442
25170.5,18441.8
25165.2,18441
25159.9,18439.7
25154.8,18437.9
25149.9,18435.5
25145.3,18432.8
25140.9,18429.5
25136.9,18425.9
25133.3,18421.9
25130.1,18417.6
25127.3,18412.9
25125,18408
25123.2,18402.9
25121.8,18397.7
25121.1,18392.3
25120.8,18386.9
25120.8,18253.1
25121.1,18247.7
25121.8,18242.3
25123.2,18237.1
25125,18232
25127.3,18227.1
25130.1,18222.4
25133.3,18218.1
25136.9,18214.1
25140.9,18210.5
25145.3,18207.2
25149.9,18204.5
25154.8,18202.1
25159.9,18200.3
25165.2,18199
25170.5,18198.2
25175.9,18198
25286.1,18198
Z" /> 
<path style="fill:#FFFFFF; fill-opacity:1.0; 
stroke:#FFFFFF; stroke-width:0; stroke-opacity:1; 
stroke-linecap:round; stroke-linejoin:round;fill-rule:evenodd;"
d="M 25669.5,18198.2
25674.8,18199
25680.1,18200.3
25685.2,18202.1
25690.1,18204.5
25694.7,18207.2
25699.1,18210.5
25703.1,18214.1
25706.7,18218.1
25709.9,18222.4
25712.7,18227.1
25715,18232
25716.8,18237.1
25718.2,18242.3
25718.9,18247.7
25719.2,18253.1
25719.2,18386.9
25718.9,18392.3
25718.2,18397.7
25716.8,18402.9
25715,18408
25712.7,18412.9
25709.9,18417.6
25706.7,18421.9
25703.1,18425.9
25699.1,18429.5
25694.7,18432.8
25690.1,18435.5
25685.2,18437.9
25680.1,18439.7
25674.8,18441
25669.5,18441.8
25664.1,18442
25553.9,18442
25548.5,18441.8
25543.1,18441
25537.9,18439.7
25532.8,18437.9
25527.9,18435.5
25523.2,18432.8
25518.9,18429.5
25514.9,18425.9
25511.3,18421.9
25508,18417.6
25505.2,18412.9
25502.9,18408
25501.1,18402.9
25499.8,18397.7
25499,18392.3
25498.7,18386.9
25498.7,18253.1
25499,18247.7
25499.8,18242.3
25501.1,18237.1
25502.9,18232
25505.2,18227.1
25508,18222.4
25511.3,18218.1
25514.9,18214.1
25518.9,18210.5
25523.2,18207.2
25527.9,18204.5
25532.8,18202.1
25537.9,18200.3
25543.1,18199
25548.5,18198.2
25553.9,18198
25664.1,18198
Z" /> 
</g>
<g >
</g>
<g style="fill:#FFFFFF; fill-opacity:1.0; 
stroke:#FFFFFF; stroke-width:0; stroke-opacity:1; 
stroke-linecap:round; stroke-linejoin:round;">
<path style="fill:#FFFFFF; fill-opacity:1.0; 
stroke:#FFFFFF; stroke-width:0; stroke-opacity:1; 
stroke-linecap:round; stroke-linejoin:round;fill-rule:evenodd;"
d="M 25291.5,13638.2
25296.9,13639
25302.1,13640.3
25307.2,13642.1
25312.1,13644.5
25316.8,13647.2
25321.1,13650.5
25325.1,13654.1
25328.7,13658.1
25332,13662.4
25334.8,13667.1
25337.1,13672
25338.9,13677.1
25340.2,13682.3
25341,13687.7
25341.3,13693.1
25341.3,13826.9
25341,13832.3
25340.2,13837.7
25338.9,13842.9
25337.1,13848
25334.8,13852.9
25332,13857.6
25328.7,13861.9
25325.1,13865.9
25321.1,13869.5
25316.8,13872.8
25312.1,13875.5
25307.2,13877.9
25302.1,13879.7
25296.9,13881
25291.5,13881.8
25286.1,13882
25175.9,13882
25170.5,13881.8
25165.2,13881
25159.9,13879.7
25154.8,13877.9
25149.9,13875.5
25145.3,13872.8
25140.9,13869.5
25136.9,13865.9
25133.3,13861.9
25130.1,13857.6
25127.3,13852.9
25125,13848
25123.2,13842.9
25121.8,13837.7
25121.1,13832.3
25120.8,13826.9
25120.8,13693.1
25121.1,13687.7
25121.8,13682.3
25123.2,13677.1
25125,13672
25127.3,13667.1
25130.1,13662.4
25133.3,13658.1
25136.9,13654.1
25140.9,13650.5
25145.3,13647.2
25149.9,13644.5
25154.8,13642.1
25159.9,13640.3
25165.2,13639
25170.5,13638.2
25175.9,13638
25286.1,13638
Z" /> 
<path style="fill:#FFFFFF; fill-opacity:1.0; 
stroke:#FFFFFF; stroke-width:0; stroke-opacity:1; 
stroke-linecap:round; stroke-linejoin:round;fill-rule:evenodd;"
d="M 25669.5,13638.2
25674.8,13639
25680.1,13640.3
25685.2,13642.1
25690.1,13644.5
25694.7,13647.2
25699.1,13650.5
25703.1,13654.1
25706.7,13658.1
25709.9,13662.4
25712.7,13667.1
25715,13672
25716.8,13677.1
25718.2,13682.3
25718.9,13687.7
25719.2,13693.1
25719.2,13826.9
25718.9,13832.3
25718.2,13837.7
25716.8,13842.9
25715,13848
25712.7,13852.9
25709.9,13857.6
25706.7,13861.9
25703.1,13865.9
25699.1,13869.5
25694.7,13872.8
25690.1,13875.5
25685.2,13877.9
25680.1,13879.7
25674.8,13881
25669.5,13881.8
25664.1,13882
25553.9,13882
25548.5,13881.8
25543.1,13881
25537.9,13879.7
25532.8,13877.9
25527.9,13875.5
25523.2,13872.8
25518.9,13869.5
25514.9,13865.9
25511.3,13861.9
25508,13857.6
25505.2,13852.9
25502.9,13848
25501.1,13842.9
25499.8,13837.7
25499,13832.3
25498.7,13826.9
25498.7,13693.1
25499,13687.7
25499.8,13682.3
25501.1,13677.1
25502.9,13672
25505.2,13667.1
25508,13662.4
25511.3,13658.1
25514.9,13654.1
25518.9,13650.5
25523.2,13647.2
25527.9,13644.5
25532.8,13642.1
25537.9,13640.3
25543.1,13639
25548.5,13638.2
25553.9,13638
25664.1,13638
Z" /> 
</g>
<g >
</g>
<g >
</g>
<g style="fill:#FFFFFF; fill-opacity:1.0; 
stroke:#FFFFFF; stroke-width:0; stroke-opacity:1; 
stroke-linecap:round; stroke-linejoin:round;">
<path style="fill:#FFFFFF; fill-opacity:1.0; 
stroke:#FFFFFF; stroke-width:0; stroke-opacity:1; 
stroke-linecap:round; stroke-linejoin:round;fill-rule:evenodd;"
d="M 24124.5,13628.2
24129.8,13629
24135.1,13630.3
24140.2,13632.1
24145.1,13634.5
24149.7,13637.2
24154.1,13640.5
24158.1,13644.1
24161.7,13648.1
24164.9,13652.4
24167.7,13657.1
24170,13662
24171.8,13667.1
24173.2,13672.3
24173.9,13677.7
24174.2,13683.1
24174.2,13816.9
24173.9,13822.3
24173.2,13827.7
24171.8,13832.9
24170,13838
24167.7,13842.9
24164.9,13847.6
24161.7,13851.9
24158.1,13855.9
24154.1,13859.5
24149.7,13862.8
24145.1,13865.5
24140.2,13867.9
24135.1,13869.7
24129.8,13871
24124.5,13871.8
24119.1,13872
24008.9,13872
24003.5,13871.8
23998.1,13871
23992.9,13869.7
23987.8,13867.9
23982.9,13865.5
23978.2,13862.8
23973.9,13859.5
23969.9,13855.9
23966.3,13851.9
23963,13847.6
23960.2,13842.9
23957.9,13838
23956.1,13832.9
23954.8,13827.7
23954,13822.3
23953.7,13816.9
23953.7,13683.1
23954,13677.7
23954.8,13672.3
23956.1,13667.1
23957.9,13662
23960.2,13657.1
23963,13652.4
23966.3,13648.1
23969.9,13644.1
23973.9,13640.5
23978.2,13637.2
23982.9,13634.5
23987.8,13632.1
23992.9,13630.3
23998.1,13629
24003.5,13628.2
24008.9,13628
24119.1,13628
Z" /> 
<path style="fill:#FFFFFF; fill-opacity:1.0; 
stroke:#FFFFFF; stroke-width:0; stroke-opacity:1; 
stroke-linecap:round; stroke-linejoin:round;fill-rule:evenodd;"
d="M 23746.5,13628.2
23751.9,13629
23757.1,13630.3
23762.2,13632.1
23767.1,13634.5
23771.8,13637.2
23776.1,13640.5
23780.1,13644.1
23783.7,13648.1
23787,13652.4
23789.8,13657.1
23792.1,13662
23793.9,13667.1
23795.2,13672.3
23796,13677.7
23796.3,13683.1
23796.3,13816.9
23796,13822.3
23795.2,13827.7
23793.9,13832.9
23792.1,13838
23789.8,13842.9
23787,13847.6
23783.7,13851.9
23780.1,13855.9
23776.1,13859.5
23771.8,13862.8
23767.1,13865.5
23762.2,13867.9
23757.1,13869.7
23751.9,13871
23746.5,13871.8
23741.1,13872
23630.9,13872
23625.5,13871.8
23620.2,13871
23614.9,13869.7
23609.8,13867.9
23604.9,13865.5
23600.3,13862.8
23595.9,13859.5
23591.9,13855.9
23588.3,13851.9
23585.1,13847.6
23582.3,13842.9
23580,13838
23578.2,13832.9
23576.8,13827.7
23576.1,13822.3
23575.8,13816.9
23575.8,13683.1
23576.1,13677.7
23576.8,13672.3
23578.2,13667.1
23580,13662
23582.3,13657.1
23585.1,13652.4
23588.3,13648.1
23591.9,13644.1
23595.9,13640.5
23600.3,13637.2
23604.9,13634.5
23609.8,13632.1
23614.9,13630.3
23620.2,13629
23625.5,13628.2
23630.9,13628
23741.1,13628
Z" /> 
</g>
<g >
</g>
<g >
</g>
<g >
</g>
<g style="fill:#FFFFFF; fill-opacity:1.0; 
stroke:#FFFFFF; stroke-width:0; stroke-opacity:1; 
stroke-linecap:round; stroke-linejoin:round;">
<path style="fill:#FFFFFF; fill-opacity:1.0; 
stroke:#FFFFFF; stroke-width:0; stroke-opacity:1; 
stroke-linecap:round; stroke-linejoin:round;fill-rule:evenodd;"
d="M 26088.1,18646.8
26097.6,18648.2
26107,18650.5
26116.1,18653.8
26124.8,18657.9
26133.1,18662.9
26140.9,18668.6
26148,18675.1
26154.5,18682.3
26160.3,18690
26165.2,18698.3
26169.4,18707.1
26172.6,18716.2
26175,18725.5
26176.4,18735.1
26176.9,18744.7
26176.9,19335.3
26176.4,19344.9
26175,19354.5
26172.6,19363.8
26169.4,19372.9
26165.2,19381.7
26160.3,19390
26154.5,19397.7
26148,19404.9
26140.9,19411.4
26133.1,19417.1
26124.8,19422.1
26116.1,19426.2
26107,19429.5
26097.6,19431.8
26088.1,19433.2
26078.4,19433.7
25881.6,19433.7
25871.9,19433.2
25862.4,19431.8
25853,19429.5
25843.9,19426.2
25835.2,19422.1
25826.9,19417.1
25819.1,19411.4
25812,19404.9
25805.5,19397.7
25799.7,19390
25794.8,19381.7
25790.6,19372.9
25787.4,19363.8
25785,19354.5
25783.6,19344.9
25783.1,19335.3
25783.1,18744.7
25783.6,18735.1
25785,18725.5
25787.4,18716.2
25790.6,18707.1
25794.8,18698.3
25799.7,18690
25805.5,18682.3
25812,18675.1
25819.1,18668.6
25826.9,18662.9
25835.2,18657.9
25843.9,18653.8
25853,18650.5
25862.4,18648.2
25871.9,18646.8
25881.6,18646.3
26078.4,18646.3
Z" /> 
<path style="fill:#FFFFFF; fill-opacity:1.0; 
stroke:#FFFFFF; stroke-width:0; stroke-opacity:1; 
stroke-linecap:round; stroke-linejoin:round;fill-rule:evenodd;"
d="M 25123.5,18646.8
25133.1,18648.2
25142.4,18650.5
25151.5,18653.8
25160.3,18657.9
25168.5,18662.9
25176.3,18668.6
25183.5,18675.1
25189.9,18682.3
25195.7,18690
25200.7,18698.3
25204.8,18707.1
25208,18716.2
25210.4,18725.5
25211.8,18735.1
25212.3,18744.7
25212.3,19335.3
25211.8,19344.9
25210.4,19354.5
25208,19363.8
25204.8,19372.9
25200.7,19381.7
25195.7,19390
25189.9,19397.7
25183.5,19404.9
25176.3,19411.4
25168.5,19417.1
25160.3,19422.1
25151.5,19426.2
25142.4,19429.5
25133.1,19431.8
25123.5,19433.2
25113.9,19433.7
24917,19433.7
24907.4,19433.2
24897.8,19431.8
24888.4,19429.5
24879.3,19426.2
24870.6,19422.1
24862.3,19417.1
24854.6,19411.4
24847.4,19404.9
24840.9,19397.7
24835.2,19390
24830.2,19381.7
24826.1,19372.9
24822.8,19363.8
24820.5,19354.5
24819.1,19344.9
24818.6,19335.3
24818.6,18744.7
24819.1,18735.1
24820.5,18725.5
24822.8,18716.2
24826.1,18707.1
24830.2,18698.3
24835.2,18690
24840.9,18682.3
24847.4,18675.1
24854.6,18668.6
24862.3,18662.9
24870.6,18657.9
24879.3,18653.8
24888.4,18650.5
24897.8,18648.2
24907.4,18646.8
24917,18646.3
25113.9,18646.3
Z" /> 
<path style="fill:#FFFFFF; fill-opacity:1.0; 
stroke:#FFFFFF; stroke-width:0; stroke-opacity:1; 
stroke-linecap:round; stroke-linejoin:round;fill-rule:evenodd;"
d="M 27052.6,18646.8
27062.2,18648.2
27071.6,18650.5
27080.7,18653.8
27089.4,18657.9
27097.7,18662.9
27105.4,18668.6
27112.6,18675.1
27119.1,18682.3
27124.8,18690
27129.8,18698.3
27133.9,18707.1
27137.2,18716.2
27139.5,18725.5
27140.9,18735.1
27141.4,18744.7
27141.4,19335.3
27140.9,19344.9
27139.5,19354.5
27137.2,19363.8
27133.9,19372.9
27129.8,19381.7
27124.8,19390
27119.1,19397.7
27112.6,19404.9
27105.4,19411.4
27097.7,19417.1
27089.4,19422.1
27080.7,19426.2
27071.6,19429.5
27062.2,19431.8
27052.6,19433.2
27043,19433.7
26846.1,19433.7
26836.5,19433.2
26826.9,19431.8
26817.6,19429.5
26808.5,19426.2
26799.7,19422.1
26791.5,19417.1
26783.7,19411.4
26776.5,19404.9
26770.1,19397.7
26764.3,19390
26759.3,19381.7
26755.2,19372.9
26752,19363.8
26749.6,19354.5
26748.2,19344.9
26747.7,19335.3
26747.7,18744.7
26748.2,18735.1
26749.6,18725.5
26752,18716.2
26755.2,18707.1
26759.3,18698.3
26764.3,18690
26770.1,18682.3
26776.5,18675.1
26783.7,18668.6
26791.5,18662.9
26799.7,18657.9
26808.5,18653.8
26817.6,18650.5
26826.9,18648.2
26836.5,18646.8
26846.1,18646.3
27043,18646.3
Z" /> 
</g>
<g >
</g>
<g >
</g>
<g style="fill:#FFFFFF; fill-opacity:1.0; 
stroke:#FFFFFF; stroke-width:0; stroke-opacity:1; 
stroke-linecap:round; stroke-linejoin:round;">
<path style="fill:#FFFFFF; fill-opacity:1.0; 
stroke:#FFFFFF; stroke-width:0; stroke-opacity:1; 
stroke-linecap:round; stroke-linejoin:round;fill-rule:evenodd;"
d="M 25736.7,15006.5
25736.7,14908.1
26248.5,14908.1
26248.5,15006.5
Z" /> 
<path style="fill:#FFFFFF; fill-opacity:1.0; 
stroke:#FFFFFF; stroke-width:0; stroke-opacity:1; 
stroke-linecap:round; stroke-linejoin:round;fill-rule:evenodd;"
d="M 25736.7,15203.4
25736.7,15105
26248.5,15105
26248.5,15203.4
Z" /> 
<path style="fill:#FFFFFF; fill-opacity:1.0; 
stroke:#FFFFFF; stroke-width:0; stroke-opacity:1; 
stroke-linecap:round; stroke-linejoin:round;fill-rule:evenodd;"
d="M 25736.7,15400.2
25736.7,15301.8
26248.5,15301.8
26248.5,15400.2
Z" /> 
<path style="fill:#FFFFFF; fill-opacity:1.0; 
stroke:#FFFFFF; stroke-width:0; stroke-opacity:1; 
stroke-linecap:round; stroke-linejoin:round;fill-rule:evenodd;"
d="M 25736.7,15597.1
25736.7,15498.7
26248.5,15498.7
26248.5,15597.1
Z" /> 
<path style="fill:#FFFFFF; fill-opacity:1.0; 
stroke:#FFFFFF; stroke-width:0; stroke-opacity:1; 
stroke-linecap:round; stroke-linejoin:round;fill-rule:evenodd;"
d="M 25736.7,15793.9
25736.7,15695.5
26248.5,15695.5
26248.5,15793.9
Z" /> 
<path style="fill:#FFFFFF; fill-opacity:1.0; 
stroke:#FFFFFF; stroke-width:0; stroke-opacity:1; 
stroke-linecap:round; stroke-linejoin:round;fill-rule:evenodd;"
d="M 25736.7,15990.8
25736.7,15892.4
26248.5,15892.4
26248.5,15990.8
Z" /> 
<path style="fill:#FFFFFF; fill-opacity:1.0; 
stroke:#FFFFFF; stroke-width:0; stroke-opacity:1; 
stroke-linecap:round; stroke-linejoin:round;fill-rule:evenodd;"
d="M 25736.7,16187.6
25736.7,16089.2
26248.5,16089.2
26248.5,16187.6
Z" /> 
<path style="fill:#FFFFFF; fill-opacity:1.0; 
stroke:#FFFFFF; stroke-width:0; stroke-opacity:1; 
stroke-linecap:round; stroke-linejoin:round;fill-rule:evenodd;"
d="M 25736.7,16384.5
25736.7,16286.1
26248.5,16286.1
26248.5,16384.5
Z" /> 
<path style="fill:#FFFFFF; fill-opacity:1.0; 
stroke:#FFFFFF; stroke-width:0; stroke-opacity:1; 
stroke-linecap:round; stroke-linejoin:round;fill-rule:evenodd;"
d="M 25736.7,16581.3
25736.7,16482.9
26248.5,16482.9
26248.5,16581.3
Z" /> 
<path style="fill:#FFFFFF; fill-opacity:1.0; 
stroke:#FFFFFF; stroke-width:0; stroke-opacity:1; 
stroke-linecap:round; stroke-linejoin:round;fill-rule:evenodd;"
d="M 25736.7,16778.2
25736.7,16679.8
26248.5,16679.8
26248.5,16778.2
Z" /> 
<path style="fill:#FFFFFF; fill-opacity:1.0; 
stroke:#FFFFFF; stroke-width:0; stroke-opacity:1; 
stroke-linecap:round; stroke-linejoin:round;fill-rule:evenodd;"
d="M 25736.7,16975
25736.7,16876.6
26248.5,16876.6
26248.5,16975
Z" /> 
<path style="fill:#FFFFFF; fill-opacity:1.0; 
stroke:#FFFFFF; stroke-width:0; stroke-opacity:1; 
stroke-linecap:round; stroke-linejoin:round;fill-rule:evenodd;"
d="M 25736.7,17171.9
25736.7,17073.5
26248.5,17073.5
26248.5,17171.9
Z" /> 
<path style="fill:#FFFFFF; fill-opacity:1.0; 
stroke:#FFFFFF; stroke-width:0; stroke-opacity:1; 
stroke-linecap:round; stroke-linejoin:round;fill-rule:evenodd;"
d="M 25313.5,17496.7
25411.9,17496.7
25411.9,18008.5
25313.5,18008.5
Z" /> 
<path style="fill:#FFFFFF; fill-opacity:1.0; 
stroke:#FFFFFF; stroke-width:0; stroke-opacity:1; 
stroke-linecap:round; stroke-linejoin:round;fill-rule:evenodd;"
d="M 25116.6,17496.7
25215,17496.7
25215,18008.5
25116.6,18008.5
Z" /> 
<path style="fill:#FFFFFF; fill-opacity:1.0; 
stroke:#FFFFFF; stroke-width:0; stroke-opacity:1; 
stroke-linecap:round; stroke-linejoin:round;fill-rule:evenodd;"
d="M 24919.8,17496.7
25018.2,17496.7
25018.2,18008.5
24919.8,18008.5
Z" /> 
<path style="fill:#FFFFFF; fill-opacity:1.0; 
stroke:#FFFFFF; stroke-width:0; stroke-opacity:1; 
stroke-linecap:round; stroke-linejoin:round;fill-rule:evenodd;"
d="M 24722.9,17496.7
24821.3,17496.7
24821.3,18008.5
24722.9,18008.5
Z" /> 
<path style="fill:#FFFFFF; fill-opacity:1.0; 
stroke:#FFFFFF; stroke-width:0; stroke-opacity:1; 
stroke-linecap:round; stroke-linejoin:round;fill-rule:evenodd;"
d="M 24526.1,17496.7
24624.5,17496.7
24624.5,18008.5
24526.1,18008.5
Z" /> 
<path style="fill:#FFFFFF; fill-opacity:1.0; 
stroke:#FFFFFF; stroke-width:0; stroke-opacity:1; 
stroke-linecap:round; stroke-linejoin:round;fill-rule:evenodd;"
d="M 24329.2,17496.7
24427.6,17496.7
24427.6,18008.5
24329.2,18008.5
Z" /> 
<path style="fill:#FFFFFF; fill-opacity:1.0; 
stroke:#FFFFFF; stroke-width:0; stroke-opacity:1; 
stroke-linecap:round; stroke-linejoin:round;fill-rule:evenodd;"
d="M 24132.4,17496.7
24230.8,17496.7
24230.8,18008.5
24132.4,18008.5
Z" /> 
<path style="fill:#FFFFFF; fill-opacity:1.0; 
stroke:#FFFFFF; stroke-width:0; stroke-opacity:1; 
stroke-linecap:round; stroke-linejoin:round;fill-rule:evenodd;"
d="M 23935.5,17496.7
24033.9,17496.7
24033.9,18008.5
23935.5,18008.5
Z" /> 
<path style="fill:#FFFFFF; fill-opacity:1.0; 
stroke:#FFFFFF; stroke-width:0; stroke-opacity:1; 
stroke-linecap:round; stroke-linejoin:round;fill-rule:evenodd;"
d="M 23738.7,17496.7
23837.1,17496.7
23837.1,18008.5
23738.7,18008.5
Z" /> 
<path style="fill:#FFFFFF; fill-opacity:1.0; 
stroke:#FFFFFF; stroke-width:0; stroke-opacity:1; 
stroke-linecap:round; stroke-linejoin:round;fill-rule:evenodd;"
d="M 23541.8,17496.7
23640.2,17496.7
23640.2,18008.5
23541.8,18008.5
Z" /> 
<path style="fill:#FFFFFF; fill-opacity:1.0; 
stroke:#FFFFFF; stroke-width:0; stroke-opacity:1; 
stroke-linecap:round; stroke-linejoin:round;fill-rule:evenodd;"
d="M 23345,17496.7
23443.4,17496.7
23443.4,18008.5
23345,18008.5
Z" /> 
<path style="fill:#FFFFFF; fill-opacity:1.0; 
stroke:#FFFFFF; stroke-width:0; stroke-opacity:1; 
stroke-linecap:round; stroke-linejoin:round;fill-rule:evenodd;"
d="M 23148.1,17496.7
23246.5,17496.7
23246.5,18008.5
23148.1,18008.5
Z" /> 
<path style="fill:#FFFFFF; fill-opacity:1.0; 
stroke:#FFFFFF; stroke-width:0; stroke-opacity:1; 
stroke-linecap:round; stroke-linejoin:round;fill-rule:evenodd;"
d="M 22311.5,17171.9
22311.5,17073.5
22823.3,17073.5
22823.3,17171.9
Z" /> 
<path style="fill:#FFFFFF; fill-opacity:1.0; 
stroke:#FFFFFF; stroke-width:0; stroke-opacity:1; 
stroke-linecap:round; stroke-linejoin:round;fill-rule:evenodd;"
d="M 22311.5,16975
22311.5,16876.6
22823.3,16876.6
22823.3,16975
Z" /> 
<path style="fill:#FFFFFF; fill-opacity:1.0; 
stroke:#FFFFFF; stroke-width:0; stroke-opacity:1; 
stroke-linecap:round; stroke-linejoin:round;fill-rule:evenodd;"
d="M 22311.5,16778.2
22311.5,16679.8
22823.3,16679.8
22823.3,16778.2
Z" /> 
<path style="fill:#FFFFFF; fill-opacity:1.0; 
stroke:#FFFFFF; stroke-width:0; stroke-opacity:1; 
stroke-linecap:round; stroke-linejoin:round;fill-rule:evenodd;"
d="M 22311.5,16581.3
22311.5,16482.9
22823.3,16482.9
22823.3,16581.3
Z" /> 
<path style="fill:#FFFFFF; fill-opacity:1.0; 
stroke:#FFFFFF; stroke-width:0; stroke-opacity:1; 
stroke-linecap:round; stroke-linejoin:round;fill-rule:evenodd;"
d="M 22311.5,16384.5
22311.5,16286.1
22823.3,16286.1
22823.3,16384.5
Z" /> 
<path style="fill:#FFFFFF; fill-opacity:1.0; 
stroke:#FFFFFF; stroke-width:0; stroke-opacity:1; 
stroke-linecap:round; stroke-linejoin:round;fill-rule:evenodd;"
d="M 22311.5,16187.6
22311.5,16089.2
22823.3,16089.2
22823.3,16187.6
Z" /> 
<path style="fill:#FFFFFF; fill-opacity:1.0; 
stroke:#FFFFFF; stroke-width:0; stroke-opacity:1; 
stroke-linecap:round; stroke-linejoin:round;fill-rule:evenodd;"
d="M 22311.5,15990.8
22311.5,15892.4
22823.3,15892.4
22823.3,15990.8
Z" /> 
<path style="fill:#FFFFFF; fill-opacity:1.0; 
stroke:#FFFFFF; stroke-width:0; stroke-opacity:1; 
stroke-linecap:round; stroke-linejoin:round;fill-rule:evenodd;"
d="M 22311.5,15793.9
22311.5,15695.5
22823.3,15695.5
22823.3,15793.9
Z" /> 
<path style="fill:#FFFFFF; fill-opacity:1.0; 
stroke:#FFFFFF; stroke-width:0; stroke-opacity:1; 
stroke-linecap:round; stroke-linejoin:round;fill-rule:evenodd;"
d="M 22311.5,15597.1
22311.5,15498.7
22823.3,15498.7
22823.3,15597.1
Z" /> 
<path style="fill:#FFFFFF; fill-opacity:1.0; 
stroke:#FFFFFF; stroke-width:0; stroke-opacity:1; 
stroke-linecap:round; stroke-linejoin:round;fill-rule:evenodd;"
d="M 22311.5,15400.2
22311.5,15301.8
22823.3,15301.8
22823.3,15400.2
Z" /> 
<path style="fill:#FFFFFF; fill-opacity:1.0; 
stroke:#FFFFFF; stroke-width:0; stroke-opacity:1; 
stroke-linecap:round; stroke-linejoin:round;fill-rule:evenodd;"
d="M 22311.5,15203.4
22311.5,15105
22823.3,15105
22823.3,15203.4
Z" /> 
<path style="fill:#FFFFFF; fill-opacity:1.0; 
stroke:#FFFFFF; stroke-width:0; stroke-opacity:1; 
stroke-linecap:round; stroke-linejoin:round;fill-rule:evenodd;"
d="M 22311.5,15006.5
22311.5,14908.1
22823.3,14908.1
22823.3,15006.5
Z" /> 
<path style="fill:#FFFFFF; fill-opacity:1.0; 
stroke:#FFFFFF; stroke-width:0; stroke-opacity:1; 
stroke-linecap:round; stroke-linejoin:round;fill-rule:evenodd;"
d="M 23148.1,14071.5
23246.5,14071.5
23246.5,14583.3
23148.1,14583.3
Z" /> 
<path style="fill:#FFFFFF; fill-opacity:1.0; 
stroke:#FFFFFF; stroke-width:0; stroke-opacity:1; 
stroke-linecap:round; stroke-linejoin:round;fill-rule:evenodd;"
d="M 23345,14071.5
23443.4,14071.5
23443.4,14583.3
23345,14583.3
Z" /> 
<path style="fill:#FFFFFF; fill-opacity:1.0; 
stroke:#FFFFFF; stroke-width:0; stroke-opacity:1; 
stroke-linecap:round; stroke-linejoin:round;fill-rule:evenodd;"
d="M 23541.8,14071.5
23640.2,14071.5
23640.2,14583.3
23541.8,14583.3
Z" /> 
<path style="fill:#FFFFFF; fill-opacity:1.0; 
stroke:#FFFFFF; stroke-width:0; stroke-opacity:1; 
stroke-linecap:round; stroke-linejoin:round;fill-rule:evenodd;"
d="M 23738.7,14071.5
23837.1,14071.5
23837.1,14583.3
23738.7,14583.3
Z" /> 
<path style="fill:#FFFFFF; fill-opacity:1.0; 
stroke:#FFFFFF; stroke-width:0; stroke-opacity:1; 
stroke-linecap:round; stroke-linejoin:round;fill-rule:evenodd;"
d="M 23935.5,14071.5
24033.9,14071.5
24033.9,14583.3
23935.5,14583.3
Z" /> 
<path style="fill:#FFFFFF; fill-opacity:1.0; 
stroke:#FFFFFF; stroke-width:0; stroke-opacity:1; 
stroke-linecap:round; stroke-linejoin:round;fill-rule:evenodd;"
d="M 24132.4,14071.5
24230.8,14071.5
24230.8,14583.3
24132.4,14583.3
Z" /> 
<path style="fill:#FFFFFF; fill-opacity:1.0; 
stroke:#FFFFFF; stroke-width:0; stroke-opacity:1; 
stroke-linecap:round; stroke-linejoin:round;fill-rule:evenodd;"
d="M 24329.2,14071.5
24427.6,14071.5
24427.6,14583.3
24329.2,14583.3
Z" /> 
<path style="fill:#FFFFFF; fill-opacity:1.0; 
stroke:#FFFFFF; stroke-width:0; stroke-opacity:1; 
stroke-linecap:round; stroke-linejoin:round;fill-rule:evenodd;"
d="M 24526.1,14071.5
24624.5,14071.5
24624.5,14583.3
24526.1,14583.3
Z" /> 
<path style="fill:#FFFFFF; fill-opacity:1.0; 
stroke:#FFFFFF; stroke-width:0; stroke-opacity:1; 
stroke-linecap:round; stroke-linejoin:round;fill-rule:evenodd;"
d="M 24722.9,14071.5
24821.3,14071.5
24821.3,14583.3
24722.9,14583.3
Z" /> 
<path style="fill:#FFFFFF; fill-opacity:1.0; 
stroke:#FFFFFF; stroke-width:0; stroke-opacity:1; 
stroke-linecap:round; stroke-linejoin:round;fill-rule:evenodd;"
d="M 24919.8,14071.5
25018.2,14071.5
25018.2,14583.3
24919.8,14583.3
Z" /> 
<path style="fill:#FFFFFF; fill-opacity:1.0; 
stroke:#FFFFFF; stroke-width:0; stroke-opacity:1; 
stroke-linecap:round; stroke-linejoin:round;fill-rule:evenodd;"
d="M 25116.6,14071.5
25215,14071.5
25215,14583.3
25116.6,14583.3
Z" /> 
<path style="fill:#FFFFFF; fill-opacity:1.0; 
stroke:#FFFFFF; stroke-width:0; stroke-opacity:1; 
stroke-linecap:round; stroke-linejoin:round;fill-rule:evenodd;"
d="M 25313.5,14071.5
25411.9,14071.5
25411.9,14583.3
25313.5,14583.3
Z" /> 
</g>
<g >
</g>
<g style="fill:#FFFFFF; fill-opacity:1.0; 
stroke:#FFFFFF; stroke-width:0; stroke-opacity:1; 
stroke-linecap:round; stroke-linejoin:round;">
</g>
<g style="fill:#FFFFFF; fill-opacity:1.0; 
stroke:#FFFFFF; stroke-width:748.031; stroke-opacity:1; 
stroke-linecap:round; stroke-linejoin:round;">
</g>
<g style="fill:#FFFFFF; fill-opacity:0.0; 
stroke:#FFFFFF; stroke-width:748.031; stroke-opacity:1; 
stroke-linecap:round; stroke-linejoin:round;">
<path d="M22355 21028
L22355 21658
" />
<path d="M26844 21028
L26844 21658
" />
</g>
<g style="fill:#FFFFFF; fill-opacity:0.0; 
stroke:#FFFFFF; stroke-width:0; stroke-opacity:1; 
stroke-linecap:round; stroke-linejoin:round;">
</g>
<g style="fill:#FFFFFF; fill-opacity:1.0; 
stroke:#FFFFFF; stroke-width:0; stroke-opacity:1; 
stroke-linecap:round; stroke-linejoin:round;">
<path style="fill:#FFFFFF; fill-opacity:1.0; 
stroke:#FFFFFF; stroke-width:0; stroke-opacity:1; 
stroke-linecap:round; stroke-linejoin:round;fill-rule:evenodd;"
d="M 23005.5,19768.7
23438.6,19768.7
23438.6,20752.9
23005.5,20752.9
Z" /> 
<path style="fill:#FFFFFF; fill-opacity:1.0; 
stroke:#FFFFFF; stroke-width:0; stroke-opacity:1; 
stroke-linecap:round; stroke-linejoin:round;fill-rule:evenodd;"
d="M 25761.4,19768.7
26194.5,19768.7
26194.5,20752.9
25761.4,20752.9
Z" /> 
<path style="fill:#FFFFFF; fill-opacity:1.0; 
stroke:#FFFFFF; stroke-width:0; stroke-opacity:1; 
stroke-linecap:round; stroke-linejoin:round;fill-rule:evenodd;"
d="M 23989.8,19768.7
24422.8,19768.7
24422.8,20752.9
23989.8,20752.9
Z" /> 
<path style="fill:#FFFFFF; fill-opacity:1.0; 
stroke:#FFFFFF; stroke-width:0; stroke-opacity:1; 
stroke-linecap:round; stroke-linejoin:round;fill-rule:evenodd;"
d="M 24777.2,19768.7
25210.2,19768.7
25210.2,20752.9
24777.2,20752.9
Z" /> 
</g>
<g >
</g>
<g style="fill:#FFFFFF; fill-opacity:1.0; 
stroke:#FFFFFF; stroke-width:0; stroke-opacity:1; 
stroke-linecap:round; stroke-linejoin:round;">
<circle cx="23640" cy="14980" r="314.961" /> 
</g>
<g style="fill:#FFFFFF; fill-opacity:1.0; 
stroke:#FFFFFF; stroke-width:7.87402; stroke-opacity:1; 
stroke-linecap:round; stroke-linejoin:round;">
</g>
<g style="fill:#FFFFFF; fill-opacity:1.0; 
stroke:#FFFFFF; stroke-width:0; stroke-opacity:1; 
stroke-linecap:round; stroke-linejoin:round;">
<circle cx="26780" cy="15560" r="314.961" /> 
</g>
<g style="fill:#FFFFFF; fill-opacity:1.0; 
stroke:#FFFFFF; stroke-width:7.87402; stroke-opacity:1; 
stroke-linecap:round; stroke-linejoin:round;">
</g>
<g style="fill:#FFFFFF; fill-opacity:1.0; 
stroke:#FFFFFF; stroke-width:0; stroke-opacity:1; 
stroke-linecap:round; stroke-linejoin:round;">
<circle cx="26800" cy="16320" r="314.961" /> 
</g>
<g style="fill:#FFFFFF; fill-opacity:1.0; 
stroke:#FFFFFF; stroke-width:7.87402; stroke-opacity:1; 
stroke-linecap:round; stroke-linejoin:round;">
</g>
<g style="fill:#FFFFFF; fill-opacity:1.0; 
stroke:#FFFFFF; stroke-width:0; stroke-opacity:1; 
stroke-linecap:round; stroke-linejoin:round;">
<circle cx="27600" cy="20060" r="314.961" /> 
</g>
<g style="fill:#FFFFFF; fill-opacity:1.0; 
stroke:#FFFFFF; stroke-width:7.87402; stroke-opacity:1; 
stroke-linecap:round; stroke-linejoin:round;">
</g>
<g style="fill:#FFFFFF; fill-opacity:1.0; 
stroke:#FFFFFF; stroke-width:0; stroke-opacity:1; 
stroke-linecap:round; stroke-linejoin:round;">
<circle cx="26720" cy="20060" r="314.961" /> 
</g>
<g style="fill:#FFFFFF; fill-opacity:1.0; 
stroke:#FFFFFF; stroke-width:7.87402; stroke-opacity:1; 
stroke-linecap:round; stroke-linejoin:round;">
</g>
<g style="fill:#FFFFFF; fill-opacity:1.0; 
stroke:#FFFFFF; stroke-width:0; stroke-opacity:1; 
stroke-linecap:round; stroke-linejoin:round;">
<circle cx="25900" cy="14300" r="314.961" /> 
</g>
<g style="fill:#FFFFFF; fill-opacity:1.0; 
stroke:#FFFFFF; stroke-width:7.87402; stroke-opacity:1; 
stroke-linecap:round; stroke-linejoin:round;">
</g>
<g style="fill:#FFFFFF; fill-opacity:1.0; 
stroke:#FFFFFF; stroke-width:0; stroke-opacity:1; 
stroke-linecap:round; stroke-linejoin:round;">
<circle cx="25825" cy="17800" r="314.961" /> 
</g>
<g style="fill:#FFFFFF; fill-opacity:1.0; 
stroke:#FFFFFF; stroke-width:7.87402; stroke-opacity:1; 
stroke-linecap:round; stroke-linejoin:round;">
</g>
<g style="fill:#FFFFFF; fill-opacity:1.0; 
stroke:#FFFFFF; stroke-width:0; stroke-opacity:1; 
stroke-linecap:round; stroke-linejoin:round;">
<circle cx="22525" cy="17775" r="314.961" /> 
</g>
<g style="fill:#FFFFFF; fill-opacity:1.0; 
stroke:#FFFFFF; stroke-width:7.87402; stroke-opacity:1; 
stroke-linecap:round; stroke-linejoin:round;">
</g>
<g style="fill:#FFFFFF; fill-opacity:1.0; 
stroke:#FFFFFF; stroke-width:0; stroke-opacity:1; 
stroke-linecap:round; stroke-linejoin:round;">
<circle cx="27749.6" cy="14265.2" r="334.646" /> 
</g>
<g style="fill:#FFFFFF; fill-opacity:1.0; 
stroke:#FFFFFF; stroke-width:7.87402; stroke-opacity:1; 
stroke-linecap:round; stroke-linejoin:round;">
</g>
<g style="fill:#FFFFFF; fill-opacity:1.0; 
stroke:#FFFFFF; stroke-width:0; stroke-opacity:1; 
stroke-linecap:round; stroke-linejoin:round;">
<circle cx="27749.6" cy="15840" r="334.646" /> 
</g>
<g style="fill:#FFFFFF; fill-opacity:1.0; 
stroke:#FFFFFF; stroke-width:7.87402; stroke-opacity:1; 
stroke-linecap:round; stroke-linejoin:round;">
</g>
<g style="fill:#FFFFFF; fill-opacity:1.0; 
stroke:#FFFFFF; stroke-width:0; stroke-opacity:1; 
stroke-linecap:round; stroke-linejoin:round;">
<circle cx="27749.6" cy="13477.8" r="334.646" /> 
</g>
<g style="fill:#FFFFFF; fill-opacity:1.0; 
stroke:#FFFFFF; stroke-width:7.87402; stroke-opacity:1; 
stroke-linecap:round; stroke-linejoin:round;">
</g>
<g style="fill:#FFFFFF; fill-opacity:1.0; 
stroke:#FFFFFF; stroke-width:0; stroke-opacity:1; 
stroke-linecap:round; stroke-linejoin:round;">
<circle cx="21450.4" cy="15052.6" r="334.646" /> 
</g>
<g style="fill:#FFFFFF; fill-opacity:1.0; 
stroke:#FFFFFF; stroke-width:7.87402; stroke-opacity:1; 
stroke-linecap:round; stroke-linejoin:round;">
</g>
<g style="fill:#FFFFFF; fill-opacity:1.0; 
stroke:#FFFFFF; stroke-width:0; stroke-opacity:1; 
stroke-linecap:round; stroke-linejoin:round;">
<circle cx="21450.4" cy="13477.8" r="334.646" /> 
</g>
<g style="fill:#FFFFFF; fill-opacity:1.0; 
stroke:#FFFFFF; stroke-width:7.87402; stroke-opacity:1; 
stroke-linecap:round; stroke-linejoin:round;">
</g>
<g style="fill:#FFFFFF; fill-opacity:1.0; 
stroke:#FFFFFF; stroke-width:0; stroke-opacity:1; 
stroke-linecap:round; stroke-linejoin:round;">
<circle cx="21450.4" cy="14265.2" r="334.646" /> 
</g>
<g style="fill:#FFFFFF; fill-opacity:1.0; 
stroke:#FFFFFF; stroke-width:7.87402; stroke-opacity:1; 
stroke-linecap:round; stroke-linejoin:round;">
</g>
<g style="fill:#FFFFFF; fill-opacity:1.0; 
stroke:#FFFFFF; stroke-width:0; stroke-opacity:1; 
stroke-linecap:round; stroke-linejoin:round;">
<circle cx="21450.4" cy="16627.4" r="334.646" /> 
</g>
<g style="fill:#FFFFFF; fill-opacity:1.0; 
stroke:#FFFFFF; stroke-width:7.87402; stroke-opacity:1; 
stroke-linecap:round; stroke-linejoin:round;">
</g>
<g style="fill:#FFFFFF; fill-opacity:1.0; 
stroke:#FFFFFF; stroke-width:0; stroke-opacity:1; 
stroke-linecap:round; stroke-linejoin:round;">
<circle cx="27749.6" cy="18202.2" r="334.646" /> 
</g>
<g style="fill:#FFFFFF; fill-opacity:1.0; 
stroke:#FFFFFF; stroke-width:7.87402; stroke-opacity:1; 
stroke-linecap:round; stroke-linejoin:round;">
</g>
<g style="fill:#FFFFFF; fill-opacity:1.0; 
stroke:#FFFFFF; stroke-width:0; stroke-opacity:1; 
stroke-linecap:round; stroke-linejoin:round;">
<circle cx="21450.4" cy="17414.8" r="334.646" /> 
</g>
<g style="fill:#FFFFFF; fill-opacity:1.0; 
stroke:#FFFFFF; stroke-width:7.87402; stroke-opacity:1; 
stroke-linecap:round; stroke-linejoin:round;">
</g>
<g style="fill:#FFFFFF; fill-opacity:1.0; 
stroke:#FFFFFF; stroke-width:0; stroke-opacity:1; 
stroke-linecap:round; stroke-linejoin:round;">
<circle cx="27749.6" cy="16627.4" r="334.646" /> 
</g>
<g style="fill:#FFFFFF; fill-opacity:1.0; 
stroke:#FFFFFF; stroke-width:7.87402; stroke-opacity:1; 
stroke-linecap:round; stroke-linejoin:round;">
</g>
<g style="fill:#FFFFFF; fill-opacity:1.0; 
stroke:#FFFFFF; stroke-width:0; stroke-opacity:1; 
stroke-linecap:round; stroke-linejoin:round;">
<circle cx="27749.6" cy="17414.8" r="334.646" /> 
</g>
<g style="fill:#FFFFFF; fill-opacity:1.0; 
stroke:#FFFFFF; stroke-width:7.87402; stroke-opacity:1; 
stroke-linecap:round; stroke-linejoin:round;">
</g>
<g style="fill:#FFFFFF; fill-opacity:1.0; 
stroke:#FFFFFF; stroke-width:0; stroke-opacity:1; 
stroke-linecap:round; stroke-linejoin:round;">
<circle cx="21450.4" cy="15840" r="334.646" /> 
</g>
<g style="fill:#FFFFFF; fill-opacity:1.0; 
stroke:#FFFFFF; stroke-width:7.87402; stroke-opacity:1; 
stroke-linecap:round; stroke-linejoin:round;">
</g>
<g style="fill:#FFFFFF; fill-opacity:1.0; 
stroke:#FFFFFF; stroke-width:0; stroke-opacity:1; 
stroke-linecap:round; stroke-linejoin:round;">
<circle cx="21450.4" cy="18202.2" r="334.646" /> 
</g>
<g style="fill:#FFFFFF; fill-opacity:1.0; 
stroke:#FFFFFF; stroke-width:7.87402; stroke-opacity:1; 
stroke-linecap:round; stroke-linejoin:round;">
</g>
<g >
</g>
<g style="fill:#FFFFFF; fill-opacity:1.0; 
stroke:#FFFFFF; stroke-width:7.87402; stroke-opacity:1; 
stroke-linecap:round; stroke-linejoin:round;">
</g>
<g style="fill:#FFFFFF; fill-opacity:1.0; 
stroke:#FFFFFF; stroke-width:118.11; stroke-opacity:1; 
stroke-linecap:round; stroke-linejoin:round;">
</g>
<g style="fill:#FFFFFF; fill-opacity:0.0; 
stroke:#FFFFFF; stroke-width:118.11; stroke-opacity:1; 
stroke-linecap:round; stroke-linejoin:round;">
<path d="M27140 14100
L27140 13684
" />
<path d="M27305 14265
L27140 14100
" />
<path d="M27749 14265
L27305 14265
" />
<path d="M26558 13103
L26687 13232
" />
<path d="M23618 13103
L26558 13103
" />
<path d="M23197 13524
L23618 13103
" />
<path d="M23197 14327
L23197 13524
" />
<path d="M27140 13684
L26687 13232
" />
<path d="M27749 15840
L27749 15769
" />
<path d="M26920 14300
L26920 13743
" />
<path d="M27749 15129
L26920 14300
" />
<path d="M27749 15840
L27749 15129
" />
<path d="M23394 14327
L23394 13605
" />
<path d="M23394 13605
L23700 13300
" />
<path d="M25563 13303
L26480 13303
" />
<path d="M25560 13300
L25563 13303
" />
<path d="M26480 13303
L26568 13391
" />
<path d="M23700 13300
L25560 13300
" />
<path d="M26920 13743
L26568 13391
" />
<path d="M22992 15547
L22567 15547
" />
<path d="M23140 15400
L22992 15547
" />
<path d="M22840 14600
L23140 14900
" />
<path d="M22840 13500
L22840 14600
" />
<path d="M23433 12906
L22840 13500
" />
<path d="M27178 12906
L23433 12906
" />
<path d="M23140 14900
L23140 15400
" />
<path d="M27749 13477
L27178 12906
" />
<path d="M22142 15744
L22567 15744
" />
<path d="M21450 15052
L22142 15744
" />
<path d="M21662 13477
L21450 13477
" />
<path d="M22567 14382
L21662 13477
" />
<path d="M22567 14957
L22567 14382
" />
</g>
<g style="fill:#FFFFFF; fill-opacity:0.0; 
stroke:#FFFFFF; stroke-width:100; stroke-opacity:1; 
stroke-linecap:round; stroke-linejoin:round;">
<path d="M21805 14265
L21450 14265
" />
</g>
<g style="fill:#FFFFFF; fill-opacity:0.0; 
stroke:#FFFFFF; stroke-width:118.11; stroke-opacity:1; 
stroke-linecap:round; stroke-linejoin:round;">
<path d="M22567 15351
L22171 15351
" />
<path d="M22171 15351
L22020 15200
" />
<path d="M22020 15200
L22020 14340
" />
<path d="M21945 14265
L21450 14265
" />
<path d="M22020 14340
L21945 14265
" />
</g>
<g style="fill:#FFFFFF; fill-opacity:0.0; 
stroke:#FFFFFF; stroke-width:100; stroke-opacity:1; 
stroke-linecap:round; stroke-linejoin:round;">
<path d="M21537 16714
L21450 16627
" />
</g>
<g style="fill:#FFFFFF; fill-opacity:0.0; 
stroke:#FFFFFF; stroke-width:196.85; stroke-opacity:1; 
stroke-linecap:round; stroke-linejoin:round;">
<path d="M27754 18206
L27749 18202
" />
</g>
<g style="fill:#FFFFFF; fill-opacity:0.0; 
stroke:#FFFFFF; stroke-width:118.11; stroke-opacity:1; 
stroke-linecap:round; stroke-linejoin:round;">
<path d="M25165 18254
L25231 18320
" />
<path d="M25165 17752
L25165 18254
" />
<path d="M25165 13825
L25231 13760
" />
<path d="M25165 14327
L25165 13825
" />
<path d="M23984 13829
L24063 13750
" />
<path d="M23984 14327
L23984 13829
" />
<path d="M22567 16925
L22245 16925
" />
<path d="M22151 16831
L22000 16831
" />
<path d="M22245 16925
L22151 16831
" />
<path d="M21654 16831
L21450 16627
" />
<path d="M22000 16831
L21654 16831
" />
<path d="M23984 14701
L24063 14780
" />
<path d="M23984 14327
L23984 14701
" />
<path d="M24063 14780
L25080 14780
" />
<path d="M25165 14694
L25165 14327
" />
<path d="M25080 14780
L25165 14694
" />
<path d="M25262 15154
L25165 15250
" />
<path d="M25992 15154
L25262 15154
" />
<path d="M25154 16925
L25165 16914
" />
<path d="M25165 16914
L25165 17752
" />
<path d="M26473 16925
L25992 16925
" />
<path d="M27749 18202
L26473 16925
" />
<path d="M25894 16925
L25054 16925
" />
<path d="M25992 16925
L25894 16925
" />
<path d="M25054 16925
L25154 16925
" />
<path d="M22567 16925
L25054 16925
" />
<path d="M25992 15744
L25184 15744
" />
<path d="M25184 15744
L25165 15725
" />
<path d="M25165 15725
L25165 16914
" />
<path d="M23222 20260
L22379 20260
" />
<path d="M22355 20284
L22355 21343
" />
<path d="M22379 20260
L22355 20284
" />
<path d="M25828 19040
L25980 19040
" />
<path d="M25231 18442
L25828 19040
" />
<path d="M25231 18320
L25231 18442
" />
<path d="M25980 19040
L26511 19571
" />
<path d="M27749 18202
L27749 19270
" />
<path d="M26851 19571
L27448 19571
" />
<path d="M26511 19571
L26851 19571
" />
</g>
<g style="fill:#FFFFFF; fill-opacity:0.0; 
stroke:#FFFFFF; stroke-width:196.85; stroke-opacity:1; 
stroke-linecap:round; stroke-linejoin:round;">
<path d="M27600 19420
L27610 19410
" />
<path d="M27600 20060
L27600 19420
" />
</g>
<g style="fill:#FFFFFF; fill-opacity:0.0; 
stroke:#FFFFFF; stroke-width:118.11; stroke-opacity:1; 
stroke-linecap:round; stroke-linejoin:round;">
<path d="M27610 19410
L27749 19270
" />
<path d="M27448 19571
L27610 19410
" />
<path d="M25165 14327
L25165 15374
" />
<path d="M25165 15374
L25165 15725
" />
<path d="M25165 15250
L25165 15374
" />
</g>
<g style="fill:#FFFFFF; fill-opacity:0.0; 
stroke:#FFFFFF; stroke-width:100; stroke-opacity:1; 
stroke-linecap:round; stroke-linejoin:round;">
<path d="M21540 17325
L21450 17414
" />
</g>
<g style="fill:#FFFFFF; fill-opacity:0.0; 
stroke:#FFFFFF; stroke-width:118.11; stroke-opacity:1; 
stroke-linecap:round; stroke-linejoin:round;">
<path d="M25362 18060
L25366 18060
" />
<path d="M25362 17752
L25362 18060
" />
<path d="M25608 18303
L25608 18320
" />
<path d="M25366 18060
L25608 18303
" />
<path d="M23787 13851
L23686 13750
" />
<path d="M23787 14327
L23787 13851
" />
<path d="M25410 17800
L25362 17752
" />
<path d="M25825 17800
L25410 17800
" />
<path d="M25825 17800
L25825 18250
" />
<path d="M25755 18320
L25608 18320
" />
<path d="M25825 18250
L25755 18320
" />
<path d="M22567 17122
L22257 17122
" />
<path d="M22171 17208
L22000 17208
" />
<path d="M22257 17122
L22171 17208
" />
<path d="M21656 17208
L21450 17414
" />
<path d="M22000 17208
L21656 17208
" />
<path d="M25997 14327
L26025 14300
" />
<path d="M25992 14332
L26025 14300
" />
<path d="M25992 14957
L25992 14332
" />
<path d="M25608 14323
L25612 14327
" />
<path d="M25608 13760
L25608 14323
" />
<path d="M25612 14327
L25997 14327
" />
<path d="M25362 14327
L25612 14327
" />
<path d="M22525 17775
L22525 18425
" />
<path d="M22799 18699
L23660 18699
" />
<path d="M22525 18425
L22799 18699
" />
<path d="M22525 17165
L22567 17122
" />
<path d="M22525 17775
L22525 17165
" />
<path d="M23787 14832
L23640 14980
" />
<path d="M23787 14327
L23787 14832
" />
</g>
<g style="fill:#FFFFFF; fill-opacity:0.0; 
stroke:#FFFFFF; stroke-width:196.85; stroke-opacity:1; 
stroke-linecap:round; stroke-linejoin:round;">
<path d="M26599 20260
L26720 20140
" />
<path d="M25977 20260
L26599 20260
" />
</g>
<g style="fill:#FFFFFF; fill-opacity:0.0; 
stroke:#FFFFFF; stroke-width:118.11; stroke-opacity:1; 
stroke-linecap:round; stroke-linejoin:round;">
<path d="M27277 15117
L26640 14480
" />
<path d="M27277 16154
L27277 15117
" />
<path d="M26640 14480
L26640 13741
" />
<path d="M27749 16627
L27277 16154
" />
<path d="M24565 14314
L24565 13714
" />
<path d="M24575 14324
L24565 14314
" />
<path d="M24575 14327
L24575 14324
" />
<path d="M26398 13500
L26489 13590
" />
<path d="M24779 13500
L26398 13500
" />
<path d="M24565 13714
L24779 13500
" />
<path d="M26640 13741
L26489 13590
" />
<path d="M27384 17414
L27749 17414
" />
<path d="M26698 16728
L27384 17414
" />
<path d="M25992 16728
L26698 16728
" />
</g>
<g style="fill:#FFFFFF; fill-opacity:0.0; 
stroke:#FFFFFF; stroke-width:100; stroke-opacity:1; 
stroke-linecap:round; stroke-linejoin:round;">
<path d="M21451 15841
L21450 15840
" />
</g>
<g style="fill:#FFFFFF; fill-opacity:0.0; 
stroke:#FFFFFF; stroke-width:118.11; stroke-opacity:1; 
stroke-linecap:round; stroke-linejoin:round;">
<path d="M21551 15941
L21450 15840
" />
<path d="M22567 15941
L21551 15941
" />
</g>
<g style="fill:#FFFFFF; fill-opacity:0.0; 
stroke:#FFFFFF; stroke-width:196.85; stroke-opacity:1; 
stroke-linecap:round; stroke-linejoin:round;">
<path d="M21450 18202
L21450 18202
" />
<path d="M21450 19080
L21450 18202
" />
<path d="M21450 19790
L21620 19960
" />
<path d="M21450 18202
L21450 19790
" />
</g>
<g style="fill:#FFFFFF; fill-opacity:0.0; 
stroke:#FFFFFF; stroke-width:118.11; stroke-opacity:1; 
stroke-linecap:round; stroke-linejoin:round;">
<path d="M23600 19100
L24050 19100
" />
<path d="M24080 20134
L24206 20260
" />
<path d="M24080 19100
L24080 20134
" />
<path d="M24993 20260
L24993 19973
" />
<path d="M24500 19480
L24500 19100
" />
<path d="M24993 19973
L24500 19480
" />
<path d="M24500 18699
L24500 18360
" />
<path d="M24575 18284
L24575 17752
" />
<path d="M24500 18360
L24575 18284
" />
<path d="M24080 18699
L24080 18360
" />
<path d="M24181 18258
L24181 17752
" />
<path d="M24080 18360
L24181 18258
" />
<path d="M24181 17752
L24181 17258
" />
<path d="M24181 17258
L24280 17160
" />
<path d="M24280 17160
L24720 17160
" />
<path d="M24772 17212
L24772 17752
" />
<path d="M24720 17160
L24772 17212
" />
<path d="M24968 18993
L25015 19040
" />
<path d="M24968 17752
L24968 18993
" />
<path d="M25992 17122
L26391 17122
" />
<path d="M26944 17675
L26944 19040
" />
<path d="M26391 17122
L26944 17675
" />
<path d="M26778 16138
L26960 16320
" />
<path d="M25992 16138
L26778 16138
" />
<path d="M25992 15941
L26498 15941
" />
<path d="M26880 15560
L26960 15560
" />
<path d="M26498 15941
L26880 15560
" />
</g>
<g >
</g>
<g style="fill:#FFFFFF; fill-opacity:0.0; 
stroke:#FFFFFF; stroke-width:118.11; stroke-opacity:1; 
stroke-linecap:round; stroke-linejoin:round;">
<g >
</g>
<g style="fill:#FFFFFF; fill-opacity:1.0; 
stroke:#FFFFFF; stroke-width:100; stroke-opacity:1; 
stroke-linecap:round; stroke-linejoin:round;">
<path style="fill:#FFFFFF; fill-opacity:1.0; 
stroke:#FFFFFF; stroke-width:100; stroke-opacity:1; 
stroke-linecap:round; stroke-linejoin:round;fill-rule:evenodd;"
d="M 21960,17719.4
21960,17830.6
21981.8,17939.8
22024.3,18042.6
22086.2,18135.1
22164.9,18213.8
22215.9,18248
22215.9,18409.8
22214.5,18425
22220.4,18485.6
22238.1,18543.8
22243.8,18554.6
22266.8,18597.5
22280,18613.6
22295.7,18632.8
22295.7,18632.8
22305.4,18644.6
22317.2,18654.3
22569.9,18907
22579.6,18918.8
22626.7,18957.4
22680.4,18986.1
22738.6,19003.8
22768.1,19006.7
22784,19008.3
22784,19008.3
22799.2,19009.8
22814.4,19008.3
23286.7,19008.3
23282.8,19047.6
23282.8,19153.9
23288.7,19213.3
23306,19270.4
23334.1,19323
23372,19369.2
23418.1,19407
23470.7,19435.1
23527.8,19452.4
23587.2,19458.3
23732.8,19458.3
23770.9,19454.5
23770.9,19647.7
23757.7,19672.5
23743.4,19719.7
23738.6,19768.7
23738.6,20752.9
23743.4,20801.9
23757.7,20849
23776.4,20884.1
23740.4,20876.9
23655.8,20876.9
23670.7,20849
23685,20801.9
23689.8,20752.9
23688.6,20373.3
23626.1,20310.8
23272,20310.8
23272,20940.4
23334.5,21002.9
23374.8,21003.4
23332.1,21046.1
23281,21122.5
23245.9,21207.4
23228,21297.5
23228,21389.4
23245.9,21479.5
23281,21564.5
23332.1,21640.9
23397.1,21705.8
23473.5,21756.9
23558.4,21792.1
23648.5,21810
23740.4,21810
23830.6,21792.1
23915.5,21756.9
23991.9,21705.8
24056.9,21640.9
24107.9,21564.5
24143.1,21479.5
24161,21389.4
24161,21297.5
24143.1,21207.4
24107.9,21122.5
24056.9,21046.1
24014.9,21004.1
24422.8,21004.1
24471.8,20999.3
24519,20985
24562.4,20961.8
24600,20930.9
24637.6,20961.8
24681,20985
24728.2,20999.3
24777.2,21004.1
25185.1,21004.1
25143.1,21046.1
25092.1,21122.5
25056.9,21207.4
25039,21297.5
25039,21389.4
25056.9,21479.5
25092.1,21564.5
25143.1,21640.9
25208.1,21705.8
25284.5,21756.9
25369.4,21792.1
25459.6,21810
25551.5,21810
25641.6,21792.1
25726.5,21756.9
25802.9,21705.8
25867.9,21640.9
25919,21564.5
25954.1,21479.5
25971.2,21393.5
26220.1,21393.5
26220.1,21708.4
26241.8,21829.2
26286.7,21943.4
26353,22046.7
26438.2,22135
26539,22205.1
26651.5,22254.1
26697.4,22265
26794.1,22217.7
26794.1,21393.5
26894.1,21393.5
26894.1,22217.7
26990.8,22265
27036.7,22254.1
27149.2,22205.1
27250,22135
27335.2,22046.7
27401.5,21943.4
27446.4,21829.2
27468.1,21708.4
27468.1,21393.5
26894.1,21393.5
26794.1,21393.5
26220.1,21393.5
25971.2,21393.5
25972,21389.4
25972,21297.5
25954.1,21207.4
25919,21122.5
25867.9,21046.1
25826,21004.1
26194.5,21004.1
26220.1,21001.6
26220.1,21293.5
26794.1,21293.5
26794.1,21285.6
26894.1,21285.6
26894.1,21293.5
27468.1,21293.5
27468.1,20978.5
27446.4,20857.7
27401.5,20743.5
27335.2,20640.2
27250,20551.9
27149.2,20481.9
27112.9,20466.1
27158.8,20420.1
27220.7,20327.6
27263.2,20224.8
27285,20115.6
27285,20004.4
27263.2,19895.2
27220.7,19792.4
27158.8,19699.9
27131.1,19672.1
27176.8,19658.3
27237.2,19626
27290.2,19582.5
27333.7,19529.5
27366,19469.1
27385.9,19403.5
27392.6,19335.3
27392.6,18744.7
27385.9,18676.5
27366,18610.9
27333.7,18550.5
27290.2,18497.5
27253.6,18467.5
27253.6,17724.8
27295.5,17787.5
27376.9,17868.9
27472.7,17932.9
27579.1,17977
27692,17999.4
27807.2,17999.4
27920.1,17977
28026.5,17932.9
28090,17890.5
28090,22510
21110,22510
21110,21393.5
21731.9,21393.5
21731.9,21708.4
21753.6,21829.2
21798.5,21943.4
21864.8,22046.7
21950,22135
22050.8,22205.1
22163.3,22254.1
22209.2,22265
22305.9,22217.7
22305.9,21393.5
22405.9,21393.5
22405.9,22217.7
22502.6,22265
22548.5,22254.1
22661,22205.1
22761.8,22135
22847,22046.7
22913.3,21943.4
22958.2,21829.2
22979.9,21708.4
22979.9,21393.5
22405.9,21393.5
22305.9,21393.5
21731.9,21393.5
21110,21393.5
21110,20482.3
21115.9,20493.3
21147.1,20531.3
21185.2,20562.6
21228.6,20585.8
21275.7,20600.1
21324.7,20604.9
21898.9,20604.9
21864.8,20640.2
21798.5,20743.5
21753.6,20857.7
21731.9,20978.5
21731.9,21293.5
22305.9,21293.5
22305.9,20469.2
22405.9,20469.2
22405.9,21293.5
22979.9,21293.5
22979.9,21001.6
23005.5,21004.1
23109.5,21002.9
23172,20940.4
23172,20310.8
22818,20310.8
22755.5,20373.3
22755,20547.2
22661,20481.9
22548.5,20432.9
22502.6,20422
22405.9,20469.2
22305.9,20469.2
22209.2,20422
22163.3,20432.9
22150.9,20438.3
22161.7,20402.7
22166.5,20353.7
22166.5,19768.7
22754.3,19768.7
22755.5,20148.3
22818,20210.8
23172,20210.8
23172,19581.2
23272,19581.2
23272,20210.8
23626.1,20210.8
23688.6,20148.3
23689.8,19768.7
23685,19719.7
23670.7,19672.5
23647.5,19629.1
23616.2,19591
23578.1,19559.8
23534.7,19536.6
23487.6,19522.3
23438.6,19517.5
23334.5,19518.7
23272,19581.2
23172,19581.2
23109.5,19518.7
23005.5,19517.5
22956.5,19522.3
22909.4,19536.6
22865.9,19559.8
22827.9,19591
22796.6,19629.1
22773.4,19672.5
22759.1,19719.7
22754.3,19768.7
22166.5,19768.7
22166.5,19566.3
22161.7,19517.3
22147.4,19470.2
22124.1,19426.7
22092.9,19388.7
22054.8,19357.4
22011.4,19334.2
21964.3,19319.9
21915.3,19315.1
21798.8,19315.1
21798.8,18672.5
21823.1,18656.3
21904.5,18574.9
21968.5,18479.1
22012.6,18372.7
22035,18259.8
22035,18144.6
22012.6,18031.7
21968.5,17925.3
21904.5,17829.5
21883.5,17808.5
21904.5,17787.5
21964.3,17698.1
Z" /> 
<path style="fill:#FFFFFF; fill-opacity:1.0; 
stroke:#FFFFFF; stroke-width:100; stroke-opacity:1; 
stroke-linecap:round; stroke-linejoin:round;fill-rule:evenodd;"
d="M 26635.5,17803.6
26635.5,18467.5
26598.9,18497.5
26555.4,18550.5
26523.1,18610.9
26503.2,18676.5
26496.5,18744.7
26496.5,19335.3
26503.2,19403.5
26523.1,19469.1
26549.8,19519
26452.4,19559.3
26383.8,19605.2
26372.1,19591
26371.5,19590.6
26385.7,19573.3
26408.9,19529.8
26423.2,19482.7
26428.1,19433.7
26426.9,19152.5
26364.4,19090
26030,19090
26030,19097.9
25930,19097.9
25930,19090
25595.6,19090
25533.1,19152.5
25531.9,19433.7
25536.8,19482.7
25551.1,19529.8
25574.3,19573.3
25586.8,19588.5
25583.8,19591
25552.5,19629.1
25529.3,19672.5
25515,19719.7
25510.2,19768.7
25510.2,20752.9
25515,20801.9
25529.3,20849
25544.2,20876.9
25459.6,20876.9
25423.6,20884.1
25442.3,20849
25456.6,20801.9
25461.4,20752.9
25461.4,19768.7
25456.6,19719.7
25442.3,19672.5
25419.1,19629.1
25387.9,19591
25367.7,19574.5
25404.6,19529.5
25436.9,19469.1
25456.8,19403.5
25463.5,19335.3
25463.5,18744.7
25456.8,18676.5
25456.6,18676
25494.1,18687.4
25532.1,18691.1
25533.1,18927.5
25595.6,18990
25930,18990
25930,18982.1
26030,18982.1
26030,18990
26364.4,18990
26426.9,18927.5
26428.1,18646.3
26423.2,18597.3
26408.9,18550.2
26385.7,18506.7
26354.5,18468.7
26316.4,18437.4
26273,18414.2
26225.9,18399.9
26176.9,18395.1
26097.3,18396.2
26111.9,18368.8
26127,18319
26129.6,18310.6
26130.6,18299.9
26133.2,18273.5
26185.1,18238.8
26263.8,18160.1
26325.7,18067.6
26368.2,17964.8
26390,17855.6
26390,17744.4
26368.2,17635.2
26325.7,17532.4
26263.8,17439.9
26255.7,17431.7
26263.7,17431.7
Z" /> 
<path style="fill:#FFFFFF; fill-opacity:1.0; 
stroke:#FFFFFF; stroke-width:100; stroke-opacity:1; 
stroke-linecap:round; stroke-linejoin:round;fill-rule:evenodd;"
d="M 25173.9,14792.2
25202.5,14807.5
25228.3,14833.3
25263.4,14829.4
25264.5,14829.7
25313.5,14834.5
25411.9,14834.5
25460.9,14829.7
25503.1,14816.9
25490.3,14859.1
25485.5,14908.1
25485.5,15006.5
25490.3,15055.5
25490.6,15056.6
25486.7,15091.7
25512.5,15117.5
25527.8,15146.1
25534.4,15154.2
25527.8,15162.2
25512.5,15190.8
25486.7,15216.7
25490.6,15251.7
25490.3,15252.8
25485.5,15301.8
25485.5,15400.2
25490.3,15449.2
25490.4,15449.4
25490.3,15449.7
25485.5,15498.7
25485.5,15597.1
25490.3,15646.1
25490.6,15647.2
25486.7,15682.2
25512.5,15708.1
25527.8,15736.7
25534.4,15744.7
25527.8,15752.8
25512.5,15781.4
25486.7,15807.2
25490.6,15842.3
25490.3,15843.4
25485.5,15892.4
25485.5,15990.8
25490.3,16039.8
25490.4,16040
25490.3,16040.2
25485.5,16089.2
25485.5,16187.6
25490.3,16236.6
25490.4,16236.9
25490.3,16237.1
25485.5,16286.1
25485.5,16384.5
25490.3,16433.5
25490.4,16433.7
25490.3,16433.9
25485.5,16482.9
25485.5,16581.3
25490.3,16630.3
25490.4,16630.6
25490.3,16630.8
25485.5,16679.8
25485.5,16778.2
25490.3,16827.2
25490.6,16828.3
25486.7,16863.3
25512.5,16889.2
25527.8,16917.8
25534.4,16925.8
25527.8,16933.9
25512.5,16962.5
25486.7,16988.3
25490.6,17023.4
25490.3,17024.5
25485.5,17073.5
25485.5,17171.9
25490.3,17220.9
25503.1,17263.1
25460.9,17250.3
25411.9,17245.5
25313.5,17245.5
25264.5,17250.3
25263.4,17250.6
25228.3,17246.7
25202.5,17272.5
25173.9,17287.8
25165.8,17294.4
25157.8,17287.8
25129.2,17272.5
25103.3,17246.7
25081.2,17249.2
25081.2,17227.3
25082.7,17212.1
25081.2,17196.9
25081.2,17196.9
25077.8,17162.5
25076.7,17151.5
25060.9,17099.4
25059,17093.3
25030.3,17039.6
24991.7,16992.5
24979.9,16982.9
24949.3,16952.2
24939.6,16940.4
24892.5,16901.8
24838.8,16873.1
24780.6,16855.4
24735.2,16850.9
24735.2,16850.9
24720,16849.5
24704.8,16850.9
24295.2,16850.9
24280,16849.5
24264.8,16850.9
24264.8,16850.9
24225.1,16854.9
24219.4,16855.4
24215.3,16856.7
24161.2,16873.1
24107.5,16901.8
24060.4,16940.4
24050.7,16952.2
23973.8,17029.2
23962,17038.8
23952.3,17050.6
23952.3,17050.6
23942.9,17062.1
23923.4,17085.9
23914.4,17102.6
23894.7,17139.6
23877,17197.8
23872,17248.9
23837.1,17245.5
23738.7,17245.5
23689.7,17250.3
23689.4,17250.4
23689.2,17250.3
23640.2,17245.5
23541.8,17245.5
23492.8,17250.3
23492.6,17250.4
23492.4,17250.3
23443.4,17245.5
23345,17245.5
23296,17250.3
23295.7,17250.4
23295.5,17250.3
23246.5,17245.5
23148.1,17245.5
23099.1,17250.3
23056.9,17263.1
23069.7,17220.9
23074.5,17171.9
23074.5,17073.5
23069.7,17024.5
23069.4,17023.4
23073.3,16988.3
23047.5,16962.5
23032.2,16933.9
23025.6,16925.8
23032.2,16917.8
23047.5,16889.2
23073.3,16863.3
23069.4,16828.3
23069.7,16827.2
23074.5,16778.2
23074.5,16679.8
23069.7,16630.8
23069.6,16630.6
23069.7,16630.3
23074.5,16581.3
23074.5,16482.9
23069.7,16433.9
23069.6,16433.7
23069.7,16433.5
23074.5,16384.5
23074.5,16286.1
23069.7,16237.1
23069.6,16236.9
23069.7,16236.6
23074.5,16187.6
23074.5,16089.2
23069.7,16040.2
23069.6,16040
23069.7,16039.8
23074.5,15990.8
23074.5,15892.4
23070.1,15847.2
23111,15834.8
23164.7,15806.1
23211.7,15767.5
23221.4,15755.7
23347.8,15629.3
23359.6,15619.6
23398.2,15572.5
23426.9,15518.8
23431.1,15505
23475.2,15523.2
23584.4,15545
23695.6,15545
23804.8,15523.2
23907.6,15480.7
24000.1,15418.8
24078.8,15340.1
24140.7,15247.6
24183.2,15144.8
24205,15035.6
24205,14924.4
24187.1,14834.5
24230.8,14834.5
24279.8,14829.7
24280,14829.6
24280.2,14829.7
24329.2,14834.5
24427.6,14834.5
24476.6,14829.7
24476.9,14829.6
24477.1,14829.7
24526.1,14834.5
24624.5,14834.5
24673.5,14829.7
24673.7,14829.6
24673.9,14829.7
24722.9,14834.5
24821.3,14834.5
24870.3,14829.7
24870.6,14829.6
24870.8,14829.7
24919.8,14834.5
25018.2,14834.5
25067.2,14829.7
25068.3,14829.4
25103.3,14833.3
25129.2,14807.5
25157.8,14792.2
25165.8,14785.6
Z" /> 
<path style="fill:#FFFFFF; fill-opacity:1.0; 
stroke:#FFFFFF; stroke-width:100; stroke-opacity:1; 
stroke-linecap:round; stroke-linejoin:round;fill-rule:evenodd;"
d="M 22060.3,16286.1
22060.3,16384.5
22065.1,16433.5
22065.2,16433.7
22065.1,16433.9
22060.3,16482.9
22060.3,16523
22050,16533.3
22050,16781
22057.9,16781
22057.9,16847.5
21933.1,16847.5
21873.3,16853.4
21815.8,16870.8
21796.8,16881
21690.5,16881
21690.2,16881.3
21620.9,16852.6
21508,16830.2
21392.8,16830.2
21279.9,16852.6
21173.5,16896.7
21110,16939.1
21110,16718.5
21628,16718.5
21690.5,16781
21950,16781
21950,16533.3
21887.5,16470.8
21879.1,16469.6
21830.1,16474.2
21782.9,16488.3
21739.3,16511.3
21701.1,16542.3
21669.7,16580.3
21646.3,16623.6
21631.8,16670.7
21628,16718.5
21110,16718.5
21110,16315.7
21173.5,16358.1
21279.9,16402.2
21392.8,16424.6
21508,16424.6
21620.9,16402.2
21727.3,16358.1
21823.1,16294.1
21866.6,16250.6
22063.8,16250.6
Z" /> 
<path style="fill:#FFFFFF; fill-opacity:1.0; 
stroke:#FFFFFF; stroke-width:100; stroke-opacity:1; 
stroke-linecap:round; stroke-linejoin:round;fill-rule:evenodd;"
d="M 28090,13002.1
28026.5,12959.7
27920.1,12915.6
27807.2,12893.1
27692,12893.1
27617,12908.1
27407.4,12698.5
27397.7,12686.7
27350.6,12648.1
27296.9,12619.4
27238.7,12601.7
27193.3,12597.2
27193.3,12597.2
27178.1,12595.7
27162.9,12597.2
26603.6,12597.2
26605.9,12574.6
26605.9,11905.4
26601,11856.3
26586.7,11809.2
26563.5,11765.8
26532.3,11727.7
26494.2,11696.5
26450.8,11673.3
26403.7,11659
26354.6,11654.1
25685.4,11654.1
25636.3,11659
25589.2,11673.3
25545.8,11696.5
25507.7,11727.7
25476.5,11765.8
25453.3,11809.2
25439,11856.3
25434.1,11905.4
25434.1,12574.6
25436.4,12597.2
25183.6,12597.2
25185.9,12574.6
25185.9,11905.4
25181,11856.3
25166.7,11809.2
25143.5,11765.8
25112.3,11727.7
25074.2,11696.5
25030.8,11673.3
24983.7,11659
24934.6,11654.1
24265.4,11654.1
24216.3,11659
24169.2,11673.3
24125.8,11696.5
24087.7,11727.7
24056.5,11765.8
24033.3,11809.2
24019,11856.3
24014.1,11905.4
24014.1,12574.6
24016.4,12597.2
23763.6,12597.2
23765.9,12574.6
23764.6,12352.5
23702.1,12290
23230,12290
23230,12297.9
23130,12297.9
23130,12290
22657.9,12290
22595.4,12352.5
22594.1,12574.6
22599,12623.7
22613.3,12670.8
22636.5,12714.2
22667.7,12752.3
22705.8,12783.5
22749.2,12806.7
22796.3,12821
22845.4,12825.9
23067.5,12824.6
23130,12762.1
23130,12772.9
22632.2,13270.7
22620.4,13280.4
22581.8,13327.5
22553.1,13381.2
22535.4,13439.4
22530.9,13484.8
22530.9,13484.8
22529.5,13500
22530.9,13515.2
22530.9,13909.5
22033.4,13411.9
22012.6,13307.3
21968.5,13200.9
21904.5,13105.1
21823.1,13023.7
21727.3,12959.7
21620.9,12915.6
21508,12893.1
21392.8,12893.1
21279.9,12915.6
21173.5,12959.7
21110,13002.1
21110,11905.4
22594.1,11905.4
22595.4,12127.5
22657.9,12190
23130,12190
23130,11717.9
23230,11717.9
23230,12190
23702.1,12190
23764.6,12127.5
23765.9,11905.4
23761,11856.3
23746.7,11809.2
23723.5,11765.8
23692.3,11727.7
23654.2,11696.5
23610.8,11673.3
23563.7,11659
23514.6,11654.1
23292.5,11655.4
23230,11717.9
23130,11717.9
23067.5,11655.4
22845.4,11654.1
22796.3,11659
22749.2,11673.3
22705.8,11696.5
22667.7,11727.7
22636.5,11765.8
22613.3,11809.2
22599,11856.3
22594.1,11905.4
21110,11905.4
21110,11570
28090,11570
Z" /> 
<path style="fill:#FFFFFF; fill-opacity:1.0; 
stroke:#FFFFFF; stroke-width:100; stroke-opacity:1; 
stroke-linecap:round; stroke-linejoin:round;fill-rule:evenodd;"
d="M 25247.5,13817.9
25181,13817.9
25181,13810
25173.1,13810
25173.1,13809.2
25247.5,13809.2
Z" /> 
<path style="fill:#FFFFFF; fill-opacity:1.0; 
stroke:#FFFFFF; stroke-width:100; stroke-opacity:1; 
stroke-linecap:round; stroke-linejoin:round;fill-rule:evenodd;"
d="M 24114,13700
24121.9,13700
24121.9,13800
24114,13800
24114,13807.9
24094.1,13807.9
24092.5,13791.3
24074.8,13733
24052.9,13692.1
24114,13692.1
Z" /> 
</g>
</g>
</g> 
</svg>
