<?xml version="1.0" standalone="no"?>
 <!DOCTYPE svg PUBLIC "-//W3C//DTD SVG 1.1//EN" 
 "http://www.w3.org/Graphics/SVG/1.1/DTD/svg11.dtd"> 
<svg
  xmlns:svg="http://www.w3.org/2000/svg"
  xmlns="http://www.w3.org/2000/svg"
  xmlns:xlink="http://www.w3.org/1999/xlink"
  version="1.1"
  width="29.700220cm" height="21.000720cm" viewBox="0 0 116930 82680">
<title>SVG Picture created as rfm_to_usb-B_Cu.svg date 2022/03/06 22:53:19 </title>
  <desc>Picture generated by PCBNEW </desc>
<g style="fill:#000000; fill-opacity:1;stroke:#000000; stroke-opacity:1;
stroke-linecap:round; stroke-linejoin:round;"
 transform="translate(0 0) scale(1 1)">
</g>
<g style="fill:#000000; fill-opacity:0.0; 
stroke:#000000; stroke-width:-0.000393701; stroke-opacity:1; 
stroke-linecap:round; stroke-linejoin:round;">
</g>
<g style="fill:#000000; fill-opacity:1.0; 
stroke:#000000; stroke-width:7.87402; stroke-opacity:1; 
stroke-linecap:round; stroke-linejoin:round;">
<rect x="18565.9" y="8882.72" width="11542.6" height="21643.8" rx="0" />
</g>
<g style="fill:#FFFFFF; fill-opacity:1.0; 
stroke:#FFFFFF; stroke-width:7.87402; stroke-opacity:1; 
stroke-linecap:round; stroke-linejoin:round;">
<g >
</g>
<g style="fill:#FFFFFF; fill-opacity:1.0; 
stroke:#FFFFFF; stroke-width:0; stroke-opacity:1; 
stroke-linecap:round; stroke-linejoin:round;">
<path style="fill:#FFFFFF; fill-opacity:1.0; 
stroke:#FFFFFF; stroke-width:0; stroke-opacity:1; 
stroke-linecap:round; stroke-linejoin:round;fill-rule:evenodd;"
d="M 22845.4,12574.6
22845.4,11905.4
23514.6,11905.4
23514.6,12574.6
Z" /> 
</g>
<g >
</g>
<g style="fill:#FFFFFF; fill-opacity:1.0; 
stroke:#FFFFFF; stroke-width:0; stroke-opacity:1; 
stroke-linecap:round; stroke-linejoin:round;">
<path style="fill:#FFFFFF; fill-opacity:1.0; 
stroke:#FFFFFF; stroke-width:0; stroke-opacity:1; 
stroke-linecap:round; stroke-linejoin:round;fill-rule:evenodd;"
d="M 25685.4,12574.6
25685.4,11905.4
26354.6,11905.4
26354.6,12574.6
Z" /> 
</g>
<g >
</g>
<g style="fill:#FFFFFF; fill-opacity:1.0; 
stroke:#FFFFFF; stroke-width:0; stroke-opacity:1; 
stroke-linecap:round; stroke-linejoin:round;">
<path style="fill:#FFFFFF; fill-opacity:1.0; 
stroke:#FFFFFF; stroke-width:0; stroke-opacity:1; 
stroke-linecap:round; stroke-linejoin:round;fill-rule:evenodd;"
d="M 24265.4,12574.6
24265.4,11905.4
24934.6,11905.4
24934.6,12574.6
Z" /> 
</g>
<g >
</g>
<g style="fill:#FFFFFF; fill-opacity:1.0; 
stroke:#FFFFFF; stroke-width:0; stroke-opacity:1; 
stroke-linecap:round; stroke-linejoin:round;">
<path style="fill:#FFFFFF; fill-opacity:1.0; 
stroke:#FFFFFF; stroke-width:0; stroke-opacity:1; 
stroke-linecap:round; stroke-linejoin:round;fill-rule:evenodd;"
d="M 25037.1,19402.2
25042.8,19403
25048.4,19404.4
25053.9,19406.4
25059.1,19408.9
25064.1,19411.8
25068.8,19415.3
25073.1,19419.2
25076.9,19423.5
25080.4,19428.1
25083.4,19433.1
25085.9,19438.3
25087.8,19443.8
25089.2,19449.4
25090.1,19455.2
25090.4,19460.9
25090.4,19579.1
25090.1,19584.8
25089.2,19590.6
25087.8,19596.2
25085.9,19601.7
25083.4,19606.9
25080.4,19611.9
25076.9,19616.5
25073.1,19620.8
25068.8,19624.7
25064.1,19628.2
25059.1,19631.1
25053.9,19633.6
25048.4,19635.6
25042.8,19637
25037.1,19637.8
25031.3,19638.1
24568.7,19638.1
24562.9,19637.8
24557.2,19637
24551.6,19635.6
24546.1,19633.6
24540.9,19631.1
24535.9,19628.2
24531.2,19624.7
24526.9,19620.8
24523.1,19616.5
24519.6,19611.9
24516.6,19606.9
24514.1,19601.7
24512.2,19596.2
24510.8,19590.6
24509.9,19584.8
24509.6,19579.1
24509.6,19460.9
24509.9,19455.2
24510.8,19449.4
24512.2,19443.8
24514.1,19438.3
24516.6,19433.1
24519.6,19428.1
24523.1,19423.5
24526.9,19419.2
24531.2,19415.3
24535.9,19411.8
24540.9,19408.9
24546.1,19406.4
24551.6,19404.4
24557.2,19403
24562.9,19402.2
24568.7,19401.9
25031.3,19401.9
Z" /> 
<path style="fill:#FFFFFF; fill-opacity:1.0; 
stroke:#FFFFFF; stroke-width:0; stroke-opacity:1; 
stroke-linecap:round; stroke-linejoin:round;fill-rule:evenodd;"
d="M 24298.9,19028.2
24304.6,19029
24310.3,19030.4
24315.7,19032.4
24320.9,19034.8
24325.9,19037.8
24330.6,19041.3
24334.9,19045.2
24338.8,19049.5
24342.2,19054.1
24345.2,19059.1
24347.7,19064.3
24349.6,19069.8
24351,19075.4
24351.9,19081.1
24352.2,19086.9
24352.2,19205
24351.9,19210.8
24351,19216.6
24349.6,19222.2
24347.7,19227.6
24345.2,19232.9
24342.2,19237.8
24338.8,19242.5
24334.9,19246.8
24330.6,19250.7
24325.9,19254.1
24320.9,19257.1
24315.7,19259.6
24310.3,19261.6
24304.6,19263
24298.9,19263.8
24293.1,19264.1
23830.5,19264.1
23824.7,19263.8
23819,19263
23813.4,19261.6
23807.9,19259.6
23802.7,19257.1
23797.7,19254.1
23793,19250.7
23788.8,19246.8
23784.9,19242.5
23781.4,19237.8
23778.4,19232.9
23776,19227.6
23774,19222.2
23772.6,19216.6
23771.7,19210.8
23771.5,19205
23771.5,19086.9
23771.7,19081.1
23772.6,19075.4
23774,19069.8
23776,19064.3
23778.4,19059.1
23781.4,19054.1
23784.9,19049.5
23788.8,19045.2
23793,19041.3
23797.7,19037.8
23802.7,19034.8
23807.9,19032.4
23813.4,19030.4
23819,19029
23824.7,19028.2
23830.5,19027.9
24293.1,19027.9
Z" /> 
<path style="fill:#FFFFFF; fill-opacity:1.0; 
stroke:#FFFFFF; stroke-width:0; stroke-opacity:1; 
stroke-linecap:round; stroke-linejoin:round;fill-rule:evenodd;"
d="M 24298.9,19776.2
24304.6,19777
24310.3,19778.4
24315.7,19780.4
24320.9,19782.9
24325.9,19785.9
24330.6,19789.3
24334.9,19793.2
24338.8,19797.5
24342.2,19802.2
24345.2,19807.1
24347.7,19812.4
24349.6,19817.8
24351,19823.4
24351.9,19829.2
24352.2,19835
24352.2,19953.1
24351.9,19958.9
24351,19964.6
24349.6,19970.2
24347.7,19975.7
24345.2,19980.9
24342.2,19985.9
24338.8,19990.5
24334.9,19994.8
24330.6,19998.7
24325.9,20002.2
24320.9,20005.2
24315.7,20007.6
24310.3,20009.6
24304.6,20011
24298.9,20011.8
24293.1,20012.1
23830.5,20012.1
23824.7,20011.8
23819,20011
23813.4,20009.6
23807.9,20007.6
23802.7,20005.2
23797.7,20002.2
23793,19998.7
23788.8,19994.8
23784.9,19990.5
23781.4,19985.9
23778.4,19980.9
23776,19975.7
23774,19970.2
23772.6,19964.6
23771.7,19958.9
23771.5,19953.1
23771.5,19835
23771.7,19829.2
23772.6,19823.4
23774,19817.8
23776,19812.4
23778.4,19807.1
23781.4,19802.2
23784.9,19797.5
23788.8,19793.2
23793,19789.3
23797.7,19785.9
23802.7,19782.9
23807.9,19780.4
23813.4,19778.4
23819,19777
23824.7,19776.2
23830.5,19775.9
24293.1,19775.9
Z" /> 
</g>
<g >
</g>
<g >
</g>
<g >
</g>
<g >
</g>
<g >
</g>
<g >
</g>
<g >
</g>
<g >
</g>
<g style="fill:#FFFFFF; fill-opacity:1.0; 
stroke:#FFFFFF; stroke-width:0; stroke-opacity:1; 
stroke-linecap:round; stroke-linejoin:round;">
<path style="fill:#FFFFFF; fill-opacity:1.0; 
stroke:#FFFFFF; stroke-width:0; stroke-opacity:1; 
stroke-linecap:round; stroke-linejoin:round;fill-rule:evenodd;"
d="M 25472.3,19979
25477.7,19979.8
25482.9,19981.1
25488,19982.9
25492.9,19985.2
25497.6,19988
25501.9,19991.3
25505.9,19994.9
25509.5,19998.9
25512.8,20003.2
25515.5,20007.9
25517.9,20012.8
25519.7,20017.9
25521,20023.1
25521.8,20028.5
25522,20033.9
25522,20144.1
25521.8,20149.5
25521,20154.8
25519.7,20160.1
25517.9,20165.2
25515.5,20170.1
25512.8,20174.7
25509.5,20179.1
25505.9,20183.1
25501.9,20186.7
25497.6,20189.9
25492.9,20192.7
25488,20195
25482.9,20196.8
25477.7,20198.2
25472.3,20198.9
25466.9,20199.2
25333.1,20199.2
25327.7,20198.9
25322.3,20198.2
25317.1,20196.8
25312,20195
25307.1,20192.7
25302.4,20189.9
25298.1,20186.7
25294.1,20183.1
25290.5,20179.1
25287.2,20174.7
25284.5,20170.1
25282.1,20165.2
25280.3,20160.1
25279,20154.8
25278.2,20149.5
25278,20144.1
25278,20033.9
25278.2,20028.5
25279,20023.1
25280.3,20017.9
25282.1,20012.8
25284.5,20007.9
25287.2,20003.2
25290.5,19998.9
25294.1,19994.9
25298.1,19991.3
25302.4,19988
25307.1,19985.2
25312,19982.9
25317.1,19981.1
25322.3,19979.8
25327.7,19979
25333.1,19978.7
25466.9,19978.7
Z" /> 
<path style="fill:#FFFFFF; fill-opacity:1.0; 
stroke:#FFFFFF; stroke-width:0; stroke-opacity:1; 
stroke-linecap:round; stroke-linejoin:round;fill-rule:evenodd;"
d="M 25472.3,19601.1
25477.7,19601.8
25482.9,19603.2
25488,19605
25492.9,19607.3
25497.6,19610.1
25501.9,19613.3
25505.9,19616.9
25509.5,19620.9
25512.8,19625.3
25515.5,19629.9
25517.9,19634.8
25519.7,19639.9
25521,19645.2
25521.8,19650.5
25522,19655.9
25522,19766.1
25521.8,19771.5
25521,19776.9
25519.7,19782.1
25517.9,19787.2
25515.5,19792.1
25512.8,19796.8
25509.5,19801.1
25505.9,19805.1
25501.9,19808.7
25497.6,19812
25492.9,19814.8
25488,19817.1
25482.9,19818.9
25477.7,19820.2
25472.3,19821
25466.9,19821.3
25333.1,19821.3
25327.7,19821
25322.3,19820.2
25317.1,19818.9
25312,19817.1
25307.1,19814.8
25302.4,19812
25298.1,19808.7
25294.1,19805.1
25290.5,19801.1
25287.2,19796.8
25284.5,19792.1
25282.1,19787.2
25280.3,19782.1
25279,19776.9
25278.2,19771.5
25278,19766.1
25278,19655.9
25278.2,19650.5
25279,19645.2
25280.3,19639.9
25282.1,19634.8
25284.5,19629.9
25287.2,19625.3
25290.5,19620.9
25294.1,19616.9
25298.1,19613.3
25302.4,19610.1
25307.1,19607.3
25312,19605
25317.1,19603.2
25322.3,19601.8
25327.7,19601.1
25333.1,19600.8
25466.9,19600.8
Z" /> 
</g>
<g >
</g>
<g >
</g>
<g style="fill:#FFFFFF; fill-opacity:1.0; 
stroke:#FFFFFF; stroke-width:0; stroke-opacity:1; 
stroke-linecap:round; stroke-linejoin:round;">
<path style="fill:#FFFFFF; fill-opacity:1.0; 
stroke:#FFFFFF; stroke-width:0; stroke-opacity:1; 
stroke-linecap:round; stroke-linejoin:round;fill-rule:evenodd;"
d="M 26196.7,20077.6
26206.2,20079.1
26215.6,20081.4
26224.7,20084.7
26233.4,20088.8
26241.7,20093.8
26249.4,20099.5
26256.6,20106
26263.1,20113.2
26268.8,20120.9
26273.8,20129.2
26277.9,20137.9
26281.2,20147
26283.5,20156.4
26285,20165.9
26285.4,20175.6
26285.4,20372.4
26285,20382.1
26283.5,20391.6
26281.2,20401
26277.9,20410.1
26273.8,20418.8
26268.8,20427.1
26263.1,20434.9
26256.6,20442
26249.4,20448.5
26241.7,20454.3
26233.4,20459.2
26224.7,20463.4
26215.6,20466.6
26206.2,20469
26196.7,20470.4
26187,20470.9
25813,20470.9
25803.3,20470.4
25793.8,20469
25784.4,20466.6
25775.3,20463.4
25766.6,20459.2
25758.3,20454.3
25750.6,20448.5
25743.4,20442
25736.9,20434.9
25731.2,20427.1
25726.2,20418.8
25722.1,20410.1
25718.8,20401
25716.5,20391.6
25715,20382.1
25714.6,20372.4
25714.6,20175.6
25715,20165.9
25716.5,20156.4
25718.8,20147
25722.1,20137.9
25726.2,20129.2
25731.2,20120.9
25736.9,20113.2
25743.4,20106
25750.6,20099.5
25758.3,20093.8
25766.6,20088.8
25775.3,20084.7
25784.4,20081.4
25793.8,20079.1
25803.3,20077.6
25813,20077.2
26187,20077.2
Z" /> 
<path style="fill:#FFFFFF; fill-opacity:1.0; 
stroke:#FFFFFF; stroke-width:0; stroke-opacity:1; 
stroke-linecap:round; stroke-linejoin:round;fill-rule:evenodd;"
d="M 26196.7,19329.6
26206.2,19331
26215.6,19333.4
26224.7,19336.6
26233.4,19340.8
26241.7,19345.7
26249.4,19351.5
26256.6,19358
26263.1,19365.1
26268.8,19372.9
26273.8,19381.2
26277.9,19389.9
26281.2,19399
26283.5,19408.4
26285,19417.9
26285.4,19427.6
26285.4,19624.4
26285,19634.1
26283.5,19643.6
26281.2,19653
26277.9,19662.1
26273.8,19670.8
26268.8,19679.1
26263.1,19686.8
26256.6,19694
26249.4,19700.5
26241.7,19706.2
26233.4,19711.2
26224.7,19715.3
26215.6,19718.6
26206.2,19720.9
26196.7,19722.4
26187,19722.8
25813,19722.8
25803.3,19722.4
25793.8,19720.9
25784.4,19718.6
25775.3,19715.3
25766.6,19711.2
25758.3,19706.2
25750.6,19700.5
25743.4,19694
25736.9,19686.8
25731.2,19679.1
25726.2,19670.8
25722.1,19662.1
25718.8,19653
25716.5,19643.6
25715,19634.1
25714.6,19624.4
25714.6,19427.6
25715,19417.9
25716.5,19408.4
25718.8,19399
25722.1,19389.9
25726.2,19381.2
25731.2,19372.9
25736.9,19365.1
25743.4,19358
25750.6,19351.5
25758.3,19345.7
25766.6,19340.8
25775.3,19336.6
25784.4,19333.4
25793.8,19331
25803.3,19329.6
25813,19329.1
26187,19329.1
Z" /> 
</g>
<g >
</g>
<g style="fill:#FFFFFF; fill-opacity:1.0; 
stroke:#FFFFFF; stroke-width:0; stroke-opacity:1; 
stroke-linecap:round; stroke-linejoin:round;">
<path style="fill:#FFFFFF; fill-opacity:1.0; 
stroke:#FFFFFF; stroke-width:0; stroke-opacity:1; 
stroke-linecap:round; stroke-linejoin:round;fill-rule:evenodd;"
d="M 23456.7,19697.6
23466.2,19699.1
23475.6,19701.4
23484.7,19704.7
23493.4,19708.8
23501.7,19713.8
23509.4,19719.5
23516.6,19726
23523.1,19733.2
23528.8,19740.9
23533.8,19749.2
23537.9,19757.9
23541.2,19767
23543.5,19776.4
23545,19785.9
23545.4,19795.6
23545.4,19992.4
23545,20002.1
23543.5,20011.6
23541.2,20021
23537.9,20030.1
23533.8,20038.8
23528.8,20047.1
23523.1,20054.9
23516.6,20062
23509.4,20068.5
23501.7,20074.3
23493.4,20079.2
23484.7,20083.4
23475.6,20086.6
23466.2,20089
23456.7,20090.4
23447,20090.9
23073,20090.9
23063.3,20090.4
23053.8,20089
23044.4,20086.6
23035.3,20083.4
23026.6,20079.2
23018.3,20074.3
23010.6,20068.5
23003.4,20062
22996.9,20054.9
22991.2,20047.1
22986.2,20038.8
22982.1,20030.1
22978.8,20021
22976.5,20011.6
22975,20002.1
22974.6,19992.4
22974.6,19795.6
22975,19785.9
22976.5,19776.4
22978.8,19767
22982.1,19757.9
22986.2,19749.2
22991.2,19740.9
22996.9,19733.2
23003.4,19726
23010.6,19719.5
23018.3,19713.8
23026.6,19708.8
23035.3,19704.7
23044.4,19701.4
23053.8,19699.1
23063.3,19697.6
23073,19697.2
23447,19697.2
Z" /> 
<path style="fill:#FFFFFF; fill-opacity:1.0; 
stroke:#FFFFFF; stroke-width:0; stroke-opacity:1; 
stroke-linecap:round; stroke-linejoin:round;fill-rule:evenodd;"
d="M 23456.7,18949.6
23466.2,18951
23475.6,18953.4
23484.7,18956.6
23493.4,18960.8
23501.7,18965.7
23509.4,18971.5
23516.6,18978
23523.1,18985.1
23528.8,18992.9
23533.8,19001.2
23537.9,19009.9
23541.2,19019
23543.5,19028.4
23545,19037.9
23545.4,19047.6
23545.4,19244.4
23545,19254.1
23543.5,19263.6
23541.2,19273
23537.9,19282.1
23533.8,19290.8
23528.8,19299.1
23523.1,19306.8
23516.6,19314
23509.4,19320.5
23501.7,19326.2
23493.4,19331.2
23484.7,19335.3
23475.6,19338.6
23466.2,19340.9
23456.7,19342.4
23447,19342.8
23073,19342.8
23063.3,19342.4
23053.8,19340.9
23044.4,19338.6
23035.3,19335.3
23026.6,19331.2
23018.3,19326.2
23010.6,19320.5
23003.4,19314
22996.9,19306.8
22991.2,19299.1
22986.2,19290.8
22982.1,19282.1
22978.8,19273
22976.5,19263.6
22975,19254.1
22974.6,19244.4
22974.6,19047.6
22975,19037.9
22976.5,19028.4
22978.8,19019
22982.1,19009.9
22986.2,19001.2
22991.2,18992.9
22996.9,18985.1
23003.4,18978
23010.6,18971.5
23018.3,18965.7
23026.6,18960.8
23035.3,18956.6
23044.4,18953.4
23053.8,18951
23063.3,18949.6
23073,18949.1
23447,18949.1
Z" /> 
</g>
<g >
</g>
<g >
</g>
<g style="fill:#FFFFFF; fill-opacity:1.0; 
stroke:#FFFFFF; stroke-width:0; stroke-opacity:1; 
stroke-linecap:round; stroke-linejoin:round;">
<circle cx="21450.4" cy="18202.2" r="300" /> 
</g>
<g style="fill:#FFFFFF; fill-opacity:1.0; 
stroke:#FFFFFF; stroke-width:7.87402; stroke-opacity:1; 
stroke-linecap:round; stroke-linejoin:round;">
</g>
<g style="fill:#FFFFFF; fill-opacity:1.0; 
stroke:#FFFFFF; stroke-width:0; stroke-opacity:1; 
stroke-linecap:round; stroke-linejoin:round;">
<circle cx="21450.4" cy="17414.8" r="300" /> 
</g>
<g style="fill:#FFFFFF; fill-opacity:1.0; 
stroke:#FFFFFF; stroke-width:7.87402; stroke-opacity:1; 
stroke-linecap:round; stroke-linejoin:round;">
</g>
<g style="fill:#FFFFFF; fill-opacity:1.0; 
stroke:#FFFFFF; stroke-width:0; stroke-opacity:1; 
stroke-linecap:round; stroke-linejoin:round;">
<circle cx="21450.4" cy="16627.4" r="300" /> 
</g>
<g style="fill:#FFFFFF; fill-opacity:1.0; 
stroke:#FFFFFF; stroke-width:7.87402; stroke-opacity:1; 
stroke-linecap:round; stroke-linejoin:round;">
</g>
<g style="fill:#FFFFFF; fill-opacity:1.0; 
stroke:#FFFFFF; stroke-width:0; stroke-opacity:1; 
stroke-linecap:round; stroke-linejoin:round;">
<circle cx="21450.4" cy="15840" r="300" /> 
</g>
<g style="fill:#FFFFFF; fill-opacity:1.0; 
stroke:#FFFFFF; stroke-width:7.87402; stroke-opacity:1; 
stroke-linecap:round; stroke-linejoin:round;">
</g>
<g style="fill:#FFFFFF; fill-opacity:1.0; 
stroke:#FFFFFF; stroke-width:0; stroke-opacity:1; 
stroke-linecap:round; stroke-linejoin:round;">
<circle cx="21450.4" cy="15052.6" r="300" /> 
</g>
<g style="fill:#FFFFFF; fill-opacity:1.0; 
stroke:#FFFFFF; stroke-width:7.87402; stroke-opacity:1; 
stroke-linecap:round; stroke-linejoin:round;">
</g>
<g style="fill:#FFFFFF; fill-opacity:1.0; 
stroke:#FFFFFF; stroke-width:0; stroke-opacity:1; 
stroke-linecap:round; stroke-linejoin:round;">
<circle cx="21450.4" cy="14265.2" r="300" /> 
</g>
<g style="fill:#FFFFFF; fill-opacity:1.0; 
stroke:#FFFFFF; stroke-width:7.87402; stroke-opacity:1; 
stroke-linecap:round; stroke-linejoin:round;">
</g>
<g style="fill:#FFFFFF; fill-opacity:1.0; 
stroke:#FFFFFF; stroke-width:0; stroke-opacity:1; 
stroke-linecap:round; stroke-linejoin:round;">
<circle cx="21450.4" cy="13477.8" r="300" /> 
</g>
<g style="fill:#FFFFFF; fill-opacity:1.0; 
stroke:#FFFFFF; stroke-width:7.87402; stroke-opacity:1; 
stroke-linecap:round; stroke-linejoin:round;">
</g>
<g style="fill:#FFFFFF; fill-opacity:1.0; 
stroke:#FFFFFF; stroke-width:0; stroke-opacity:1; 
stroke-linecap:round; stroke-linejoin:round;">
<circle cx="27749.6" cy="18202.2" r="300" /> 
</g>
<g style="fill:#FFFFFF; fill-opacity:1.0; 
stroke:#FFFFFF; stroke-width:7.87402; stroke-opacity:1; 
stroke-linecap:round; stroke-linejoin:round;">
</g>
<g style="fill:#FFFFFF; fill-opacity:1.0; 
stroke:#FFFFFF; stroke-width:0; stroke-opacity:1; 
stroke-linecap:round; stroke-linejoin:round;">
<circle cx="27749.6" cy="17414.8" r="300" /> 
</g>
<g style="fill:#FFFFFF; fill-opacity:1.0; 
stroke:#FFFFFF; stroke-width:7.87402; stroke-opacity:1; 
stroke-linecap:round; stroke-linejoin:round;">
</g>
<g style="fill:#FFFFFF; fill-opacity:1.0; 
stroke:#FFFFFF; stroke-width:0; stroke-opacity:1; 
stroke-linecap:round; stroke-linejoin:round;">
<circle cx="27749.6" cy="16627.4" r="300" /> 
</g>
<g style="fill:#FFFFFF; fill-opacity:1.0; 
stroke:#FFFFFF; stroke-width:7.87402; stroke-opacity:1; 
stroke-linecap:round; stroke-linejoin:round;">
</g>
<g style="fill:#FFFFFF; fill-opacity:1.0; 
stroke:#FFFFFF; stroke-width:0; stroke-opacity:1; 
stroke-linecap:round; stroke-linejoin:round;">
<circle cx="27749.6" cy="15840" r="300" /> 
</g>
<g style="fill:#FFFFFF; fill-opacity:1.0; 
stroke:#FFFFFF; stroke-width:7.87402; stroke-opacity:1; 
stroke-linecap:round; stroke-linejoin:round;">
</g>
<g style="fill:#FFFFFF; fill-opacity:1.0; 
stroke:#FFFFFF; stroke-width:0; stroke-opacity:1; 
stroke-linecap:round; stroke-linejoin:round;">
<circle cx="27749.6" cy="15052.6" r="300" /> 
</g>
<g style="fill:#FFFFFF; fill-opacity:1.0; 
stroke:#FFFFFF; stroke-width:7.87402; stroke-opacity:1; 
stroke-linecap:round; stroke-linejoin:round;">
</g>
<g style="fill:#FFFFFF; fill-opacity:1.0; 
stroke:#FFFFFF; stroke-width:0; stroke-opacity:1; 
stroke-linecap:round; stroke-linejoin:round;">
<circle cx="27749.6" cy="14265.2" r="300" /> 
</g>
<g style="fill:#FFFFFF; fill-opacity:1.0; 
stroke:#FFFFFF; stroke-width:7.87402; stroke-opacity:1; 
stroke-linecap:round; stroke-linejoin:round;">
</g>
<g style="fill:#FFFFFF; fill-opacity:1.0; 
stroke:#FFFFFF; stroke-width:0; stroke-opacity:1; 
stroke-linecap:round; stroke-linejoin:round;">
<circle cx="27749.6" cy="13477.8" r="300" /> 
</g>
<g style="fill:#FFFFFF; fill-opacity:1.0; 
stroke:#FFFFFF; stroke-width:7.87402; stroke-opacity:1; 
stroke-linecap:round; stroke-linejoin:round;">
</g>
<g >
</g>
<g >
</g>
<g style="fill:#FFFFFF; fill-opacity:1.0; 
stroke:#FFFFFF; stroke-width:7.87402; stroke-opacity:1; 
stroke-linecap:round; stroke-linejoin:round;">
</g>
<g style="fill:#FFFFFF; fill-opacity:1.0; 
stroke:#FFFFFF; stroke-width:748.031; stroke-opacity:1; 
stroke-linecap:round; stroke-linejoin:round;">
</g>
<g style="fill:#FFFFFF; fill-opacity:0.0; 
stroke:#FFFFFF; stroke-width:748.031; stroke-opacity:1; 
stroke-linecap:round; stroke-linejoin:round;">
<path d="M22355 21028
L22355 21658
" />
<path d="M26844 21028
L26844 21658
" />
</g>
<g >
</g>
<g style="fill:#FFFFFF; fill-opacity:0.0; 
stroke:#FFFFFF; stroke-width:748.031; stroke-opacity:1; 
stroke-linecap:round; stroke-linejoin:round;">
</g>
<g style="fill:#FFFFFF; fill-opacity:1.0; 
stroke:#FFFFFF; stroke-width:0; stroke-opacity:1; 
stroke-linecap:round; stroke-linejoin:round;">
<circle cx="23640" cy="14980" r="314.961" /> 
</g>
<g style="fill:#FFFFFF; fill-opacity:1.0; 
stroke:#FFFFFF; stroke-width:7.87402; stroke-opacity:1; 
stroke-linecap:round; stroke-linejoin:round;">
</g>
<g style="fill:#FFFFFF; fill-opacity:1.0; 
stroke:#FFFFFF; stroke-width:0; stroke-opacity:1; 
stroke-linecap:round; stroke-linejoin:round;">
<circle cx="26780" cy="15560" r="314.961" /> 
</g>
<g style="fill:#FFFFFF; fill-opacity:1.0; 
stroke:#FFFFFF; stroke-width:7.87402; stroke-opacity:1; 
stroke-linecap:round; stroke-linejoin:round;">
</g>
<g style="fill:#FFFFFF; fill-opacity:1.0; 
stroke:#FFFFFF; stroke-width:0; stroke-opacity:1; 
stroke-linecap:round; stroke-linejoin:round;">
<circle cx="26800" cy="16320" r="314.961" /> 
</g>
<g style="fill:#FFFFFF; fill-opacity:1.0; 
stroke:#FFFFFF; stroke-width:7.87402; stroke-opacity:1; 
stroke-linecap:round; stroke-linejoin:round;">
</g>
<g style="fill:#FFFFFF; fill-opacity:1.0; 
stroke:#FFFFFF; stroke-width:0; stroke-opacity:1; 
stroke-linecap:round; stroke-linejoin:round;">
<circle cx="27600" cy="20060" r="314.961" /> 
</g>
<g style="fill:#FFFFFF; fill-opacity:1.0; 
stroke:#FFFFFF; stroke-width:7.87402; stroke-opacity:1; 
stroke-linecap:round; stroke-linejoin:round;">
</g>
<g style="fill:#FFFFFF; fill-opacity:1.0; 
stroke:#FFFFFF; stroke-width:0; stroke-opacity:1; 
stroke-linecap:round; stroke-linejoin:round;">
<circle cx="26720" cy="20060" r="314.961" /> 
</g>
<g style="fill:#FFFFFF; fill-opacity:1.0; 
stroke:#FFFFFF; stroke-width:7.87402; stroke-opacity:1; 
stroke-linecap:round; stroke-linejoin:round;">
</g>
<g style="fill:#FFFFFF; fill-opacity:1.0; 
stroke:#FFFFFF; stroke-width:0; stroke-opacity:1; 
stroke-linecap:round; stroke-linejoin:round;">
<circle cx="25900" cy="14300" r="314.961" /> 
</g>
<g style="fill:#FFFFFF; fill-opacity:1.0; 
stroke:#FFFFFF; stroke-width:7.87402; stroke-opacity:1; 
stroke-linecap:round; stroke-linejoin:round;">
</g>
<g style="fill:#FFFFFF; fill-opacity:1.0; 
stroke:#FFFFFF; stroke-width:0; stroke-opacity:1; 
stroke-linecap:round; stroke-linejoin:round;">
<circle cx="25825" cy="17800" r="314.961" /> 
</g>
<g style="fill:#FFFFFF; fill-opacity:1.0; 
stroke:#FFFFFF; stroke-width:7.87402; stroke-opacity:1; 
stroke-linecap:round; stroke-linejoin:round;">
</g>
<g style="fill:#FFFFFF; fill-opacity:1.0; 
stroke:#FFFFFF; stroke-width:0; stroke-opacity:1; 
stroke-linecap:round; stroke-linejoin:round;">
<circle cx="22525" cy="17775" r="314.961" /> 
</g>
<g style="fill:#FFFFFF; fill-opacity:1.0; 
stroke:#FFFFFF; stroke-width:7.87402; stroke-opacity:1; 
stroke-linecap:round; stroke-linejoin:round;">
</g>
<g style="fill:#FFFFFF; fill-opacity:1.0; 
stroke:#FFFFFF; stroke-width:0; stroke-opacity:1; 
stroke-linecap:round; stroke-linejoin:round;">
<circle cx="27749.6" cy="14265.2" r="334.646" /> 
</g>
<g style="fill:#FFFFFF; fill-opacity:1.0; 
stroke:#FFFFFF; stroke-width:7.87402; stroke-opacity:1; 
stroke-linecap:round; stroke-linejoin:round;">
</g>
<g style="fill:#FFFFFF; fill-opacity:1.0; 
stroke:#FFFFFF; stroke-width:0; stroke-opacity:1; 
stroke-linecap:round; stroke-linejoin:round;">
<circle cx="27749.6" cy="15840" r="334.646" /> 
</g>
<g style="fill:#FFFFFF; fill-opacity:1.0; 
stroke:#FFFFFF; stroke-width:7.87402; stroke-opacity:1; 
stroke-linecap:round; stroke-linejoin:round;">
</g>
<g style="fill:#FFFFFF; fill-opacity:1.0; 
stroke:#FFFFFF; stroke-width:0; stroke-opacity:1; 
stroke-linecap:round; stroke-linejoin:round;">
<circle cx="27749.6" cy="13477.8" r="334.646" /> 
</g>
<g style="fill:#FFFFFF; fill-opacity:1.0; 
stroke:#FFFFFF; stroke-width:7.87402; stroke-opacity:1; 
stroke-linecap:round; stroke-linejoin:round;">
</g>
<g style="fill:#FFFFFF; fill-opacity:1.0; 
stroke:#FFFFFF; stroke-width:0; stroke-opacity:1; 
stroke-linecap:round; stroke-linejoin:round;">
<circle cx="21450.4" cy="15052.6" r="334.646" /> 
</g>
<g style="fill:#FFFFFF; fill-opacity:1.0; 
stroke:#FFFFFF; stroke-width:7.87402; stroke-opacity:1; 
stroke-linecap:round; stroke-linejoin:round;">
</g>
<g style="fill:#FFFFFF; fill-opacity:1.0; 
stroke:#FFFFFF; stroke-width:0; stroke-opacity:1; 
stroke-linecap:round; stroke-linejoin:round;">
<circle cx="21450.4" cy="13477.8" r="334.646" /> 
</g>
<g style="fill:#FFFFFF; fill-opacity:1.0; 
stroke:#FFFFFF; stroke-width:7.87402; stroke-opacity:1; 
stroke-linecap:round; stroke-linejoin:round;">
</g>
<g style="fill:#FFFFFF; fill-opacity:1.0; 
stroke:#FFFFFF; stroke-width:0; stroke-opacity:1; 
stroke-linecap:round; stroke-linejoin:round;">
<circle cx="21450.4" cy="14265.2" r="334.646" /> 
</g>
<g style="fill:#FFFFFF; fill-opacity:1.0; 
stroke:#FFFFFF; stroke-width:7.87402; stroke-opacity:1; 
stroke-linecap:round; stroke-linejoin:round;">
</g>
<g style="fill:#FFFFFF; fill-opacity:1.0; 
stroke:#FFFFFF; stroke-width:0; stroke-opacity:1; 
stroke-linecap:round; stroke-linejoin:round;">
<circle cx="21450.4" cy="16627.4" r="334.646" /> 
</g>
<g style="fill:#FFFFFF; fill-opacity:1.0; 
stroke:#FFFFFF; stroke-width:7.87402; stroke-opacity:1; 
stroke-linecap:round; stroke-linejoin:round;">
</g>
<g style="fill:#FFFFFF; fill-opacity:1.0; 
stroke:#FFFFFF; stroke-width:0; stroke-opacity:1; 
stroke-linecap:round; stroke-linejoin:round;">
<circle cx="27749.6" cy="18202.2" r="334.646" /> 
</g>
<g style="fill:#FFFFFF; fill-opacity:1.0; 
stroke:#FFFFFF; stroke-width:7.87402; stroke-opacity:1; 
stroke-linecap:round; stroke-linejoin:round;">
</g>
<g style="fill:#FFFFFF; fill-opacity:1.0; 
stroke:#FFFFFF; stroke-width:0; stroke-opacity:1; 
stroke-linecap:round; stroke-linejoin:round;">
<circle cx="21450.4" cy="17414.8" r="334.646" /> 
</g>
<g style="fill:#FFFFFF; fill-opacity:1.0; 
stroke:#FFFFFF; stroke-width:7.87402; stroke-opacity:1; 
stroke-linecap:round; stroke-linejoin:round;">
</g>
<g style="fill:#FFFFFF; fill-opacity:1.0; 
stroke:#FFFFFF; stroke-width:0; stroke-opacity:1; 
stroke-linecap:round; stroke-linejoin:round;">
<circle cx="27749.6" cy="16627.4" r="334.646" /> 
</g>
<g style="fill:#FFFFFF; fill-opacity:1.0; 
stroke:#FFFFFF; stroke-width:7.87402; stroke-opacity:1; 
stroke-linecap:round; stroke-linejoin:round;">
</g>
<g style="fill:#FFFFFF; fill-opacity:1.0; 
stroke:#FFFFFF; stroke-width:0; stroke-opacity:1; 
stroke-linecap:round; stroke-linejoin:round;">
<circle cx="27749.6" cy="17414.8" r="334.646" /> 
</g>
<g style="fill:#FFFFFF; fill-opacity:1.0; 
stroke:#FFFFFF; stroke-width:7.87402; stroke-opacity:1; 
stroke-linecap:round; stroke-linejoin:round;">
</g>
<g style="fill:#FFFFFF; fill-opacity:1.0; 
stroke:#FFFFFF; stroke-width:0; stroke-opacity:1; 
stroke-linecap:round; stroke-linejoin:round;">
<circle cx="21450.4" cy="15840" r="334.646" /> 
</g>
<g style="fill:#FFFFFF; fill-opacity:1.0; 
stroke:#FFFFFF; stroke-width:7.87402; stroke-opacity:1; 
stroke-linecap:round; stroke-linejoin:round;">
</g>
<g style="fill:#FFFFFF; fill-opacity:1.0; 
stroke:#FFFFFF; stroke-width:0; stroke-opacity:1; 
stroke-linecap:round; stroke-linejoin:round;">
<circle cx="21450.4" cy="18202.2" r="334.646" /> 
</g>
<g style="fill:#FFFFFF; fill-opacity:1.0; 
stroke:#FFFFFF; stroke-width:7.87402; stroke-opacity:1; 
stroke-linecap:round; stroke-linejoin:round;">
</g>
<g >
</g>
<g style="fill:#FFFFFF; fill-opacity:1.0; 
stroke:#FFFFFF; stroke-width:7.87402; stroke-opacity:1; 
stroke-linecap:round; stroke-linejoin:round;">
</g>
<g style="fill:#FFFFFF; fill-opacity:1.0; 
stroke:#FFFFFF; stroke-width:196.85; stroke-opacity:1; 
stroke-linecap:round; stroke-linejoin:round;">
</g>
<g style="fill:#FFFFFF; fill-opacity:0.0; 
stroke:#FFFFFF; stroke-width:196.85; stroke-opacity:1; 
stroke-linecap:round; stroke-linejoin:round;">
<path d="M26203 21343
L26844 21343
" />
<path d="M26000 21140
L26203 21343
" />
<path d="M26000 20560
L26000 21140
" />
<path d="M27600 20440
L27600 20060
" />
<path d="M27480 20560
L27600 20440
" />
<path d="M26820 20600
L26820 20560
" />
<path d="M26844 20624
L26820 20600
" />
<path d="M26844 21343
L26844 20624
" />
<path d="M26820 20560
L27480 20560
" />
<path d="M26000 20560
L26820 20560
" />
<path d="M23260 20260
L23260 19894
" />
<path d="M23274 20274
L23260 20260
" />
<path d="M24061 19894
L23260 19894
" />
<path d="M25400 20240
L25434 20274
" />
<path d="M25400 20088
L25400 20240
" />
<path d="M25434 20274
L23274 20274
" />
<path d="M26000 20274
L25434 20274
" />
<path d="M26000 20560
L26000 20274
" />
<path d="M23274 20274
L22474 20274
" />
<path d="M22474 20274
L21962 19762
" />
<path d="M22020 12240
L23180 12240
" />
<path d="M21962 12297
L22020 12240
" />
<path d="M21952 16627
L21962 16617
" />
<path d="M21450 16627
L21952 16627
" />
<path d="M21962 16617
L21962 12297
" />
<path d="M21962 19762
L21962 16617
" />
<path d="M23035 17775
L22525 17775
" />
<path d="M24240 17800
L25825 17800
" />
<path d="M22550 17800
L22525 17775
" />
<path d="M25825 14375
L25900 14300
" />
<path d="M25825 17800
L25825 14375
" />
<path d="M24061 19145
L23260 19145
" />
<path d="M23260 17900
L23360 17800
" />
<path d="M23360 17800
L22550 17800
" />
<path d="M23260 19145
L23260 17900
" />
<path d="M25825 17800
L23360 17800
" />
<path d="M25994 19520
L26000 19525
" />
<path d="M25400 19580
L25340 19520
" />
<path d="M25400 19711
L25400 19580
" />
<path d="M25340 19520
L25994 19520
" />
<path d="M24800 19520
L25340 19520
" />
<path d="M26000 19525
L26585 19525
" />
<path d="M26720 19660
L26720 20060
" />
<path d="M26585 19525
L26720 19660
" />
</g>
<g style="fill:#FFFFFF; fill-opacity:0.0; 
stroke:#FFFFFF; stroke-width:118.11; stroke-opacity:1; 
stroke-linecap:round; stroke-linejoin:round;">
<path d="M26800 16320
L26580 16320
" />
<path d="M26800 16320
L26300 15820
" />
<path d="M26300 15820
L26300 15160
" />
<path d="M26300 15160
L26520 14940
" />
<path d="M26520 14940
L26520 13220
" />
<path d="M26520 13220
L26140 12840
" />
<path d="M26140 12840
L24680 12840
" />
<path d="M24600 12760
L24600 12240
" />
<path d="M24680 12840
L24600 12760
" />
<path d="M26780 15560
L26780 12360
" />
<path d="M26660 12240
L26020 12240
" />
<path d="M26780 12360
L26660 12240
" />
</g>
<g >
</g>
<g style="fill:#FFFFFF; fill-opacity:0.0; 
stroke:#FFFFFF; stroke-width:118.11; stroke-opacity:1; 
stroke-linecap:round; stroke-linejoin:round;">
<g >
</g>
<g style="fill:#FFFFFF; fill-opacity:1.0; 
stroke:#FFFFFF; stroke-width:100; stroke-opacity:1; 
stroke-linecap:round; stroke-linejoin:round;">
<path style="fill:#FFFFFF; fill-opacity:1.0; 
stroke:#FFFFFF; stroke-width:100; stroke-opacity:1; 
stroke-linecap:round; stroke-linejoin:round;fill-rule:evenodd;"
d="M 28090,13002.1
28026.5,12959.7
27920.1,12915.6
27807.2,12893.1
27692,12893.1
27579.1,12915.6
27472.7,12959.7
27376.9,13023.7
27295.5,13105.1
27231.5,13200.9
27187.4,13307.3
27165,13420.2
27165,13535.4
27187.4,13648.3
27231.5,13754.7
27295.5,13850.5
27316.5,13871.5
27295.5,13892.5
27231.5,13988.3
27187.4,14094.7
27165,14207.6
27165,14322.8
27187.4,14435.7
27231.5,14542.1
27295.5,14637.9
27341,14683.4
27322.4,14702
27262.2,14792.1
27220.7,14892.2
27199.6,14998.4
27199.6,15106.8
27217.9,15199
27140.1,15121.2
27089.1,15087
27089.1,12375.2
27090.5,12360
27089.1,12344.8
27089.1,12344.8
27084.6,12299.4
27066.9,12241.2
27038.2,12187.5
26999.6,12140.4
26987.8,12130.7
26889.3,12032.2
26879.6,12020.4
26832.5,11981.8
26778.8,11953.1
26720.6,11935.4
26675.2,11930.9
26675.2,11930.9
26660,11929.5
26644.8,11930.9
26605.9,11930.9
26605.9,11905.4
26601,11856.3
26586.7,11809.2
26563.5,11765.8
26532.3,11727.7
26494.2,11696.5
26450.8,11673.3
26403.7,11659
26354.6,11654.1
25685.4,11654.1
25636.3,11659
25589.2,11673.3
25545.8,11696.5
25507.7,11727.7
25476.5,11765.8
25453.3,11809.2
25439,11856.3
25434.1,11905.4
25434.1,12530.9
25185.9,12530.9
25185.9,11905.4
25181,11856.3
25166.7,11809.2
25143.5,11765.8
25112.3,11727.7
25074.2,11696.5
25030.8,11673.3
24983.7,11659
24934.6,11654.1
24265.4,11654.1
24216.3,11659
24169.2,11673.3
24125.8,11696.5
24087.7,11727.7
24056.5,11765.8
24033.3,11809.2
24019,11856.3
24014.1,11905.4
24014.1,12574.6
24019,12623.7
24033.3,12670.8
24056.5,12714.2
24087.7,12752.3
24125.8,12783.5
24169.2,12806.7
24216.3,12821
24265.4,12825.9
24297,12825.9
24313.1,12878.8
24341.8,12932.5
24380.4,12979.6
24392.2,12989.3
24450.7,13047.8
24460.4,13059.6
24507.5,13098.2
24561.2,13126.9
24590.3,13135.7
24619.4,13144.6
24625.1,13145.1
24664.8,13149.1
24664.8,13149.1
24680,13150.5
24695.2,13149.1
26012,13149.1
26210.9,13348
26210.9,14812
26092.2,14930.7
26080.4,14940.4
26070.7,14952.2
26070.7,14952.2
26057.8,14968
26041.8,14987.5
26026.4,15016.2
26013.1,15041.2
25995.4,15099.4
25989.5,15160
25990.9,15175.2
25990.9,15804.8
25989.5,15820
25990.9,15835.2
25990.9,15835.2
25995.4,15880.6
26013.1,15938.8
26041.8,15992.5
26080.4,16039.6
26092.2,16049.3
26247,16204.1
26235,16264.4
26235,16375.6
26256.8,16484.8
26299.3,16587.6
26361.2,16680.1
26439.9,16758.8
26532.4,16820.7
26635.2,16863.2
26744.4,16885
26855.6,16885
26964.8,16863.2
27067.6,16820.7
27160.1,16758.8
27176.4,16742.6
27187.4,16797.9
27231.5,16904.3
27295.5,17000.1
27316.5,17021.1
27295.5,17042.1
27231.5,17137.9
27187.4,17244.3
27165,17357.2
27165,17472.4
27187.4,17585.3
27231.5,17691.7
27295.5,17787.5
27316.5,17808.5
27295.5,17829.5
27231.5,17925.3
27187.4,18031.7
27165,18144.6
27165,18259.8
27187.4,18372.7
27231.5,18479.1
27295.5,18574.9
27376.9,18656.3
27472.7,18720.3
27579.1,18764.4
27692,18786.9
27807.2,18786.9
27920.1,18764.4
28026.5,18720.3
28090,18677.9
28090,19370
26922.7,19370
26844.5,19291.7
26833.5,19278.4
26780.5,19234.9
26720,19202.5
26654.3,19182.6
26603.1,19177.6
26603.1,19177.6
26586,19175.9
26568.9,19177.6
26430.9,19177.6
26381.3,19136.8
26320.8,19104.5
26255.2,19084.6
26187,19077.9
25813,19077.9
25744.8,19084.6
25679.2,19104.5
25618.7,19136.8
25576.4,19171.6
25357.1,19171.6
25340,19169.9
25322.9,19171.6
25141.1,19171.6
25091.8,19156.6
25031.3,19150.7
24568.7,19150.7
24508.2,19156.6
24450,19174.3
24409.4,19196
24111.8,19196
24111.8,19203.9
24011.8,19203.9
24011.8,19196
23310,19196
23310,19203.9
23210,19203.9
23210,19196
22787.1,19196
22724.6,19258.5
22723.4,19342.8
22726,19370
22310.6,19370
22310.6,18949.1
22723.4,18949.1
22724.6,19033.5
22787.1,19096
23210,19096
23210,18761.6
23310,18761.6
23310,19096
24011.8,19096
24011.8,18840.4
24111.8,18840.4
24111.8,19096
24539.7,19096
24602.2,19033.5
24603.4,19027.9
24598.5,18978.9
24584.3,18931.7
24561,18888.3
24529.8,18850.2
24491.7,18819
24448.3,18795.8
24401.2,18781.5
24352.2,18776.7
24174.3,18777.9
24111.8,18840.4
24011.8,18840.4
23949.3,18777.9
23771.5,18776.7
23730.6,18780.7
23723.1,18771.5
23685,18740.3
23641.6,18717
23594.4,18702.8
23545.4,18697.9
23372.5,18699.1
23310,18761.6
23210,18761.6
23147.5,18699.1
22974.6,18697.9
22925.6,18702.8
22878.4,18717
22835,18740.3
22796.9,18771.5
22765.7,18809.6
22742.5,18853
22728.2,18900.1
22723.4,18949.1
22310.6,18949.1
22310.6,16634.9
22312.3,16617.8
22310.6,16600.7
22310.6,12588.4
22595.5,12588.4
22599,12623.7
22613.3,12670.8
22636.5,12714.2
22667.7,12752.3
22705.8,12783.5
22749.2,12806.7
22796.3,12821
22845.4,12825.9
23514.6,12825.9
23563.7,12821
23610.8,12806.7
23654.2,12783.5
23692.3,12752.3
23723.5,12714.2
23746.7,12670.8
23761,12623.7
23765.9,12574.6
23765.9,11905.4
23761,11856.3
23746.7,11809.2
23723.5,11765.8
23692.3,11727.7
23654.2,11696.5
23610.8,11673.3
23563.7,11659
23514.6,11654.1
22845.4,11654.1
22796.3,11659
22749.2,11673.3
22705.8,11696.5
22667.7,11727.7
22636.5,11765.8
22613.3,11809.2
22599,11856.3
22595.5,11891.6
22037.1,11891.6
22020,11889.9
22002.9,11891.6
22002.9,11891.6
21951.7,11896.6
21886,11916.5
21825.5,11948.9
21772.4,11992.4
21761.5,12005.7
21727.9,12039.3
21714.6,12050.2
21703.7,12063.5
21703.7,12063.5
21671.1,12103.3
21638.7,12163.8
21618.8,12229.5
21612.1,12297.8
21613.8,12314.9
21613.8,12914.2
21508,12893.1
21392.8,12893.1
21279.9,12915.6
21173.5,12959.7
21110,13002.1
21110,11570
28090,11570
Z" /> 
<path style="fill:#FFFFFF; fill-opacity:1.0; 
stroke:#FFFFFF; stroke-width:100; stroke-opacity:1; 
stroke-linecap:round; stroke-linejoin:round;fill-rule:evenodd;"
d="M 21526.7,17409.2
21521.1,17414.8
21526.7,17420.4
21456,17491.1
21450.4,17485.5
21444.8,17491.1
21374.1,17420.4
21379.7,17414.8
21374.1,17409.2
21444.8,17338.5
21450.4,17344.1
21456,17338.5
Z" /> 
</g>
</g>
<g style="fill:#FFFFFF; fill-opacity:1.0; 
stroke:#FFFFFF; stroke-width:100; stroke-opacity:1; 
stroke-linecap:round; stroke-linejoin:round;">
<g >
<path style="fill:#FFFFFF; fill-opacity:1.0; 
stroke:#FFFFFF; stroke-width:100; stroke-opacity:1; 
stroke-linecap:round; stroke-linejoin:round;fill-rule:evenodd;"
d="M 22724.6,19781.5
22787.1,19844
23210,19844
23210,19836.1
23310,19836.1
23310,19844
24011.8,19844
24011.8,19836.1
24111.8,19836.1
24111.8,19844
24409.4,19844
24450,19865.7
24508.2,19883.4
24568.7,19889.3
25031.3,19889.3
25044.3,19888
25031.8,19928.6
25028,19976.5
25090.5,20039
25196.8,20039
25215.8,20049.2
25273.3,20066.6
25333.1,20072.5
25457.9,20072.5
25457.9,20139
25450,20139
25450,20386.7
25464.4,20401.1
25463.4,20470.9
25468.2,20519.9
25482.5,20567
25505.7,20610.4
25536.9,20648.5
25575,20679.7
25618.4,20703
25665.6,20717.2
25714.6,20722.1
25887.5,20720.9
25950,20658.4
25950,20324
25942.1,20324
25942.1,20224
25950,20224
25950,20216.1
26050,20216.1
26050,20224
26057.9,20224
26057.9,20324
26050,20324
26050,20658.4
26112.5,20720.9
26285.4,20722.1
26301.5,20720.5
26286.7,20743.5
26241.8,20857.7
26220.1,20978.5
26220.1,21293.5
26794.1,21293.5
26794.1,21285.6
26894.1,21285.6
26894.1,21293.5
27468.1,21293.5
27468.1,20978.5
27446.4,20857.7
27401.5,20743.5
27335.2,20640.2
27250,20551.9
27149.2,20481.9
27112.9,20466.1
27158.8,20420.1
27220.7,20327.6
27263.2,20224.8
27285,20115.6
27285,20004.4
27263.2,19895.2
27220.7,19792.4
27192.3,19750
28090,19750
28090,22510
21110,22510
21110,21393.5
21731.9,21393.5
21731.9,21708.4
21753.6,21829.2
21798.5,21943.4
21864.8,22046.7
21950,22135
22050.8,22205.1
22163.3,22254.1
22209.2,22265
22305.9,22217.7
22305.9,21393.5
22405.9,21393.5
22405.9,22217.7
22502.6,22265
22548.5,22254.1
22661,22205.1
22761.8,22135
22847,22046.7
22913.3,21943.4
22958.2,21829.2
22979.9,21708.4
22979.9,21393.5
22405.9,21393.5
22305.9,21393.5
21731.9,21393.5
21110,21393.5
21110,21297.5
23228,21297.5
23228,21389.4
23245.9,21479.5
23281,21564.5
23332.1,21640.9
23397.1,21705.8
23473.5,21756.9
23558.4,21792.1
23648.5,21810
23740.4,21810
23830.6,21792.1
23915.5,21756.9
23991.9,21705.8
24056.9,21640.9
24107.9,21564.5
24143.1,21479.5
24161,21389.4
24161,21297.5
25039,21297.5
25039,21389.4
25056.9,21479.5
25092.1,21564.5
25143.1,21640.9
25208.1,21705.8
25284.5,21756.9
25369.4,21792.1
25459.6,21810
25551.5,21810
25641.6,21792.1
25726.5,21756.9
25802.9,21705.8
25867.9,21640.9
25919,21564.5
25954.1,21479.5
25971.2,21393.5
26220.1,21393.5
26220.1,21708.4
26241.8,21829.2
26286.7,21943.4
26353,22046.7
26438.2,22135
26539,22205.1
26651.5,22254.1
26697.4,22265
26794.1,22217.7
26794.1,21393.5
26894.1,21393.5
26894.1,22217.7
26990.8,22265
27036.7,22254.1
27149.2,22205.1
27250,22135
27335.2,22046.7
27401.5,21943.4
27446.4,21829.2
27468.1,21708.4
27468.1,21393.5
26894.1,21393.5
26794.1,21393.5
26220.1,21393.5
25971.2,21393.5
25972,21389.4
25972,21297.5
25954.1,21207.4
25919,21122.5
25867.9,21046.1
25802.9,20981.1
25726.5,20930
25641.6,20894.9
25551.5,20876.9
25459.6,20876.9
25369.4,20894.9
25284.5,20930
25208.1,20981.1
25143.1,21046.1
25092.1,21122.5
25056.9,21207.4
25039,21297.5
24161,21297.5
24143.1,21207.4
24107.9,21122.5
24056.9,21046.1
23991.9,20981.1
23915.5,20930
23830.6,20894.9
23740.4,20876.9
23648.5,20876.9
23558.4,20894.9
23473.5,20930
23397.1,20981.1
23332.1,21046.1
23281,21122.5
23245.9,21207.4
23228,21297.5
21110,21297.5
21110,20978.5
21731.9,20978.5
21731.9,21293.5
22305.9,21293.5
22305.9,20469.2
22405.9,20469.2
22405.9,21293.5
22979.9,21293.5
22979.9,20978.5
22958.2,20857.7
22913.3,20743.5
22847,20640.2
22761.8,20551.9
22661,20481.9
22548.5,20432.9
22502.6,20422
22405.9,20469.2
22305.9,20469.2
22209.2,20422
22163.3,20432.9
22050.8,20481.9
21950,20551.9
21864.8,20640.2
21798.5,20743.5
21753.6,20857.7
21731.9,20978.5
21110,20978.5
21110,20090.9
22723.4,20090.9
22728.2,20139.9
22742.5,20187
22765.7,20230.4
22796.9,20268.5
22835,20299.7
22878.4,20323
22925.6,20337.2
22974.6,20342.1
23147.5,20340.9
23210,20278.4
23210,19944
23310,19944
23310,20278.4
23372.5,20340.9
23545.4,20342.1
23594.4,20337.2
23641.6,20323
23685,20299.7
23723.1,20268.5
23730.6,20259.3
23771.5,20263.3
23949.3,20262.1
24011.8,20199.6
24011.8,19944
24111.8,19944
24111.8,20199.6
24174.3,20262.1
24352.2,20263.3
24401.2,20258.5
24448.3,20244.2
24491.7,20221
24515.5,20201.5
25028,20201.5
25031.8,20249.3
25046.3,20296.4
25069.7,20339.7
25101.1,20377.7
25139.3,20408.7
25182.9,20431.7
25230.1,20445.8
25279.1,20450.4
25287.5,20449.2
25350,20386.7
25350,20139
25090.5,20139
25028,20201.5
24515.5,20201.5
24529.8,20189.8
24561,20151.7
24584.3,20108.3
24598.5,20061.1
24603.4,20012.1
24602.2,20006.5
24539.7,19944
24111.8,19944
24011.8,19944
23310,19944
23210,19944
22787.1,19944
22724.6,20006.5
22723.4,20090.9
21110,20090.9
21110,19750
22724.1,19750
Z" /> 
</g>
</g>
</g> 
</svg>
