<?xml version="1.0" standalone="no"?>
 <!DOCTYPE svg PUBLIC "-//W3C//DTD SVG 1.1//EN" 
 "http://www.w3.org/Graphics/SVG/1.1/DTD/svg11.dtd"> 
<svg
  xmlns:svg="http://www.w3.org/2000/svg"
  xmlns="http://www.w3.org/2000/svg"
  xmlns:xlink="http://www.w3.org/1999/xlink"
  version="1.1"
  width="29.700220cm" height="21.000720cm" viewBox="0 0 116930 82680">
<title>SVG Picture created as rfm_to_usb-F_Cu.svg date 2021/06/10 17:34:05 </title>
  <desc>Picture generated by PCBNEW </desc>
<g style="fill:#000000; fill-opacity:1;stroke:#000000; stroke-opacity:1;
stroke-linecap:round; stroke-linejoin:round;"
 transform="translate(0 0) scale(1 1)">
</g>
<g style="fill:#000000; fill-opacity:0.0; 
stroke:#000000; stroke-width:-0.000393701; stroke-opacity:1; 
stroke-linecap:round; stroke-linejoin:round;">
</g>
<g style="fill:#000000; fill-opacity:1.0; 
stroke:#000000; stroke-width:7.87402; stroke-opacity:1; 
stroke-linecap:round; stroke-linejoin:round;">
<rect x="18425.9" y="9888.23" width="11898.3" height="22078.3" rx="0" />
</g>
<g style="fill:#FFFFFF; fill-opacity:1.0; 
stroke:#FFFFFF; stroke-width:7.87402; stroke-opacity:1; 
stroke-linecap:round; stroke-linejoin:round;">
<g >
</g>
<g style="fill:#FFFFFF; fill-opacity:1.0; 
stroke:#FFFFFF; stroke-width:0; stroke-opacity:1; 
stroke-linecap:round; stroke-linejoin:round;">
<path style="fill:#FFFFFF; fill-opacity:1.0; 
stroke:#FFFFFF; stroke-width:0; stroke-opacity:1; 
stroke-linecap:round; stroke-linejoin:round;fill-rule:evenodd;"
d="M 27252.4,18023.4
27261,18024.7
27269.4,18026.8
27277.6,18029.7
27285.5,18033.5
27292.9,18037.9
27299.9,18043.1
27306.3,18048.9
27312.2,18055.4
27317.4,18062.4
27321.8,18069.8
27325.5,18077.7
27328.5,18085.9
27330.6,18094.3
27331.9,18102.9
27332.3,18111.6
27332.3,18308.4
27331.9,18317.1
27330.6,18325.7
27328.5,18334.1
27325.5,18342.3
27321.8,18350.2
27317.4,18357.6
27312.2,18364.6
27306.3,18371.1
27299.9,18376.9
27292.9,18382.1
27285.5,18386.5
27277.6,18390.3
27269.4,18393.2
27261,18395.3
27252.4,18396.6
27243.7,18397
27066.5,18397
27057.9,18396.6
27049.3,18395.3
27040.8,18393.2
27032.6,18390.3
27024.8,18386.5
27017.3,18382.1
27010.3,18376.9
27003.9,18371.1
26998.1,18364.6
26992.9,18357.6
26988.4,18350.2
26984.7,18342.3
26981.8,18334.1
26979.7,18325.7
26978.4,18317.1
26978,18308.4
26978,18111.6
26978.4,18102.9
26979.7,18094.3
26981.8,18085.9
26984.7,18077.7
26988.4,18069.8
26992.9,18062.4
26998.1,18055.4
27003.9,18048.9
27010.3,18043.1
27017.3,18037.9
27024.8,18033.5
27032.6,18029.7
27040.8,18026.8
27049.3,18024.7
27057.9,18023.4
27066.5,18023
27243.7,18023
Z" /> 
<path style="fill:#FFFFFF; fill-opacity:1.0; 
stroke:#FFFFFF; stroke-width:0; stroke-opacity:1; 
stroke-linecap:round; stroke-linejoin:round;fill-rule:evenodd;"
d="M 26642.1,18023.4
26650.7,18024.7
26659.2,18026.8
26667.4,18029.7
26675.2,18033.5
26682.7,18037.9
26689.7,18043.1
26696.1,18048.9
26701.9,18055.4
26707.1,18062.4
26711.6,18069.8
26715.3,18077.7
26718.2,18085.9
26720.3,18094.3
26721.6,18102.9
26722,18111.6
26722,18308.4
26721.6,18317.1
26720.3,18325.7
26718.2,18334.1
26715.3,18342.3
26711.6,18350.2
26707.1,18357.6
26701.9,18364.6
26696.1,18371.1
26689.7,18376.9
26682.7,18382.1
26675.2,18386.5
26667.4,18390.3
26659.2,18393.2
26650.7,18395.3
26642.1,18396.6
26633.5,18397
26456.3,18397
26447.6,18396.6
26439,18395.3
26430.6,18393.2
26422.4,18390.3
26414.5,18386.5
26407.1,18382.1
26400.1,18376.9
26393.7,18371.1
26387.8,18364.6
26382.6,18357.6
26378.2,18350.2
26374.5,18342.3
26371.5,18334.1
26369.4,18325.7
26368.1,18317.1
26367.7,18308.4
26367.7,18111.6
26368.1,18102.9
26369.4,18094.3
26371.5,18085.9
26374.5,18077.7
26378.2,18069.8
26382.6,18062.4
26387.8,18055.4
26393.7,18048.9
26400.1,18043.1
26407.1,18037.9
26414.5,18033.5
26422.4,18029.7
26430.6,18026.8
26439,18024.7
26447.6,18023.4
26456.3,18023
26633.5,18023
Z" /> 
</g>
<g >
</g>
<g style="fill:#FFFFFF; fill-opacity:1.0; 
stroke:#FFFFFF; stroke-width:0; stroke-opacity:1; 
stroke-linecap:round; stroke-linejoin:round;">
<path style="fill:#FFFFFF; fill-opacity:1.0; 
stroke:#FFFFFF; stroke-width:0; stroke-opacity:1; 
stroke-linecap:round; stroke-linejoin:round;fill-rule:evenodd;"
d="M 23156,19068.1
23163.6,19069.2
23171.1,19071.1
23178.4,19073.7
23185.4,19077
23192,19081
23198.2,19085.6
23203.9,19090.8
23209.1,19096.5
23213.7,19102.7
23217.7,19109.3
23221,19116.3
23223.6,19123.6
23225.5,19131.1
23226.6,19138.7
23227,19146.5
23227,19303.9
23226.6,19311.7
23225.5,19319.3
23223.6,19326.8
23221,19334.1
23217.7,19341.1
23213.7,19347.7
23209.1,19353.9
23203.9,19359.6
23198.2,19364.8
23192,19369.4
23185.4,19373.4
23178.4,19376.7
23171.1,19379.3
23163.6,19381.2
23156,19382.3
23148.3,19382.7
22931.7,19382.7
22924,19382.3
22916.4,19381.2
22908.9,19379.3
22901.6,19376.7
22894.6,19373.4
22888,19369.4
22881.8,19364.8
22876.1,19359.6
22870.9,19353.9
22866.3,19347.7
22862.3,19341.1
22859,19334.1
22856.4,19326.8
22854.5,19319.3
22853.4,19311.7
22853,19303.9
22853,19146.5
22853.4,19138.7
22854.5,19131.1
22856.4,19123.6
22859,19116.3
22862.3,19109.3
22866.3,19102.7
22870.9,19096.5
22876.1,19090.8
22881.8,19085.6
22888,19081
22894.6,19077
22901.6,19073.7
22908.9,19071.1
22916.4,19069.2
22924,19068.1
22931.7,19067.7
23148.3,19067.7
Z" /> 
<path style="fill:#FFFFFF; fill-opacity:1.0; 
stroke:#FFFFFF; stroke-width:0; stroke-opacity:1; 
stroke-linecap:round; stroke-linejoin:round;fill-rule:evenodd;"
d="M 23156,19717.7
23163.6,19718.8
23171.1,19720.7
23178.4,19723.3
23185.4,19726.6
23192,19730.6
23198.2,19735.2
23203.9,19740.4
23209.1,19746.1
23213.7,19752.3
23217.7,19758.9
23221,19765.9
23223.6,19773.2
23225.5,19780.7
23226.6,19788.3
23227,19796.1
23227,19953.5
23226.6,19961.3
23225.5,19968.9
23223.6,19976.4
23221,19983.7
23217.7,19990.7
23213.7,19997.3
23209.1,20003.5
23203.9,20009.2
23198.2,20014.4
23192,20019
23185.4,20023
23178.4,20026.3
23171.1,20028.9
23163.6,20030.8
23156,20031.9
23148.3,20032.3
22931.7,20032.3
22924,20031.9
22916.4,20030.8
22908.9,20028.9
22901.6,20026.3
22894.6,20023
22888,20019
22881.8,20014.4
22876.1,20009.2
22870.9,20003.5
22866.3,19997.3
22862.3,19990.7
22859,19983.7
22856.4,19976.4
22854.5,19968.9
22853.4,19961.3
22853,19953.5
22853,19796.1
22853.4,19788.3
22854.5,19780.7
22856.4,19773.2
22859,19765.9
22862.3,19758.9
22866.3,19752.3
22870.9,19746.1
22876.1,19740.4
22881.8,19735.2
22888,19730.6
22894.6,19726.6
22901.6,19723.3
22908.9,19720.7
22916.4,19718.8
22924,19717.7
22931.7,19717.3
23148.3,19717.3
Z" /> 
</g>
<g >
</g>
<g style="fill:#FFFFFF; fill-opacity:1.0; 
stroke:#FFFFFF; stroke-width:0; stroke-opacity:1; 
stroke-linecap:round; stroke-linejoin:round;">
<path style="fill:#FFFFFF; fill-opacity:1.0; 
stroke:#FFFFFF; stroke-width:0; stroke-opacity:1; 
stroke-linecap:round; stroke-linejoin:round;fill-rule:evenodd;"
d="M 23756,19068.1
23763.6,19069.2
23771.1,19071.1
23778.4,19073.7
23785.4,19077
23792,19081
23798.2,19085.6
23803.9,19090.8
23809.1,19096.5
23813.7,19102.7
23817.7,19109.3
23821,19116.3
23823.6,19123.6
23825.5,19131.1
23826.6,19138.7
23827,19146.5
23827,19303.9
23826.6,19311.7
23825.5,19319.3
23823.6,19326.8
23821,19334.1
23817.7,19341.1
23813.7,19347.7
23809.1,19353.9
23803.9,19359.6
23798.2,19364.8
23792,19369.4
23785.4,19373.4
23778.4,19376.7
23771.1,19379.3
23763.6,19381.2
23756,19382.3
23748.3,19382.7
23531.7,19382.7
23524,19382.3
23516.4,19381.2
23508.9,19379.3
23501.6,19376.7
23494.6,19373.4
23488,19369.4
23481.8,19364.8
23476.1,19359.6
23470.9,19353.9
23466.3,19347.7
23462.3,19341.1
23459,19334.1
23456.4,19326.8
23454.5,19319.3
23453.4,19311.7
23453,19303.9
23453,19146.5
23453.4,19138.7
23454.5,19131.1
23456.4,19123.6
23459,19116.3
23462.3,19109.3
23466.3,19102.7
23470.9,19096.5
23476.1,19090.8
23481.8,19085.6
23488,19081
23494.6,19077
23501.6,19073.7
23508.9,19071.1
23516.4,19069.2
23524,19068.1
23531.7,19067.7
23748.3,19067.7
Z" /> 
<path style="fill:#FFFFFF; fill-opacity:1.0; 
stroke:#FFFFFF; stroke-width:0; stroke-opacity:1; 
stroke-linecap:round; stroke-linejoin:round;fill-rule:evenodd;"
d="M 23756,19717.7
23763.6,19718.8
23771.1,19720.7
23778.4,19723.3
23785.4,19726.6
23792,19730.6
23798.2,19735.2
23803.9,19740.4
23809.1,19746.1
23813.7,19752.3
23817.7,19758.9
23821,19765.9
23823.6,19773.2
23825.5,19780.7
23826.6,19788.3
23827,19796.1
23827,19953.5
23826.6,19961.3
23825.5,19968.9
23823.6,19976.4
23821,19983.7
23817.7,19990.7
23813.7,19997.3
23809.1,20003.5
23803.9,20009.2
23798.2,20014.4
23792,20019
23785.4,20023
23778.4,20026.3
23771.1,20028.9
23763.6,20030.8
23756,20031.9
23748.3,20032.3
23531.7,20032.3
23524,20031.9
23516.4,20030.8
23508.9,20028.9
23501.6,20026.3
23494.6,20023
23488,20019
23481.8,20014.4
23476.1,20009.2
23470.9,20003.5
23466.3,19997.3
23462.3,19990.7
23459,19983.7
23456.4,19976.4
23454.5,19968.9
23453.4,19961.3
23453,19953.5
23453,19796.1
23453.4,19788.3
23454.5,19780.7
23456.4,19773.2
23459,19765.9
23462.3,19758.9
23466.3,19752.3
23470.9,19746.1
23476.1,19740.4
23481.8,19735.2
23488,19730.6
23494.6,19726.6
23501.6,19723.3
23508.9,19720.7
23516.4,19718.8
23524,19717.7
23531.7,19717.3
23748.3,19717.3
Z" /> 
</g>
<g >
</g>
<g style="fill:#FFFFFF; fill-opacity:1.0; 
stroke:#FFFFFF; stroke-width:0; stroke-opacity:1; 
stroke-linecap:round; stroke-linejoin:round;">
<path style="fill:#FFFFFF; fill-opacity:1.0; 
stroke:#FFFFFF; stroke-width:0; stroke-opacity:1; 
stroke-linecap:round; stroke-linejoin:round;fill-rule:evenodd;"
d="M 24356,19068.1
24363.6,19069.2
24371.1,19071.1
24378.4,19073.7
24385.4,19077
24392,19081
24398.2,19085.6
24403.9,19090.8
24409.1,19096.5
24413.7,19102.7
24417.7,19109.3
24421,19116.3
24423.6,19123.6
24425.5,19131.1
24426.6,19138.7
24427,19146.5
24427,19303.9
24426.6,19311.7
24425.5,19319.3
24423.6,19326.8
24421,19334.1
24417.7,19341.1
24413.7,19347.7
24409.1,19353.9
24403.9,19359.6
24398.2,19364.8
24392,19369.4
24385.4,19373.4
24378.4,19376.7
24371.1,19379.3
24363.6,19381.2
24356,19382.3
24348.3,19382.7
24131.7,19382.7
24124,19382.3
24116.4,19381.2
24108.9,19379.3
24101.6,19376.7
24094.6,19373.4
24088,19369.4
24081.8,19364.8
24076.1,19359.6
24070.9,19353.9
24066.3,19347.7
24062.3,19341.1
24059,19334.1
24056.4,19326.8
24054.5,19319.3
24053.4,19311.7
24053,19303.9
24053,19146.5
24053.4,19138.7
24054.5,19131.1
24056.4,19123.6
24059,19116.3
24062.3,19109.3
24066.3,19102.7
24070.9,19096.5
24076.1,19090.8
24081.8,19085.6
24088,19081
24094.6,19077
24101.6,19073.7
24108.9,19071.1
24116.4,19069.2
24124,19068.1
24131.7,19067.7
24348.3,19067.7
Z" /> 
<path style="fill:#FFFFFF; fill-opacity:1.0; 
stroke:#FFFFFF; stroke-width:0; stroke-opacity:1; 
stroke-linecap:round; stroke-linejoin:round;fill-rule:evenodd;"
d="M 24356,19717.7
24363.6,19718.8
24371.1,19720.7
24378.4,19723.3
24385.4,19726.6
24392,19730.6
24398.2,19735.2
24403.9,19740.4
24409.1,19746.1
24413.7,19752.3
24417.7,19758.9
24421,19765.9
24423.6,19773.2
24425.5,19780.7
24426.6,19788.3
24427,19796.1
24427,19953.5
24426.6,19961.3
24425.5,19968.9
24423.6,19976.4
24421,19983.7
24417.7,19990.7
24413.7,19997.3
24409.1,20003.5
24403.9,20009.2
24398.2,20014.4
24392,20019
24385.4,20023
24378.4,20026.3
24371.1,20028.9
24363.6,20030.8
24356,20031.9
24348.3,20032.3
24131.7,20032.3
24124,20031.9
24116.4,20030.8
24108.9,20028.9
24101.6,20026.3
24094.6,20023
24088,20019
24081.8,20014.4
24076.1,20009.2
24070.9,20003.5
24066.3,19997.3
24062.3,19990.7
24059,19983.7
24056.4,19976.4
24054.5,19968.9
24053.4,19961.3
24053,19953.5
24053,19796.1
24053.4,19788.3
24054.5,19780.7
24056.4,19773.2
24059,19765.9
24062.3,19758.9
24066.3,19752.3
24070.9,19746.1
24076.1,19740.4
24081.8,19735.2
24088,19730.6
24094.6,19726.6
24101.6,19723.3
24108.9,19720.7
24116.4,19718.8
24124,19717.7
24131.7,19717.3
24348.3,19717.3
Z" /> 
</g>
<g >
</g>
<g style="fill:#FFFFFF; fill-opacity:1.0; 
stroke:#FFFFFF; stroke-width:0; stroke-opacity:1; 
stroke-linecap:round; stroke-linejoin:round;">
<path style="fill:#FFFFFF; fill-opacity:1.0; 
stroke:#FFFFFF; stroke-width:0; stroke-opacity:1; 
stroke-linecap:round; stroke-linejoin:round;fill-rule:evenodd;"
d="M 27462.1,21295
27471.6,21296.5
27481,21298.8
27490.1,21302.1
27498.8,21306.2
27507.1,21311.2
27514.9,21316.9
27522,21323.4
27528.5,21330.6
27534.3,21338.3
27539.2,21346.6
27543.4,21355.3
27546.6,21364.4
27549,21373.8
27550.4,21383.3
27550.9,21393
27550.9,21767
27550.4,21776.7
27549,21786.2
27546.6,21795.6
27543.4,21804.7
27539.2,21813.4
27534.3,21821.7
27528.5,21829.4
27522,21836.6
27514.9,21843.1
27507.1,21848.8
27498.8,21853.8
27490.1,21857.9
27481,21861.2
27471.6,21863.5
27462.1,21865
27452.4,21865.4
27255.6,21865.4
27245.9,21865
27236.4,21863.5
27227,21861.2
27217.9,21857.9
27209.2,21853.8
27200.9,21848.8
27193.2,21843.1
27186,21836.6
27179.5,21829.4
27173.8,21821.7
27168.8,21813.4
27164.7,21804.7
27161.4,21795.6
27159.1,21786.2
27157.6,21776.7
27157.2,21767
27157.2,21393
27157.6,21383.3
27159.1,21373.8
27161.4,21364.4
27164.7,21355.3
27168.8,21346.6
27173.8,21338.3
27179.5,21330.6
27186,21323.4
27193.2,21316.9
27200.9,21311.2
27209.2,21306.2
27217.9,21302.1
27227,21298.8
27236.4,21296.5
27245.9,21295
27255.6,21294.6
27452.4,21294.6
Z" /> 
<path style="fill:#FFFFFF; fill-opacity:1.0; 
stroke:#FFFFFF; stroke-width:0; stroke-opacity:1; 
stroke-linecap:round; stroke-linejoin:round;fill-rule:evenodd;"
d="M 26714.1,21295
26723.6,21296.5
26733,21298.8
26742.1,21302.1
26750.8,21306.2
26759.1,21311.2
26766.8,21316.9
26774,21323.4
26780.5,21330.6
26786.2,21338.3
26791.2,21346.6
26795.3,21355.3
26798.6,21364.4
26800.9,21373.8
26802.4,21383.3
26802.8,21393
26802.8,21767
26802.4,21776.7
26800.9,21786.2
26798.6,21795.6
26795.3,21804.7
26791.2,21813.4
26786.2,21821.7
26780.5,21829.4
26774,21836.6
26766.8,21843.1
26759.1,21848.8
26750.8,21853.8
26742.1,21857.9
26733,21861.2
26723.6,21863.5
26714.1,21865
26704.4,21865.4
26507.6,21865.4
26497.9,21865
26488.4,21863.5
26479,21861.2
26469.9,21857.9
26461.2,21853.8
26452.9,21848.8
26445.1,21843.1
26438,21836.6
26431.5,21829.4
26425.7,21821.7
26420.8,21813.4
26416.6,21804.7
26413.4,21795.6
26411,21786.2
26409.6,21776.7
26409.1,21767
26409.1,21393
26409.6,21383.3
26411,21373.8
26413.4,21364.4
26416.6,21355.3
26420.8,21346.6
26425.7,21338.3
26431.5,21330.6
26438,21323.4
26445.1,21316.9
26452.9,21311.2
26461.2,21306.2
26469.9,21302.1
26479,21298.8
26488.4,21296.5
26497.9,21295
26507.6,21294.6
26704.4,21294.6
Z" /> 
</g>
<g >
</g>
<g style="fill:#FFFFFF; fill-opacity:1.0; 
stroke:#FFFFFF; stroke-width:0; stroke-opacity:1; 
stroke-linecap:round; stroke-linejoin:round;">
<path style="fill:#FFFFFF; fill-opacity:1.0; 
stroke:#FFFFFF; stroke-width:0; stroke-opacity:1; 
stroke-linecap:round; stroke-linejoin:round;fill-rule:evenodd;"
d="M 26277.1,13408.1
26285.7,13409.4
26294.1,13411.5
26302.3,13414.5
26310.2,13418.2
26317.6,13422.6
26324.6,13427.8
26331.1,13433.7
26336.9,13440.1
26342.1,13447.1
26346.5,13454.5
26350.3,13462.4
26353.2,13470.6
26355.3,13479
26356.6,13487.6
26357,13496.3
26357,13673.5
26356.6,13682.1
26355.3,13690.7
26353.2,13699.2
26350.3,13707.4
26346.5,13715.2
26342.1,13722.7
26336.9,13729.7
26331.1,13736.1
26324.6,13741.9
26317.6,13747.1
26310.2,13751.6
26302.3,13755.3
26294.1,13758.2
26285.7,13760.3
26277.1,13761.6
26268.4,13762
26071.6,13762
26062.9,13761.6
26054.3,13760.3
26045.9,13758.2
26037.7,13755.3
26029.8,13751.6
26022.4,13747.1
26015.4,13741.9
26008.9,13736.1
26003.1,13729.7
25997.9,13722.7
25993.5,13715.2
25989.7,13707.4
25986.8,13699.2
25984.7,13690.7
25983.4,13682.1
25983,13673.5
25983,13496.3
25983.4,13487.6
25984.7,13479
25986.8,13470.6
25989.7,13462.4
25993.5,13454.5
25997.9,13447.1
26003.1,13440.1
26008.9,13433.7
26015.4,13427.8
26022.4,13422.6
26029.8,13418.2
26037.7,13414.5
26045.9,13411.5
26054.3,13409.4
26062.9,13408.1
26071.6,13407.7
26268.4,13407.7
Z" /> 
<path style="fill:#FFFFFF; fill-opacity:1.0; 
stroke:#FFFFFF; stroke-width:0; stroke-opacity:1; 
stroke-linecap:round; stroke-linejoin:round;fill-rule:evenodd;"
d="M 26277.1,14018.4
26285.7,14019.7
26294.1,14021.8
26302.3,14024.7
26310.2,14028.4
26317.6,14032.9
26324.6,14038.1
26331.1,14043.9
26336.9,14050.3
26342.1,14057.3
26346.5,14064.8
26350.3,14072.6
26353.2,14080.8
26355.3,14089.3
26356.6,14097.9
26357,14106.5
26357,14283.7
26356.6,14292.4
26355.3,14301
26353.2,14309.4
26350.3,14317.6
26346.5,14325.5
26342.1,14332.9
26336.9,14339.9
26331.1,14346.3
26324.6,14352.2
26317.6,14357.4
26310.2,14361.8
26302.3,14365.5
26294.1,14368.5
26285.7,14370.6
26277.1,14371.9
26268.4,14372.3
26071.6,14372.3
26062.9,14371.9
26054.3,14370.6
26045.9,14368.5
26037.7,14365.5
26029.8,14361.8
26022.4,14357.4
26015.4,14352.2
26008.9,14346.3
26003.1,14339.9
25997.9,14332.9
25993.5,14325.5
25989.7,14317.6
25986.8,14309.4
25984.7,14301
25983.4,14292.4
25983,14283.7
25983,14106.5
25983.4,14097.9
25984.7,14089.3
25986.8,14080.8
25989.7,14072.6
25993.5,14064.8
25997.9,14057.3
26003.1,14050.3
26008.9,14043.9
26015.4,14038.1
26022.4,14032.9
26029.8,14028.4
26037.7,14024.7
26045.9,14021.8
26054.3,14019.7
26062.9,14018.4
26071.6,14018
26268.4,14018
Z" /> 
</g>
<g >
</g>
<g style="fill:#FFFFFF; fill-opacity:1.0; 
stroke:#FFFFFF; stroke-width:0; stroke-opacity:1; 
stroke-linecap:round; stroke-linejoin:round;">
<path style="fill:#FFFFFF; fill-opacity:1.0; 
stroke:#FFFFFF; stroke-width:0; stroke-opacity:1; 
stroke-linecap:round; stroke-linejoin:round;fill-rule:evenodd;"
d="M 22127.1,16538.1
22135.7,16539.4
22144.1,16541.5
22152.3,16544.5
22160.2,16548.2
22167.6,16552.6
22174.6,16557.8
22181.1,16563.7
22186.9,16570.1
22192.1,16577.1
22196.5,16584.5
22200.3,16592.4
22203.2,16600.6
22205.3,16609
22206.6,16617.6
22207,16626.3
22207,16803.5
22206.6,16812.1
22205.3,16820.7
22203.2,16829.2
22200.3,16837.4
22196.5,16845.2
22192.1,16852.7
22186.9,16859.7
22181.1,16866.1
22174.6,16871.9
22167.6,16877.1
22160.2,16881.6
22152.3,16885.3
22144.1,16888.2
22135.7,16890.3
22127.1,16891.6
22118.4,16892
21921.6,16892
21912.9,16891.6
21904.3,16890.3
21895.9,16888.2
21887.7,16885.3
21879.8,16881.6
21872.4,16877.1
21865.4,16871.9
21858.9,16866.1
21853.1,16859.7
21847.9,16852.7
21843.5,16845.2
21839.7,16837.4
21836.8,16829.2
21834.7,16820.7
21833.4,16812.1
21833,16803.5
21833,16626.3
21833.4,16617.6
21834.7,16609
21836.8,16600.6
21839.7,16592.4
21843.5,16584.5
21847.9,16577.1
21853.1,16570.1
21858.9,16563.7
21865.4,16557.8
21872.4,16552.6
21879.8,16548.2
21887.7,16544.5
21895.9,16541.5
21904.3,16539.4
21912.9,16538.1
21921.6,16537.7
22118.4,16537.7
Z" /> 
<path style="fill:#FFFFFF; fill-opacity:1.0; 
stroke:#FFFFFF; stroke-width:0; stroke-opacity:1; 
stroke-linecap:round; stroke-linejoin:round;fill-rule:evenodd;"
d="M 22127.1,17148.4
22135.7,17149.7
22144.1,17151.8
22152.3,17154.7
22160.2,17158.4
22167.6,17162.9
22174.6,17168.1
22181.1,17173.9
22186.9,17180.3
22192.1,17187.3
22196.5,17194.8
22200.3,17202.6
22203.2,17210.8
22205.3,17219.3
22206.6,17227.9
22207,17236.5
22207,17413.7
22206.6,17422.4
22205.3,17431
22203.2,17439.4
22200.3,17447.6
22196.5,17455.5
22192.1,17462.9
22186.9,17469.9
22181.1,17476.3
22174.6,17482.2
22167.6,17487.4
22160.2,17491.8
22152.3,17495.5
22144.1,17498.5
22135.7,17500.6
22127.1,17501.9
22118.4,17502.3
21921.6,17502.3
21912.9,17501.9
21904.3,17500.6
21895.9,17498.5
21887.7,17495.5
21879.8,17491.8
21872.4,17487.4
21865.4,17482.2
21858.9,17476.3
21853.1,17469.9
21847.9,17462.9
21843.5,17455.5
21839.7,17447.6
21836.8,17439.4
21834.7,17431
21833.4,17422.4
21833,17413.7
21833,17236.5
21833.4,17227.9
21834.7,17219.3
21836.8,17210.8
21839.7,17202.6
21843.5,17194.8
21847.9,17187.3
21853.1,17180.3
21858.9,17173.9
21865.4,17168.1
21872.4,17162.9
21879.8,17158.4
21887.7,17154.7
21895.9,17151.8
21904.3,17149.7
21912.9,17148.4
21921.6,17148
22118.4,17148
Z" /> 
</g>
<g >
</g>
<g style="fill:#FFFFFF; fill-opacity:1.0; 
stroke:#FFFFFF; stroke-width:0; stroke-opacity:1; 
stroke-linecap:round; stroke-linejoin:round;">
<path style="fill:#FFFFFF; fill-opacity:1.0; 
stroke:#FFFFFF; stroke-width:0; stroke-opacity:1; 
stroke-linecap:round; stroke-linejoin:round;fill-rule:evenodd;"
d="M 24482.4,13373.4
24491,13374.7
24499.4,13376.8
24507.6,13379.7
24515.5,13383.5
24522.9,13387.9
24529.9,13393.1
24536.3,13398.9
24542.2,13405.4
24547.4,13412.4
24551.8,13419.8
24555.5,13427.7
24558.5,13435.9
24560.6,13444.3
24561.9,13452.9
24562.3,13461.6
24562.3,13658.4
24561.9,13667.1
24560.6,13675.7
24558.5,13684.1
24555.5,13692.3
24551.8,13700.2
24547.4,13707.6
24542.2,13714.6
24536.3,13721.1
24529.9,13726.9
24522.9,13732.1
24515.5,13736.5
24507.6,13740.3
24499.4,13743.2
24491,13745.3
24482.4,13746.6
24473.7,13747
24296.5,13747
24287.9,13746.6
24279.3,13745.3
24270.8,13743.2
24262.6,13740.3
24254.8,13736.5
24247.3,13732.1
24240.3,13726.9
24233.9,13721.1
24228.1,13714.6
24222.9,13707.6
24218.4,13700.2
24214.7,13692.3
24211.8,13684.1
24209.7,13675.7
24208.4,13667.1
24208,13658.4
24208,13461.6
24208.4,13452.9
24209.7,13444.3
24211.8,13435.9
24214.7,13427.7
24218.4,13419.8
24222.9,13412.4
24228.1,13405.4
24233.9,13398.9
24240.3,13393.1
24247.3,13387.9
24254.8,13383.5
24262.6,13379.7
24270.8,13376.8
24279.3,13374.7
24287.9,13373.4
24296.5,13373
24473.7,13373
Z" /> 
<path style="fill:#FFFFFF; fill-opacity:1.0; 
stroke:#FFFFFF; stroke-width:0; stroke-opacity:1; 
stroke-linecap:round; stroke-linejoin:round;fill-rule:evenodd;"
d="M 23872.1,13373.4
23880.7,13374.7
23889.2,13376.8
23897.4,13379.7
23905.2,13383.5
23912.7,13387.9
23919.7,13393.1
23926.1,13398.9
23931.9,13405.4
23937.1,13412.4
23941.6,13419.8
23945.3,13427.7
23948.2,13435.9
23950.3,13444.3
23951.6,13452.9
23952,13461.6
23952,13658.4
23951.6,13667.1
23950.3,13675.7
23948.2,13684.1
23945.3,13692.3
23941.6,13700.2
23937.1,13707.6
23931.9,13714.6
23926.1,13721.1
23919.7,13726.9
23912.7,13732.1
23905.2,13736.5
23897.4,13740.3
23889.2,13743.2
23880.7,13745.3
23872.1,13746.6
23863.5,13747
23686.3,13747
23677.6,13746.6
23669,13745.3
23660.6,13743.2
23652.4,13740.3
23644.5,13736.5
23637.1,13732.1
23630.1,13726.9
23623.7,13721.1
23617.8,13714.6
23612.6,13707.6
23608.2,13700.2
23604.5,13692.3
23601.5,13684.1
23599.4,13675.7
23598.1,13667.1
23597.7,13658.4
23597.7,13461.6
23598.1,13452.9
23599.4,13444.3
23601.5,13435.9
23604.5,13427.7
23608.2,13419.8
23612.6,13412.4
23617.8,13405.4
23623.7,13398.9
23630.1,13393.1
23637.1,13387.9
23644.5,13383.5
23652.4,13379.7
23660.6,13376.8
23669,13374.7
23677.6,13373.4
23686.3,13373
23863.5,13373
Z" /> 
</g>
<g >
</g>
<g style="fill:#FFFFFF; fill-opacity:1.0; 
stroke:#FFFFFF; stroke-width:0; stroke-opacity:1; 
stroke-linecap:round; stroke-linejoin:round;">
<path style="fill:#FFFFFF; fill-opacity:1.0; 
stroke:#FFFFFF; stroke-width:0; stroke-opacity:1; 
stroke-linecap:round; stroke-linejoin:round;fill-rule:evenodd;"
d="M 27382.4,20793.4
27391,20794.7
27399.4,20796.8
27407.6,20799.7
27415.5,20803.5
27422.9,20807.9
27429.9,20813.1
27436.3,20818.9
27442.2,20825.4
27447.4,20832.4
27451.8,20839.8
27455.5,20847.7
27458.5,20855.9
27460.6,20864.3
27461.9,20872.9
27462.3,20881.6
27462.3,21078.4
27461.9,21087.1
27460.6,21095.7
27458.5,21104.1
27455.5,21112.3
27451.8,21120.2
27447.4,21127.6
27442.2,21134.6
27436.3,21141.1
27429.9,21146.9
27422.9,21152.1
27415.5,21156.5
27407.6,21160.3
27399.4,21163.2
27391,21165.3
27382.4,21166.6
27373.7,21167
27196.5,21167
27187.9,21166.6
27179.3,21165.3
27170.8,21163.2
27162.6,21160.3
27154.8,21156.5
27147.3,21152.1
27140.3,21146.9
27133.9,21141.1
27128.1,21134.6
27122.9,21127.6
27118.4,21120.2
27114.7,21112.3
27111.8,21104.1
27109.7,21095.7
27108.4,21087.1
27108,21078.4
27108,20881.6
27108.4,20872.9
27109.7,20864.3
27111.8,20855.9
27114.7,20847.7
27118.4,20839.8
27122.9,20832.4
27128.1,20825.4
27133.9,20818.9
27140.3,20813.1
27147.3,20807.9
27154.8,20803.5
27162.6,20799.7
27170.8,20796.8
27179.3,20794.7
27187.9,20793.4
27196.5,20793
27373.7,20793
Z" /> 
<path style="fill:#FFFFFF; fill-opacity:1.0; 
stroke:#FFFFFF; stroke-width:0; stroke-opacity:1; 
stroke-linecap:round; stroke-linejoin:round;fill-rule:evenodd;"
d="M 26772.1,20793.4
26780.7,20794.7
26789.2,20796.8
26797.4,20799.7
26805.2,20803.5
26812.7,20807.9
26819.7,20813.1
26826.1,20818.9
26831.9,20825.4
26837.1,20832.4
26841.6,20839.8
26845.3,20847.7
26848.2,20855.9
26850.3,20864.3
26851.6,20872.9
26852,20881.6
26852,21078.4
26851.6,21087.1
26850.3,21095.7
26848.2,21104.1
26845.3,21112.3
26841.6,21120.2
26837.1,21127.6
26831.9,21134.6
26826.1,21141.1
26819.7,21146.9
26812.7,21152.1
26805.2,21156.5
26797.4,21160.3
26789.2,21163.2
26780.7,21165.3
26772.1,21166.6
26763.5,21167
26586.3,21167
26577.6,21166.6
26569,21165.3
26560.6,21163.2
26552.4,21160.3
26544.5,21156.5
26537.1,21152.1
26530.1,21146.9
26523.7,21141.1
26517.8,21134.6
26512.6,21127.6
26508.2,21120.2
26504.5,21112.3
26501.5,21104.1
26499.4,21095.7
26498.1,21087.1
26497.7,21078.4
26497.7,20881.6
26498.1,20872.9
26499.4,20864.3
26501.5,20855.9
26504.5,20847.7
26508.2,20839.8
26512.6,20832.4
26517.8,20825.4
26523.7,20818.9
26530.1,20813.1
26537.1,20807.9
26544.5,20803.5
26552.4,20799.7
26560.6,20796.8
26569,20794.7
26577.6,20793.4
26586.3,20793
26763.5,20793
Z" /> 
</g>
<g >
</g>
<g style="fill:#FFFFFF; fill-opacity:1.0; 
stroke:#FFFFFF; stroke-width:0; stroke-opacity:1; 
stroke-linecap:round; stroke-linejoin:round;">
<path style="fill:#FFFFFF; fill-opacity:1.0; 
stroke:#FFFFFF; stroke-width:0; stroke-opacity:1; 
stroke-linecap:round; stroke-linejoin:round;fill-rule:evenodd;"
d="M 27862.1,18615
27871.6,18616.5
27881,18618.8
27890.1,18622.1
27898.8,18626.2
27907.1,18631.2
27914.9,18636.9
27922,18643.4
27928.5,18650.6
27934.3,18658.3
27939.2,18666.6
27943.4,18675.3
27946.6,18684.4
27949,18693.8
27950.4,18703.3
27950.9,18713
27950.9,19087
27950.4,19096.7
27949,19106.2
27946.6,19115.6
27943.4,19124.7
27939.2,19133.4
27934.3,19141.7
27928.5,19149.4
27922,19156.6
27914.9,19163.1
27907.1,19168.8
27898.8,19173.8
27890.1,19177.9
27881,19181.2
27871.6,19183.5
27862.1,19185
27852.4,19185.4
27655.6,19185.4
27645.9,19185
27636.4,19183.5
27627,19181.2
27617.9,19177.9
27609.2,19173.8
27600.9,19168.8
27593.2,19163.1
27586,19156.6
27579.5,19149.4
27573.8,19141.7
27568.8,19133.4
27564.7,19124.7
27561.4,19115.6
27559.1,19106.2
27557.6,19096.7
27557.2,19087
27557.2,18713
27557.6,18703.3
27559.1,18693.8
27561.4,18684.4
27564.7,18675.3
27568.8,18666.6
27573.8,18658.3
27579.5,18650.6
27586,18643.4
27593.2,18636.9
27600.9,18631.2
27609.2,18626.2
27617.9,18622.1
27627,18618.8
27636.4,18616.5
27645.9,18615
27655.6,18614.6
27852.4,18614.6
Z" /> 
<path style="fill:#FFFFFF; fill-opacity:1.0; 
stroke:#FFFFFF; stroke-width:0; stroke-opacity:1; 
stroke-linecap:round; stroke-linejoin:round;fill-rule:evenodd;"
d="M 27114.1,18615
27123.6,18616.5
27133,18618.8
27142.1,18622.1
27150.8,18626.2
27159.1,18631.2
27166.8,18636.9
27174,18643.4
27180.5,18650.6
27186.2,18658.3
27191.2,18666.6
27195.3,18675.3
27198.6,18684.4
27200.9,18693.8
27202.4,18703.3
27202.8,18713
27202.8,19087
27202.4,19096.7
27200.9,19106.2
27198.6,19115.6
27195.3,19124.7
27191.2,19133.4
27186.2,19141.7
27180.5,19149.4
27174,19156.6
27166.8,19163.1
27159.1,19168.8
27150.8,19173.8
27142.1,19177.9
27133,19181.2
27123.6,19183.5
27114.1,19185
27104.4,19185.4
26907.6,19185.4
26897.9,19185
26888.4,19183.5
26879,19181.2
26869.9,19177.9
26861.2,19173.8
26852.9,19168.8
26845.1,19163.1
26838,19156.6
26831.5,19149.4
26825.7,19141.7
26820.8,19133.4
26816.6,19124.7
26813.4,19115.6
26811,19106.2
26809.6,19096.7
26809.1,19087
26809.1,18713
26809.6,18703.3
26811,18693.8
26813.4,18684.4
26816.6,18675.3
26820.8,18666.6
26825.7,18658.3
26831.5,18650.6
26838,18643.4
26845.1,18636.9
26852.9,18631.2
26861.2,18626.2
26869.9,18622.1
26879,18618.8
26888.4,18616.5
26897.9,18615
26907.6,18614.6
27104.4,18614.6
Z" /> 
</g>
<g >
</g>
<g style="fill:#FFFFFF; fill-opacity:1.0; 
stroke:#FFFFFF; stroke-width:0; stroke-opacity:1; 
stroke-linecap:round; stroke-linejoin:round;">
<path style="fill:#FFFFFF; fill-opacity:1.0; 
stroke:#FFFFFF; stroke-width:0; stroke-opacity:1; 
stroke-linecap:round; stroke-linejoin:round;fill-rule:evenodd;"
d="M 25704.9,19493.6
25714.5,19495
25723.8,19497.4
25732.9,19500.6
25741.7,19504.8
25750,19509.7
25757.7,19515.5
25764.9,19522
25771.4,19529.1
25777.1,19536.9
25782.1,19545.2
25786.2,19553.9
25789.5,19563
25791.8,19572.4
25793.2,19581.9
25793.7,19591.6
25793.7,19788.4
25793.2,19798.1
25791.8,19807.6
25789.5,19817
25786.2,19826.1
25782.1,19834.8
25777.1,19843.1
25771.4,19850.9
25764.9,19858
25757.7,19864.5
25750,19870.3
25741.7,19875.2
25732.9,19879.4
25723.8,19882.6
25714.5,19885
25704.9,19886.4
25695.3,19886.9
25104.7,19886.9
25095.1,19886.4
25085.5,19885
25076.2,19882.6
25067.1,19879.4
25058.3,19875.2
25050,19870.3
25042.3,19864.5
25035.1,19858
25028.6,19850.9
25022.9,19843.1
25017.9,19834.8
25013.8,19826.1
25010.5,19817
25008.2,19807.6
25006.8,19798.1
25006.3,19788.4
25006.3,19591.6
25006.8,19581.9
25008.2,19572.4
25010.5,19563
25013.8,19553.9
25017.9,19545.2
25022.9,19536.9
25028.6,19529.1
25035.1,19522
25042.3,19515.5
25050,19509.7
25058.3,19504.8
25067.1,19500.6
25076.2,19497.4
25085.5,19495
25095.1,19493.6
25104.7,19493.1
25695.3,19493.1
Z" /> 
<path style="fill:#FFFFFF; fill-opacity:1.0; 
stroke:#FFFFFF; stroke-width:0; stroke-opacity:1; 
stroke-linecap:round; stroke-linejoin:round;fill-rule:evenodd;"
d="M 25704.9,20458.2
25714.5,20459.6
25723.8,20462
25732.9,20465.2
25741.7,20469.3
25750,20474.3
25757.7,20480.1
25764.9,20486.5
25771.4,20493.7
25777.1,20501.5
25782.1,20509.7
25786.2,20518.5
25789.5,20527.6
25791.8,20536.9
25793.2,20546.5
25793.7,20556.1
25793.7,20753
25793.2,20762.6
25791.8,20772.2
25789.5,20781.6
25786.2,20790.7
25782.1,20799.4
25777.1,20807.7
25771.4,20815.4
25764.9,20822.6
25757.7,20829.1
25750,20834.8
25741.7,20839.8
25732.9,20843.9
25723.8,20847.2
25714.5,20849.5
25704.9,20850.9
25695.3,20851.4
25104.7,20851.4
25095.1,20850.9
25085.5,20849.5
25076.2,20847.2
25067.1,20843.9
25058.3,20839.8
25050,20834.8
25042.3,20829.1
25035.1,20822.6
25028.6,20815.4
25022.9,20807.7
25017.9,20799.4
25013.8,20790.7
25010.5,20781.6
25008.2,20772.2
25006.8,20762.6
25006.3,20753
25006.3,20556.1
25006.8,20546.5
25008.2,20536.9
25010.5,20527.6
25013.8,20518.5
25017.9,20509.7
25022.9,20501.5
25028.6,20493.7
25035.1,20486.5
25042.3,20480.1
25050,20474.3
25058.3,20469.3
25067.1,20465.2
25076.2,20462
25085.5,20459.6
25095.1,20458.2
25104.7,20457.7
25695.3,20457.7
Z" /> 
<path style="fill:#FFFFFF; fill-opacity:1.0; 
stroke:#FFFFFF; stroke-width:0; stroke-opacity:1; 
stroke-linecap:round; stroke-linejoin:round;fill-rule:evenodd;"
d="M 25704.9,18529.1
25714.5,18530.5
25723.8,18532.8
25732.9,18536.1
25741.7,18540.2
25750,18545.2
25757.7,18550.9
25764.9,18557.4
25771.4,18564.6
25777.1,18572.3
25782.1,18580.6
25786.2,18589.3
25789.5,18598.4
25791.8,18607.8
25793.2,18617.4
25793.7,18627
25793.7,18823.9
25793.2,18833.5
25791.8,18843.1
25789.5,18852.4
25786.2,18861.5
25782.1,18870.3
25777.1,18878.5
25771.4,18886.3
25764.9,18893.5
25757.7,18899.9
25750,18905.7
25741.7,18910.7
25732.9,18914.8
25723.8,18918
25714.5,18920.4
25704.9,18921.8
25695.3,18922.3
25104.7,18922.3
25095.1,18921.8
25085.5,18920.4
25076.2,18918
25067.1,18914.8
25058.3,18910.7
25050,18905.7
25042.3,18899.9
25035.1,18893.5
25028.6,18886.3
25022.9,18878.5
25017.9,18870.3
25013.8,18861.5
25010.5,18852.4
25008.2,18843.1
25006.8,18833.5
25006.3,18823.9
25006.3,18627
25006.8,18617.4
25008.2,18607.8
25010.5,18598.4
25013.8,18589.3
25017.9,18580.6
25022.9,18572.3
25028.6,18564.6
25035.1,18557.4
25042.3,18550.9
25050,18545.2
25058.3,18540.2
25067.1,18536.1
25076.2,18532.8
25085.5,18530.5
25095.1,18529.1
25104.7,18528.6
25695.3,18528.6
Z" /> 
</g>
<g >
</g>
<g >
</g>
<g style="fill:#FFFFFF; fill-opacity:1.0; 
stroke:#FFFFFF; stroke-width:0; stroke-opacity:1; 
stroke-linecap:round; stroke-linejoin:round;">
<path style="fill:#FFFFFF; fill-opacity:1.0; 
stroke:#FFFFFF; stroke-width:0; stroke-opacity:1; 
stroke-linecap:round; stroke-linejoin:round;fill-rule:evenodd;"
d="M 25836.7,14906.5
25836.7,14808.1
26348.5,14808.1
26348.5,14906.5
Z" /> 
<path style="fill:#FFFFFF; fill-opacity:1.0; 
stroke:#FFFFFF; stroke-width:0; stroke-opacity:1; 
stroke-linecap:round; stroke-linejoin:round;fill-rule:evenodd;"
d="M 25836.7,15103.4
25836.7,15005
26348.5,15005
26348.5,15103.4
Z" /> 
<path style="fill:#FFFFFF; fill-opacity:1.0; 
stroke:#FFFFFF; stroke-width:0; stroke-opacity:1; 
stroke-linecap:round; stroke-linejoin:round;fill-rule:evenodd;"
d="M 25836.7,15300.2
25836.7,15201.8
26348.5,15201.8
26348.5,15300.2
Z" /> 
<path style="fill:#FFFFFF; fill-opacity:1.0; 
stroke:#FFFFFF; stroke-width:0; stroke-opacity:1; 
stroke-linecap:round; stroke-linejoin:round;fill-rule:evenodd;"
d="M 25836.7,15497.1
25836.7,15398.7
26348.5,15398.7
26348.5,15497.1
Z" /> 
<path style="fill:#FFFFFF; fill-opacity:1.0; 
stroke:#FFFFFF; stroke-width:0; stroke-opacity:1; 
stroke-linecap:round; stroke-linejoin:round;fill-rule:evenodd;"
d="M 25836.7,15693.9
25836.7,15595.5
26348.5,15595.5
26348.5,15693.9
Z" /> 
<path style="fill:#FFFFFF; fill-opacity:1.0; 
stroke:#FFFFFF; stroke-width:0; stroke-opacity:1; 
stroke-linecap:round; stroke-linejoin:round;fill-rule:evenodd;"
d="M 25836.7,15890.8
25836.7,15792.4
26348.5,15792.4
26348.5,15890.8
Z" /> 
<path style="fill:#FFFFFF; fill-opacity:1.0; 
stroke:#FFFFFF; stroke-width:0; stroke-opacity:1; 
stroke-linecap:round; stroke-linejoin:round;fill-rule:evenodd;"
d="M 25836.7,16087.6
25836.7,15989.2
26348.5,15989.2
26348.5,16087.6
Z" /> 
<path style="fill:#FFFFFF; fill-opacity:1.0; 
stroke:#FFFFFF; stroke-width:0; stroke-opacity:1; 
stroke-linecap:round; stroke-linejoin:round;fill-rule:evenodd;"
d="M 25836.7,16284.5
25836.7,16186.1
26348.5,16186.1
26348.5,16284.5
Z" /> 
<path style="fill:#FFFFFF; fill-opacity:1.0; 
stroke:#FFFFFF; stroke-width:0; stroke-opacity:1; 
stroke-linecap:round; stroke-linejoin:round;fill-rule:evenodd;"
d="M 25836.7,16481.3
25836.7,16382.9
26348.5,16382.9
26348.5,16481.3
Z" /> 
<path style="fill:#FFFFFF; fill-opacity:1.0; 
stroke:#FFFFFF; stroke-width:0; stroke-opacity:1; 
stroke-linecap:round; stroke-linejoin:round;fill-rule:evenodd;"
d="M 25836.7,16678.2
25836.7,16579.8
26348.5,16579.8
26348.5,16678.2
Z" /> 
<path style="fill:#FFFFFF; fill-opacity:1.0; 
stroke:#FFFFFF; stroke-width:0; stroke-opacity:1; 
stroke-linecap:round; stroke-linejoin:round;fill-rule:evenodd;"
d="M 25836.7,16875
25836.7,16776.6
26348.5,16776.6
26348.5,16875
Z" /> 
<path style="fill:#FFFFFF; fill-opacity:1.0; 
stroke:#FFFFFF; stroke-width:0; stroke-opacity:1; 
stroke-linecap:round; stroke-linejoin:round;fill-rule:evenodd;"
d="M 25836.7,17071.9
25836.7,16973.5
26348.5,16973.5
26348.5,17071.9
Z" /> 
<path style="fill:#FFFFFF; fill-opacity:1.0; 
stroke:#FFFFFF; stroke-width:0; stroke-opacity:1; 
stroke-linecap:round; stroke-linejoin:round;fill-rule:evenodd;"
d="M 25413.5,17396.7
25511.9,17396.7
25511.9,17908.5
25413.5,17908.5
Z" /> 
<path style="fill:#FFFFFF; fill-opacity:1.0; 
stroke:#FFFFFF; stroke-width:0; stroke-opacity:1; 
stroke-linecap:round; stroke-linejoin:round;fill-rule:evenodd;"
d="M 25216.6,17396.7
25315,17396.7
25315,17908.5
25216.6,17908.5
Z" /> 
<path style="fill:#FFFFFF; fill-opacity:1.0; 
stroke:#FFFFFF; stroke-width:0; stroke-opacity:1; 
stroke-linecap:round; stroke-linejoin:round;fill-rule:evenodd;"
d="M 25019.8,17396.7
25118.2,17396.7
25118.2,17908.5
25019.8,17908.5
Z" /> 
<path style="fill:#FFFFFF; fill-opacity:1.0; 
stroke:#FFFFFF; stroke-width:0; stroke-opacity:1; 
stroke-linecap:round; stroke-linejoin:round;fill-rule:evenodd;"
d="M 24822.9,17396.7
24921.3,17396.7
24921.3,17908.5
24822.9,17908.5
Z" /> 
<path style="fill:#FFFFFF; fill-opacity:1.0; 
stroke:#FFFFFF; stroke-width:0; stroke-opacity:1; 
stroke-linecap:round; stroke-linejoin:round;fill-rule:evenodd;"
d="M 24626.1,17396.7
24724.5,17396.7
24724.5,17908.5
24626.1,17908.5
Z" /> 
<path style="fill:#FFFFFF; fill-opacity:1.0; 
stroke:#FFFFFF; stroke-width:0; stroke-opacity:1; 
stroke-linecap:round; stroke-linejoin:round;fill-rule:evenodd;"
d="M 24429.2,17396.7
24527.6,17396.7
24527.6,17908.5
24429.2,17908.5
Z" /> 
<path style="fill:#FFFFFF; fill-opacity:1.0; 
stroke:#FFFFFF; stroke-width:0; stroke-opacity:1; 
stroke-linecap:round; stroke-linejoin:round;fill-rule:evenodd;"
d="M 24232.4,17396.7
24330.8,17396.7
24330.8,17908.5
24232.4,17908.5
Z" /> 
<path style="fill:#FFFFFF; fill-opacity:1.0; 
stroke:#FFFFFF; stroke-width:0; stroke-opacity:1; 
stroke-linecap:round; stroke-linejoin:round;fill-rule:evenodd;"
d="M 24035.5,17396.7
24133.9,17396.7
24133.9,17908.5
24035.5,17908.5
Z" /> 
<path style="fill:#FFFFFF; fill-opacity:1.0; 
stroke:#FFFFFF; stroke-width:0; stroke-opacity:1; 
stroke-linecap:round; stroke-linejoin:round;fill-rule:evenodd;"
d="M 23838.7,17396.7
23937.1,17396.7
23937.1,17908.5
23838.7,17908.5
Z" /> 
<path style="fill:#FFFFFF; fill-opacity:1.0; 
stroke:#FFFFFF; stroke-width:0; stroke-opacity:1; 
stroke-linecap:round; stroke-linejoin:round;fill-rule:evenodd;"
d="M 23641.8,17396.7
23740.2,17396.7
23740.2,17908.5
23641.8,17908.5
Z" /> 
<path style="fill:#FFFFFF; fill-opacity:1.0; 
stroke:#FFFFFF; stroke-width:0; stroke-opacity:1; 
stroke-linecap:round; stroke-linejoin:round;fill-rule:evenodd;"
d="M 23445,17396.7
23543.4,17396.7
23543.4,17908.5
23445,17908.5
Z" /> 
<path style="fill:#FFFFFF; fill-opacity:1.0; 
stroke:#FFFFFF; stroke-width:0; stroke-opacity:1; 
stroke-linecap:round; stroke-linejoin:round;fill-rule:evenodd;"
d="M 23248.1,17396.7
23346.5,17396.7
23346.5,17908.5
23248.1,17908.5
Z" /> 
<path style="fill:#FFFFFF; fill-opacity:1.0; 
stroke:#FFFFFF; stroke-width:0; stroke-opacity:1; 
stroke-linecap:round; stroke-linejoin:round;fill-rule:evenodd;"
d="M 22411.5,17071.9
22411.5,16973.5
22923.3,16973.5
22923.3,17071.9
Z" /> 
<path style="fill:#FFFFFF; fill-opacity:1.0; 
stroke:#FFFFFF; stroke-width:0; stroke-opacity:1; 
stroke-linecap:round; stroke-linejoin:round;fill-rule:evenodd;"
d="M 22411.5,16875
22411.5,16776.6
22923.3,16776.6
22923.3,16875
Z" /> 
<path style="fill:#FFFFFF; fill-opacity:1.0; 
stroke:#FFFFFF; stroke-width:0; stroke-opacity:1; 
stroke-linecap:round; stroke-linejoin:round;fill-rule:evenodd;"
d="M 22411.5,16678.2
22411.5,16579.8
22923.3,16579.8
22923.3,16678.2
Z" /> 
<path style="fill:#FFFFFF; fill-opacity:1.0; 
stroke:#FFFFFF; stroke-width:0; stroke-opacity:1; 
stroke-linecap:round; stroke-linejoin:round;fill-rule:evenodd;"
d="M 22411.5,16481.3
22411.5,16382.9
22923.3,16382.9
22923.3,16481.3
Z" /> 
<path style="fill:#FFFFFF; fill-opacity:1.0; 
stroke:#FFFFFF; stroke-width:0; stroke-opacity:1; 
stroke-linecap:round; stroke-linejoin:round;fill-rule:evenodd;"
d="M 22411.5,16284.5
22411.5,16186.1
22923.3,16186.1
22923.3,16284.5
Z" /> 
<path style="fill:#FFFFFF; fill-opacity:1.0; 
stroke:#FFFFFF; stroke-width:0; stroke-opacity:1; 
stroke-linecap:round; stroke-linejoin:round;fill-rule:evenodd;"
d="M 22411.5,16087.6
22411.5,15989.2
22923.3,15989.2
22923.3,16087.6
Z" /> 
<path style="fill:#FFFFFF; fill-opacity:1.0; 
stroke:#FFFFFF; stroke-width:0; stroke-opacity:1; 
stroke-linecap:round; stroke-linejoin:round;fill-rule:evenodd;"
d="M 22411.5,15890.8
22411.5,15792.4
22923.3,15792.4
22923.3,15890.8
Z" /> 
<path style="fill:#FFFFFF; fill-opacity:1.0; 
stroke:#FFFFFF; stroke-width:0; stroke-opacity:1; 
stroke-linecap:round; stroke-linejoin:round;fill-rule:evenodd;"
d="M 22411.5,15693.9
22411.5,15595.5
22923.3,15595.5
22923.3,15693.9
Z" /> 
<path style="fill:#FFFFFF; fill-opacity:1.0; 
stroke:#FFFFFF; stroke-width:0; stroke-opacity:1; 
stroke-linecap:round; stroke-linejoin:round;fill-rule:evenodd;"
d="M 22411.5,15497.1
22411.5,15398.7
22923.3,15398.7
22923.3,15497.1
Z" /> 
<path style="fill:#FFFFFF; fill-opacity:1.0; 
stroke:#FFFFFF; stroke-width:0; stroke-opacity:1; 
stroke-linecap:round; stroke-linejoin:round;fill-rule:evenodd;"
d="M 22411.5,15300.2
22411.5,15201.8
22923.3,15201.8
22923.3,15300.2
Z" /> 
<path style="fill:#FFFFFF; fill-opacity:1.0; 
stroke:#FFFFFF; stroke-width:0; stroke-opacity:1; 
stroke-linecap:round; stroke-linejoin:round;fill-rule:evenodd;"
d="M 22411.5,15103.4
22411.5,15005
22923.3,15005
22923.3,15103.4
Z" /> 
<path style="fill:#FFFFFF; fill-opacity:1.0; 
stroke:#FFFFFF; stroke-width:0; stroke-opacity:1; 
stroke-linecap:round; stroke-linejoin:round;fill-rule:evenodd;"
d="M 22411.5,14906.5
22411.5,14808.1
22923.3,14808.1
22923.3,14906.5
Z" /> 
<path style="fill:#FFFFFF; fill-opacity:1.0; 
stroke:#FFFFFF; stroke-width:0; stroke-opacity:1; 
stroke-linecap:round; stroke-linejoin:round;fill-rule:evenodd;"
d="M 23248.1,13971.5
23346.5,13971.5
23346.5,14483.3
23248.1,14483.3
Z" /> 
<path style="fill:#FFFFFF; fill-opacity:1.0; 
stroke:#FFFFFF; stroke-width:0; stroke-opacity:1; 
stroke-linecap:round; stroke-linejoin:round;fill-rule:evenodd;"
d="M 23445,13971.5
23543.4,13971.5
23543.4,14483.3
23445,14483.3
Z" /> 
<path style="fill:#FFFFFF; fill-opacity:1.0; 
stroke:#FFFFFF; stroke-width:0; stroke-opacity:1; 
stroke-linecap:round; stroke-linejoin:round;fill-rule:evenodd;"
d="M 23641.8,13971.5
23740.2,13971.5
23740.2,14483.3
23641.8,14483.3
Z" /> 
<path style="fill:#FFFFFF; fill-opacity:1.0; 
stroke:#FFFFFF; stroke-width:0; stroke-opacity:1; 
stroke-linecap:round; stroke-linejoin:round;fill-rule:evenodd;"
d="M 23838.7,13971.5
23937.1,13971.5
23937.1,14483.3
23838.7,14483.3
Z" /> 
<path style="fill:#FFFFFF; fill-opacity:1.0; 
stroke:#FFFFFF; stroke-width:0; stroke-opacity:1; 
stroke-linecap:round; stroke-linejoin:round;fill-rule:evenodd;"
d="M 24035.5,13971.5
24133.9,13971.5
24133.9,14483.3
24035.5,14483.3
Z" /> 
<path style="fill:#FFFFFF; fill-opacity:1.0; 
stroke:#FFFFFF; stroke-width:0; stroke-opacity:1; 
stroke-linecap:round; stroke-linejoin:round;fill-rule:evenodd;"
d="M 24232.4,13971.5
24330.8,13971.5
24330.8,14483.3
24232.4,14483.3
Z" /> 
<path style="fill:#FFFFFF; fill-opacity:1.0; 
stroke:#FFFFFF; stroke-width:0; stroke-opacity:1; 
stroke-linecap:round; stroke-linejoin:round;fill-rule:evenodd;"
d="M 24429.2,13971.5
24527.6,13971.5
24527.6,14483.3
24429.2,14483.3
Z" /> 
<path style="fill:#FFFFFF; fill-opacity:1.0; 
stroke:#FFFFFF; stroke-width:0; stroke-opacity:1; 
stroke-linecap:round; stroke-linejoin:round;fill-rule:evenodd;"
d="M 24626.1,13971.5
24724.5,13971.5
24724.5,14483.3
24626.1,14483.3
Z" /> 
<path style="fill:#FFFFFF; fill-opacity:1.0; 
stroke:#FFFFFF; stroke-width:0; stroke-opacity:1; 
stroke-linecap:round; stroke-linejoin:round;fill-rule:evenodd;"
d="M 24822.9,13971.5
24921.3,13971.5
24921.3,14483.3
24822.9,14483.3
Z" /> 
<path style="fill:#FFFFFF; fill-opacity:1.0; 
stroke:#FFFFFF; stroke-width:0; stroke-opacity:1; 
stroke-linecap:round; stroke-linejoin:round;fill-rule:evenodd;"
d="M 25019.8,13971.5
25118.2,13971.5
25118.2,14483.3
25019.8,14483.3
Z" /> 
<path style="fill:#FFFFFF; fill-opacity:1.0; 
stroke:#FFFFFF; stroke-width:0; stroke-opacity:1; 
stroke-linecap:round; stroke-linejoin:round;fill-rule:evenodd;"
d="M 25216.6,13971.5
25315,13971.5
25315,14483.3
25216.6,14483.3
Z" /> 
<path style="fill:#FFFFFF; fill-opacity:1.0; 
stroke:#FFFFFF; stroke-width:0; stroke-opacity:1; 
stroke-linecap:round; stroke-linejoin:round;fill-rule:evenodd;"
d="M 25413.5,13971.5
25511.9,13971.5
25511.9,14483.3
25413.5,14483.3
Z" /> 
</g>
<g >
</g>
<g style="fill:#FFFFFF; fill-opacity:1.0; 
stroke:#FFFFFF; stroke-width:0; stroke-opacity:1; 
stroke-linecap:round; stroke-linejoin:round;">
<path style="fill:#FFFFFF; fill-opacity:1.0; 
stroke:#FFFFFF; stroke-width:0; stroke-opacity:1; 
stroke-linecap:round; stroke-linejoin:round;fill-rule:evenodd;"
d="M 26862.5,20196.5
27177.5,20196.5
27177.5,20550.9
26862.5,20550.9
Z" /> 
<path style="fill:#FFFFFF; fill-opacity:1.0; 
stroke:#FFFFFF; stroke-width:0; stroke-opacity:1; 
stroke-linecap:round; stroke-linejoin:round;fill-rule:evenodd;"
d="M 26488.5,19409.1
26803.5,19409.1
26803.5,19763.5
26488.5,19763.5
Z" /> 
<path style="fill:#FFFFFF; fill-opacity:1.0; 
stroke:#FFFFFF; stroke-width:0; stroke-opacity:1; 
stroke-linecap:round; stroke-linejoin:round;fill-rule:evenodd;"
d="M 27236.5,19409.1
27551.5,19409.1
27551.5,19763.5
27236.5,19763.5
Z" /> 
</g>
<g >
</g>
<g style="fill:#FFFFFF; fill-opacity:1.0; 
stroke:#FFFFFF; stroke-width:0; stroke-opacity:1; 
stroke-linecap:round; stroke-linejoin:round;">
<path style="fill:#FFFFFF; fill-opacity:1.0; 
stroke:#FFFFFF; stroke-width:0; stroke-opacity:1; 
stroke-linecap:round; stroke-linejoin:round;fill-rule:evenodd;"
d="M 21775.3,19473.7
21184.7,19473.7
21184.7,18686.3
21775.3,18686.3
Z" /> 
</g>
<g >
</g>
<g style="fill:#FFFFFF; fill-opacity:1.0; 
stroke:#FFFFFF; stroke-width:0; stroke-opacity:1; 
stroke-linecap:round; stroke-linejoin:round;">
</g>
<g style="fill:#FFFFFF; fill-opacity:1.0; 
stroke:#FFFFFF; stroke-width:748.031; stroke-opacity:1; 
stroke-linecap:round; stroke-linejoin:round;">
</g>
<g style="fill:#FFFFFF; fill-opacity:0.0; 
stroke:#FFFFFF; stroke-width:748.031; stroke-opacity:1; 
stroke-linecap:round; stroke-linejoin:round;">
<path d="M22355 22468
L22355 23098
" />
<path d="M26844 22468
L26844 23098
" />
</g>
<g style="fill:#FFFFFF; fill-opacity:0.0; 
stroke:#FFFFFF; stroke-width:0; stroke-opacity:1; 
stroke-linecap:round; stroke-linejoin:round;">
</g>
<g style="fill:#FFFFFF; fill-opacity:1.0; 
stroke:#FFFFFF; stroke-width:0; stroke-opacity:1; 
stroke-linecap:round; stroke-linejoin:round;">
<path style="fill:#FFFFFF; fill-opacity:1.0; 
stroke:#FFFFFF; stroke-width:0; stroke-opacity:1; 
stroke-linecap:round; stroke-linejoin:round;fill-rule:evenodd;"
d="M 23005.5,21208.7
23438.6,21208.7
23438.6,22192.9
23005.5,22192.9
Z" /> 
<path style="fill:#FFFFFF; fill-opacity:1.0; 
stroke:#FFFFFF; stroke-width:0; stroke-opacity:1; 
stroke-linecap:round; stroke-linejoin:round;fill-rule:evenodd;"
d="M 25761.4,21208.7
26194.5,21208.7
26194.5,22192.9
25761.4,22192.9
Z" /> 
<path style="fill:#FFFFFF; fill-opacity:1.0; 
stroke:#FFFFFF; stroke-width:0; stroke-opacity:1; 
stroke-linecap:round; stroke-linejoin:round;fill-rule:evenodd;"
d="M 23989.8,21208.7
24422.8,21208.7
24422.8,22192.9
23989.8,22192.9
Z" /> 
<path style="fill:#FFFFFF; fill-opacity:1.0; 
stroke:#FFFFFF; stroke-width:0; stroke-opacity:1; 
stroke-linecap:round; stroke-linejoin:round;fill-rule:evenodd;"
d="M 24777.2,21208.7
25210.2,21208.7
25210.2,22192.9
24777.2,22192.9
Z" /> 
</g>
<g >
</g>
<g style="fill:#FFFFFF; fill-opacity:1.0; 
stroke:#FFFFFF; stroke-width:0; stroke-opacity:1; 
stroke-linecap:round; stroke-linejoin:round;">
<circle cx="27749.6" cy="14265.2" r="334.646" /> 
</g>
<g style="fill:#FFFFFF; fill-opacity:1.0; 
stroke:#FFFFFF; stroke-width:7.87402; stroke-opacity:1; 
stroke-linecap:round; stroke-linejoin:round;">
</g>
<g style="fill:#FFFFFF; fill-opacity:1.0; 
stroke:#FFFFFF; stroke-width:0; stroke-opacity:1; 
stroke-linecap:round; stroke-linejoin:round;">
<circle cx="27749.6" cy="15840" r="334.646" /> 
</g>
<g style="fill:#FFFFFF; fill-opacity:1.0; 
stroke:#FFFFFF; stroke-width:7.87402; stroke-opacity:1; 
stroke-linecap:round; stroke-linejoin:round;">
</g>
<g style="fill:#FFFFFF; fill-opacity:1.0; 
stroke:#FFFFFF; stroke-width:0; stroke-opacity:1; 
stroke-linecap:round; stroke-linejoin:round;">
<circle cx="27749.6" cy="13477.8" r="334.646" /> 
</g>
<g style="fill:#FFFFFF; fill-opacity:1.0; 
stroke:#FFFFFF; stroke-width:7.87402; stroke-opacity:1; 
stroke-linecap:round; stroke-linejoin:round;">
</g>
<g style="fill:#FFFFFF; fill-opacity:1.0; 
stroke:#FFFFFF; stroke-width:0; stroke-opacity:1; 
stroke-linecap:round; stroke-linejoin:round;">
<circle cx="21450.4" cy="15052.6" r="334.646" /> 
</g>
<g style="fill:#FFFFFF; fill-opacity:1.0; 
stroke:#FFFFFF; stroke-width:7.87402; stroke-opacity:1; 
stroke-linecap:round; stroke-linejoin:round;">
</g>
<g style="fill:#FFFFFF; fill-opacity:1.0; 
stroke:#FFFFFF; stroke-width:0; stroke-opacity:1; 
stroke-linecap:round; stroke-linejoin:round;">
<circle cx="21450.4" cy="13477.8" r="334.646" /> 
</g>
<g style="fill:#FFFFFF; fill-opacity:1.0; 
stroke:#FFFFFF; stroke-width:7.87402; stroke-opacity:1; 
stroke-linecap:round; stroke-linejoin:round;">
</g>
<g style="fill:#FFFFFF; fill-opacity:1.0; 
stroke:#FFFFFF; stroke-width:0; stroke-opacity:1; 
stroke-linecap:round; stroke-linejoin:round;">
<circle cx="21450.4" cy="14265.2" r="334.646" /> 
</g>
<g style="fill:#FFFFFF; fill-opacity:1.0; 
stroke:#FFFFFF; stroke-width:7.87402; stroke-opacity:1; 
stroke-linecap:round; stroke-linejoin:round;">
</g>
<g style="fill:#FFFFFF; fill-opacity:1.0; 
stroke:#FFFFFF; stroke-width:0; stroke-opacity:1; 
stroke-linecap:round; stroke-linejoin:round;">
<circle cx="21450.4" cy="16627.4" r="334.646" /> 
</g>
<g style="fill:#FFFFFF; fill-opacity:1.0; 
stroke:#FFFFFF; stroke-width:7.87402; stroke-opacity:1; 
stroke-linecap:round; stroke-linejoin:round;">
</g>
<g style="fill:#FFFFFF; fill-opacity:1.0; 
stroke:#FFFFFF; stroke-width:0; stroke-opacity:1; 
stroke-linecap:round; stroke-linejoin:round;">
<circle cx="27749.6" cy="18202.2" r="334.646" /> 
</g>
<g style="fill:#FFFFFF; fill-opacity:1.0; 
stroke:#FFFFFF; stroke-width:7.87402; stroke-opacity:1; 
stroke-linecap:round; stroke-linejoin:round;">
</g>
<g style="fill:#FFFFFF; fill-opacity:1.0; 
stroke:#FFFFFF; stroke-width:0; stroke-opacity:1; 
stroke-linecap:round; stroke-linejoin:round;">
<circle cx="21450.4" cy="17414.8" r="334.646" /> 
</g>
<g style="fill:#FFFFFF; fill-opacity:1.0; 
stroke:#FFFFFF; stroke-width:7.87402; stroke-opacity:1; 
stroke-linecap:round; stroke-linejoin:round;">
</g>
<g style="fill:#FFFFFF; fill-opacity:1.0; 
stroke:#FFFFFF; stroke-width:0; stroke-opacity:1; 
stroke-linecap:round; stroke-linejoin:round;">
<circle cx="27749.6" cy="16627.4" r="334.646" /> 
</g>
<g style="fill:#FFFFFF; fill-opacity:1.0; 
stroke:#FFFFFF; stroke-width:7.87402; stroke-opacity:1; 
stroke-linecap:round; stroke-linejoin:round;">
</g>
<g style="fill:#FFFFFF; fill-opacity:1.0; 
stroke:#FFFFFF; stroke-width:0; stroke-opacity:1; 
stroke-linecap:round; stroke-linejoin:round;">
<circle cx="27749.6" cy="17414.8" r="334.646" /> 
</g>
<g style="fill:#FFFFFF; fill-opacity:1.0; 
stroke:#FFFFFF; stroke-width:7.87402; stroke-opacity:1; 
stroke-linecap:round; stroke-linejoin:round;">
</g>
<g style="fill:#FFFFFF; fill-opacity:1.0; 
stroke:#FFFFFF; stroke-width:0; stroke-opacity:1; 
stroke-linecap:round; stroke-linejoin:round;">
<circle cx="21450.4" cy="15840" r="334.646" /> 
</g>
<g style="fill:#FFFFFF; fill-opacity:1.0; 
stroke:#FFFFFF; stroke-width:7.87402; stroke-opacity:1; 
stroke-linecap:round; stroke-linejoin:round;">
</g>
<g style="fill:#FFFFFF; fill-opacity:1.0; 
stroke:#FFFFFF; stroke-width:0; stroke-opacity:1; 
stroke-linecap:round; stroke-linejoin:round;">
<circle cx="21450.4" cy="18202.2" r="334.646" /> 
</g>
<g style="fill:#FFFFFF; fill-opacity:1.0; 
stroke:#FFFFFF; stroke-width:7.87402; stroke-opacity:1; 
stroke-linecap:round; stroke-linejoin:round;">
</g>
<g >
</g>
<g style="fill:#FFFFFF; fill-opacity:1.0; 
stroke:#FFFFFF; stroke-width:7.87402; stroke-opacity:1; 
stroke-linecap:round; stroke-linejoin:round;">
</g>
<g style="fill:#FFFFFF; fill-opacity:1.0; 
stroke:#FFFFFF; stroke-width:100; stroke-opacity:1; 
stroke-linecap:round; stroke-linejoin:round;">
</g>
<g style="fill:#FFFFFF; fill-opacity:0.0; 
stroke:#FFFFFF; stroke-width:100; stroke-opacity:1; 
stroke-linecap:round; stroke-linejoin:round;">
<path d="M23290 14004
L23290 13226
" />
<path d="M23290 13226
L23624 12892
" />
<path d="M23297 14011
L23290 14004
" />
<path d="M23297 14227
L23297 14011
" />
<path d="M26778 12892
L27185 13299
" />
<path d="M23624 12892
L26778 12892
" />
<path d="M27185 13299
L27185 14205
" />
<path d="M27245 14265
L27749 14265
" />
<path d="M27185 14205
L27245 14265
" />
<path d="M27290 15840
L27749 15840
" />
<path d="M27006 15776
L27070 15840
" />
<path d="M27006 13373
L27006 15776
" />
<path d="M26704 13071
L27006 13373
" />
<path d="M27070 15840
L27749 15840
" />
<path d="M23698 13071
L26704 13071
" />
<path d="M23468 13301
L23698 13071
" />
<path d="M23468 13930
L23468 13301
" />
<path d="M23494 13955
L23468 13930
" />
<path d="M23494 14227
L23494 13955
" />
<path d="M23410 14960
L22610 14160
" />
<path d="M23410 15280
L23410 14960
" />
<path d="M23242 15447
L23410 15280
" />
<path d="M22667 15447
L23242 15447
" />
<path d="M27749 13477
L27749 13009
" />
<path d="M27749 13009
L27453 12713
" />
<path d="M23526 12713
L22610 13630
" />
<path d="M27453 12713
L23526 12713
" />
<path d="M22610 14160
L22610 13630
" />
<path d="M22034 15644
L22667 15644
" />
<path d="M21970 15580
L22034 15644
" />
<path d="M21970 15100
L21970 15580
" />
<path d="M21922 15052
L21970 15100
" />
<path d="M21450 15052
L21922 15052
" />
<path d="M21937 13477
L21450 13477
" />
<path d="M22287 13477
L21450 13477
" />
<path d="M22380 13570
L22287 13477
" />
<path d="M22380 14317
L22380 13570
" />
<path d="M22667 14604
L22380 14317
" />
<path d="M22667 14857
L22667 14604
" />
<path d="M21805 14265
L21450 14265
" />
<path d="M22667 15251
L22199 15251
" />
<path d="M22148 15200
L22148 14338
" />
<path d="M22199 15251
L22148 15200
" />
<path d="M22075 14265
L21450 14265
" />
<path d="M22148 14338
L22075 14265
" />
</g>
<g style="fill:#FFFFFF; fill-opacity:0.0; 
stroke:#FFFFFF; stroke-width:196.85; stroke-opacity:1; 
stroke-linecap:round; stroke-linejoin:round;">
<path d="M22355 22783
L22355 21744
" />
<path d="M22399 21700
L23222 21700
" />
<path d="M22355 21744
L22399 21700
" />
<path d="M22355 22783
L22355 22855
" />
<path d="M27424 20750
L27374 20800
" />
<path d="M27600 20574
L27374 20800
" />
<path d="M26844 22783
L27016 22783
" />
<path d="M27374 22425
L27374 21550
" />
<path d="M27016 22783
L27374 22425
" />
<path d="M27374 21550
L27374 20800
" />
</g>
<g style="fill:#FFFFFF; fill-opacity:0.0; 
stroke:#FFFFFF; stroke-width:100; stroke-opacity:1; 
stroke-linecap:round; stroke-linejoin:round;">
<path d="M22130 16825
L22020 16714
" />
<path d="M22667 16825
L22130 16825
" />
<path d="M21537 16714
L21450 16627
" />
<path d="M22020 16714
L21537 16714
" />
</g>
<g style="fill:#FFFFFF; fill-opacity:0.0; 
stroke:#FFFFFF; stroke-width:196.85; stroke-opacity:1; 
stroke-linecap:round; stroke-linejoin:round;">
<path d="M27754 18206
L27749 18202
" />
<path d="M27754 18900
L27754 18206
" />
</g>
<g style="fill:#FFFFFF; fill-opacity:0.0; 
stroke:#FFFFFF; stroke-width:100; stroke-opacity:1; 
stroke-linecap:round; stroke-linejoin:round;">
<path d="M27749 18202
L27302 18202
" />
</g>
<g style="fill:#FFFFFF; fill-opacity:0.0; 
stroke:#FFFFFF; stroke-width:196.85; stroke-opacity:1; 
stroke-linecap:round; stroke-linejoin:round;">
<path d="M27754 20420
L27600 20574
" />
<path d="M27394 19586
L27746 19586
" />
<path d="M27746 19586
L27754 19594
" />
<path d="M27754 19594
L27754 20420
" />
<path d="M27754 18900
L27754 19594
" />
</g>
<g style="fill:#FFFFFF; fill-opacity:0.0; 
stroke:#FFFFFF; stroke-width:118.11; stroke-opacity:1; 
stroke-linecap:round; stroke-linejoin:round;">
<path d="M25625 16825
L25560 16760
" />
<path d="M25774 16825
L25625 16825
" />
<path d="M26092 16825
L25774 16825
" />
</g>
<g style="fill:#FFFFFF; fill-opacity:0.0; 
stroke:#FFFFFF; stroke-width:100; stroke-opacity:1; 
stroke-linecap:round; stroke-linejoin:round;">
<path d="M24084 13860
L24385 13560
" />
<path d="M24084 14227
L24084 13860
" />
</g>
<g style="fill:#FFFFFF; fill-opacity:0.0; 
stroke:#FFFFFF; stroke-width:118.11; stroke-opacity:1; 
stroke-linecap:round; stroke-linejoin:round;">
<path d="M25560 16760
L25560 15710
" />
</g>
<g style="fill:#FFFFFF; fill-opacity:0.0; 
stroke:#FFFFFF; stroke-width:100; stroke-opacity:1; 
stroke-linecap:round; stroke-linejoin:round;">
<path d="M26640 15570
L26640 15230
" />
<path d="M26640 15230
L26640 15150
" />
<path d="M26624 15054
L26640 15070
" />
<path d="M26640 15230
L26640 15070
" />
<path d="M25220 18310
L25265 18264
" />
<path d="M25350 19700
L24820 19700
" />
<path d="M24820 19700
L24780 19660
" />
<path d="M24780 19660
L24780 18450
" />
<path d="M24780 18450
L24880 18350
" />
<path d="M25180 18350
L25265 18264
" />
<path d="M24880 18350
L25180 18350
" />
</g>
<g style="fill:#FFFFFF; fill-opacity:0.0; 
stroke:#FFFFFF; stroke-width:118.11; stroke-opacity:1; 
stroke-linecap:round; stroke-linejoin:round;">
<path d="M27162 18202
L27155 18210
" />
<path d="M27749 18202
L27162 18202
" />
<path d="M25265 18174
L25755 18174
" />
</g>
<g style="fill:#FFFFFF; fill-opacity:0.0; 
stroke:#FFFFFF; stroke-width:100; stroke-opacity:1; 
stroke-linecap:round; stroke-linejoin:round;">
<path d="M25265 18264
L25265 18174
" />
<path d="M25265 18174
L25265 17652
" />
</g>
<g style="fill:#FFFFFF; fill-opacity:0.0; 
stroke:#FFFFFF; stroke-width:118.11; stroke-opacity:1; 
stroke-linecap:round; stroke-linejoin:round;">
<path d="M25755 18174
L25850 18080
" />
<path d="M25850 18080
L25850 17410
" />
<path d="M25560 17120
L25560 16760
" />
<path d="M25850 17410
L25560 17120
" />
<path d="M25265 14227
L25265 13684
" />
<path d="M25365 13584
L26170 13584
" />
<path d="M25265 13684
L25365 13584
" />
<path d="M26640 15070
L26640 13700
" />
<path d="M26524 13584
L26170 13584
" />
<path d="M26640 13700
L26524 13584
" />
<path d="M26092 15644
L26565 15644
" />
<path d="M26640 15570
L26565 15644
" />
<path d="M26640 15070
L26640 15570
" />
<path d="M26092 15054
L26624 15054
" />
<path d="M25625 15644
L25560 15710
" />
<path d="M26092 15644
L25625 15644
" />
<path d="M26092 16825
L26555 16825
" />
<path d="M26555 16825
L26640 16910
" />
<path d="M26640 16910
L26640 17385
" />
<path d="M26640 17385
L26857 17602
" />
<path d="M26857 17602
L27032 17602
" />
<path d="M27155 17725
L27155 18210
" />
<path d="M27032 17602
L27155 17725
" />
</g>
<g style="fill:#FFFFFF; fill-opacity:0.0; 
stroke:#FFFFFF; stroke-width:196.85; stroke-opacity:1; 
stroke-linecap:round; stroke-linejoin:round;">
<path d="M22355 22783
L22355 23615
" />
<path d="M22355 23615
L22560 23820
" />
<path d="M22560 23820
L26640 23820
" />
<path d="M26844 23615
L26844 22783
" />
<path d="M26640 23820
L26844 23615
" />
</g>
<g style="fill:#FFFFFF; fill-opacity:0.0; 
stroke:#FFFFFF; stroke-width:118.11; stroke-opacity:1; 
stroke-linecap:round; stroke-linejoin:round;">
<path d="M25265 14227
L25265 14874
" />
<path d="M25265 14874
L25190 14950
" />
<path d="M25190 14950
L24160 14950
" />
<path d="M24084 14874
L24084 14227
" />
<path d="M24160 14950
L24084 14874
" />
</g>
<g style="fill:#FFFFFF; fill-opacity:0.0; 
stroke:#FFFFFF; stroke-width:100; stroke-opacity:1; 
stroke-linecap:round; stroke-linejoin:round;">
<path d="M21540 17325
L21450 17414
" />
<path d="M22020 17325
L21540 17325
" />
</g>
<g style="fill:#FFFFFF; fill-opacity:0.0; 
stroke:#FFFFFF; stroke-width:118.11; stroke-opacity:1; 
stroke-linecap:round; stroke-linejoin:round;">
<path d="M23637 17022
L22667 17022
" />
<path d="M23887 16772
L23637 17022
" />
<path d="M22667 17192
L22667 17022
" />
</g>
<g style="fill:#FFFFFF; fill-opacity:0.0; 
stroke:#FFFFFF; stroke-width:100; stroke-opacity:1; 
stroke-linecap:round; stroke-linejoin:round;">
<path d="M23887 13672
L23774 13560
" />
<path d="M23887 14227
L23887 13672
" />
</g>
<g style="fill:#FFFFFF; fill-opacity:0.0; 
stroke:#FFFFFF; stroke-width:118.11; stroke-opacity:1; 
stroke-linecap:round; stroke-linejoin:round;">
<path d="M23887 15557
L23887 16772
" />
<path d="M23887 14227
L23887 15557
" />
</g>
<g style="fill:#FFFFFF; fill-opacity:0.0; 
stroke:#FFFFFF; stroke-width:100; stroke-opacity:1; 
stroke-linecap:round; stroke-linejoin:round;">
<path d="M25500 22159
L25500 21140
" />
<path d="M25960 21020
L26092 20887
" />
</g>
<g style="fill:#FFFFFF; fill-opacity:0.0; 
stroke:#FFFFFF; stroke-width:118.11; stroke-opacity:1; 
stroke-linecap:round; stroke-linejoin:round;">
<path d="M27020 18914
L27005 18900
" />
<path d="M27020 20373
L27020 18914
" />
<path d="M26180 18900
L26092 18987
" />
<path d="M26083 20896
L25960 21020
" />
<path d="M26180 18900
L26083 18996
" />
<path d="M26083 18996
L26083 20146
" />
<path d="M26083 20146
L26083 20896
" />
<path d="M26544 18795
L26440 18900
" />
<path d="M26544 18210
L26544 18795
" />
<path d="M26440 18900
L26180 18900
" />
<path d="M27005 18900
L26440 18900
" />
<path d="M27005 18900
L26180 18900
" />
</g>
<g style="fill:#FFFFFF; fill-opacity:0.0; 
stroke:#FFFFFF; stroke-width:100; stroke-opacity:1; 
stroke-linecap:round; stroke-linejoin:round;">
<path d="M24938 16772
L23887 16772
" />
</g>
<g style="fill:#FFFFFF; fill-opacity:0.0; 
stroke:#FFFFFF; stroke-width:118.11; stroke-opacity:1; 
stroke-linecap:round; stroke-linejoin:round;">
<path d="M25028 15557
L23887 15557
" />
<path d="M25462 15124
L25028 15557
" />
<path d="M22645 17325
L22667 17347
" />
<path d="M22020 17325
L22645 17325
" />
<path d="M22667 17022
L22667 17347
" />
<path d="M26092 14272
L26170 14195
" />
<path d="M26092 14857
L26092 14272
" />
<path d="M25494 14195
L25462 14227
" />
<path d="M26170 14195
L25494 14195
" />
<path d="M25620 21020
L25500 21140
" />
<path d="M25960 21020
L25620 21020
" />
<path d="M25960 22713
L25960 23210
" />
<path d="M25960 23210
L25940 23230
" />
<path d="M25500 22253
L25960 22713
" />
<path d="M25500 21140
L25500 22253
" />
<path d="M25940 23230
L24930 23230
" />
<path d="M23010 20690
L22667 20347
" />
<path d="M23520 20690
L23010 20690
" />
<path d="M23720 20890
L23520 20690
" />
<path d="M23720 22233
L23720 20890
" />
<path d="M23210 22743
L23720 22233
" />
<path d="M23210 23110
L23210 22743
" />
<path d="M23330 23230
L23210 23110
" />
<path d="M24930 23230
L23330 23230
" />
</g>
<g style="fill:#FFFFFF; fill-opacity:0.0; 
stroke:#FFFFFF; stroke-width:100; stroke-opacity:1; 
stroke-linecap:round; stroke-linejoin:round;">
<path d="M25462 17288
L25372 17197
" />
<path d="M25462 17652
L25462 17288
" />
<path d="M25372 17197
L25372 16922
" />
<path d="M25222 16772
L24938 16772
" />
<path d="M25372 16922
L25222 16772
" />
</g>
<g style="fill:#FFFFFF; fill-opacity:0.0; 
stroke:#FFFFFF; stroke-width:118.11; stroke-opacity:1; 
stroke-linecap:round; stroke-linejoin:round;">
<path d="M25477 14857
L25462 14842
" />
<path d="M25462 14842
L25462 15124
" />
<path d="M26092 14857
L25477 14857
" />
<path d="M25462 14227
L25462 14842
" />
<path d="M22699 19225
L22667 19257
" />
<path d="M23040 19225
L22699 19225
" />
<path d="M22667 19257
L22667 17347
" />
<path d="M22667 20347
L22667 19257
" />
</g>
<g style="fill:#FFFFFF; fill-opacity:0.0; 
stroke:#FFFFFF; stroke-width:196.85; stroke-opacity:1; 
stroke-linecap:round; stroke-linejoin:round;">
<path d="M26627 20801
L26625 20800
" />
<path d="M26625 20800
L26398 20572
" />
<path d="M26625 20800
L26625 21550
" />
<path d="M26128 21550
L25977 21700
" />
<path d="M26625 21550
L26128 21550
" />
<path d="M26645 19586
L26393 19586
" />
<path d="M26393 19586
L26320 19660
" />
<path d="M26320 20494
L26398 20572
" />
<path d="M26320 19660
L26320 20494
" />
</g>
<g style="fill:#FFFFFF; fill-opacity:0.0; 
stroke:#FFFFFF; stroke-width:100; stroke-opacity:1; 
stroke-linecap:round; stroke-linejoin:round;">
<path d="M27572 16450
L27749 16627
" />
<path d="M24691 13855
L24675 13871
" />
<path d="M24691 13328
L24691 13855
" />
<path d="M24770 13250
L24691 13328
" />
<path d="M24675 13871
L24675 14227
" />
<path d="M26630 13250
L24770 13250
" />
<path d="M26827 16427
L26827 13447
" />
<path d="M27027 16627
L26827 16427
" />
<path d="M26827 13447
L26630 13250
" />
<path d="M27749 16627
L27027 16627
" />
<path d="M26092 16628
L26748 16628
" />
<path d="M26748 16628
L26830 16710
" />
<path d="M26830 16710
L26830 17310
" />
<path d="M26934 17414
L27749 17414
" />
<path d="M26830 17310
L26934 17414
" />
<path d="M21451 15841
L21450 15840
" />
<path d="M22667 15841
L21451 15841
" />
</g>
<g style="fill:#FFFFFF; fill-opacity:0.0; 
stroke:#FFFFFF; stroke-width:196.85; stroke-opacity:1; 
stroke-linecap:round; stroke-linejoin:round;">
<path d="M21450 18202
L21450 18202
" />
<path d="M21450 19080
L21450 18202
" />
<path d="M24240 21735
L24206 21700
" />
</g>
<g style="fill:#FFFFFF; fill-opacity:0.0; 
stroke:#FFFFFF; stroke-width:118.11; stroke-opacity:1; 
stroke-linecap:round; stroke-linejoin:round;">
<path d="M24206 20984
L24206 21700
" />
<path d="M23580 20358
L24206 20984
" />
<path d="M23580 19874
L23580 20358
" />
<path d="M23640 19874
L23040 19874
" />
<path d="M24993 21700
L24993 21233
" />
<path d="M24993 21083
L24993 21700
" />
<path d="M24880 20970
L24993 21083
" />
<path d="M24180 20520
L24630 20970
" />
<path d="M24180 19874
L24180 20520
" />
<path d="M24630 20970
L24880 20970
" />
</g>
<g style="fill:#FFFFFF; fill-opacity:0.0; 
stroke:#FFFFFF; stroke-width:100; stroke-opacity:1; 
stroke-linecap:round; stroke-linejoin:round;">
<path d="M24675 17652
L24675 18049
" />
<path d="M24675 18049
L24352 18371
" />
<path d="M24180 18544
L24352 18371
" />
<path d="M24180 19225
L24180 18544
" />
<path d="M23580 19225
L23580 18870
" />
<path d="M24084 18365
L24065 18385
" />
<path d="M24084 17652
L24084 18365
" />
<path d="M23580 18870
L24065 18385
" />
<path d="M24084 17652
L24084 17245
" />
<path d="M24084 17245
L24160 17170
" />
<path d="M24160 17170
L24800 17170
" />
<path d="M24872 17242
L24872 17652
" />
<path d="M24800 17170
L24872 17242
" />
<path d="M25400 20654
L24754 20654
" />
<path d="M24754 20654
L24601 20501
" />
<path d="M24601 18375
L24805 18171
" />
<path d="M24601 20501
L24601 18375
" />
<path d="M24805 18171
L24978 18171
" />
<path d="M25068 18081
L25068 17652
" />
<path d="M24978 18171
L25068 18081
" />
<path d="M26092 17022
L26092 18597
" />
<path d="M25954 18735
L25350 18735
" />
<path d="M26092 18597
L25954 18735
" />
</g>
<g >
</g>
</g> 
</svg>
