<?xml version="1.0" standalone="no"?>
 <!DOCTYPE svg PUBLIC "-//W3C//DTD SVG 1.1//EN" 
 "http://www.w3.org/Graphics/SVG/1.1/DTD/svg11.dtd"> 
<svg
  xmlns:svg="http://www.w3.org/2000/svg"
  xmlns="http://www.w3.org/2000/svg"
  xmlns:xlink="http://www.w3.org/1999/xlink"
  version="1.1"
  width="29.700220cm" height="21.000720cm" viewBox="0 0 116930 82680">
<title>SVG Picture created as rfm_to_usb-F_Cu.svg date 2021/06/09 23:00:43 </title>
  <desc>Picture generated by PCBNEW </desc>
<g style="fill:#000000; fill-opacity:1;stroke:#000000; stroke-opacity:1;
stroke-linecap:round; stroke-linejoin:round;"
 transform="translate(0 0) scale(1 1)">
</g>
<g style="fill:#000000; fill-opacity:0.0; 
stroke:#000000; stroke-width:-0.000393701; stroke-opacity:1; 
stroke-linecap:round; stroke-linejoin:round;">
</g>
<g style="fill:#000000; fill-opacity:1.0; 
stroke:#000000; stroke-width:7.87402; stroke-opacity:1; 
stroke-linecap:round; stroke-linejoin:round;">
<rect x="18395.9" y="9888.23" width="11928.3" height="22078.3" rx="0" />
</g>
<g style="fill:#FFFFFF; fill-opacity:1.0; 
stroke:#FFFFFF; stroke-width:7.87402; stroke-opacity:1; 
stroke-linecap:round; stroke-linejoin:round;">
<g >
</g>
<g style="fill:#FFFFFF; fill-opacity:1.0; 
stroke:#FFFFFF; stroke-width:0; stroke-opacity:1; 
stroke-linecap:round; stroke-linejoin:round;">
<path style="fill:#FFFFFF; fill-opacity:1.0; 
stroke:#FFFFFF; stroke-width:0; stroke-opacity:1; 
stroke-linecap:round; stroke-linejoin:round;fill-rule:evenodd;"
d="M 25021.3,22403.4
25028.9,22404.5
25036.4,22406.4
25043.7,22409
25050.7,22412.3
25057.3,22416.3
25063.5,22420.9
25069.2,22426.1
25074.4,22431.8
25079,22438
25083,22444.6
25086.3,22451.6
25088.9,22458.9
25090.8,22466.4
25091.9,22474
25092.3,22481.7
25092.3,22698.3
25091.9,22706
25090.8,22713.6
25088.9,22721.1
25086.3,22728.4
25083,22735.4
25079,22742
25074.4,22748.2
25069.2,22753.9
25063.5,22759.1
25057.3,22763.7
25050.7,22767.7
25043.7,22771
25036.4,22773.6
25028.9,22775.5
25021.3,22776.6
25013.5,22777
24856.1,22777
24848.3,22776.6
24840.7,22775.5
24833.2,22773.6
24825.9,22771
24818.9,22767.7
24812.3,22763.7
24806.1,22759.1
24800.4,22753.9
24795.2,22748.2
24790.6,22742
24786.6,22735.4
24783.3,22728.4
24780.7,22721.1
24778.8,22713.6
24777.7,22706
24777.3,22698.3
24777.3,22481.7
24777.7,22474
24778.8,22466.4
24780.7,22458.9
24783.3,22451.6
24786.6,22444.6
24790.6,22438
24795.2,22431.8
24800.4,22426.1
24806.1,22420.9
24812.3,22416.3
24818.9,22412.3
24825.9,22409
24833.2,22406.4
24840.7,22404.5
24848.3,22403.4
24856.1,22403
25013.5,22403
Z" /> 
<path style="fill:#FFFFFF; fill-opacity:1.0; 
stroke:#FFFFFF; stroke-width:0; stroke-opacity:1; 
stroke-linecap:round; stroke-linejoin:round;fill-rule:evenodd;"
d="M 24371.7,22403.4
24379.3,22404.5
24386.8,22406.4
24394.1,22409
24401.1,22412.3
24407.7,22416.3
24413.9,22420.9
24419.6,22426.1
24424.8,22431.8
24429.4,22438
24433.4,22444.6
24436.7,22451.6
24439.3,22458.9
24441.2,22466.4
24442.3,22474
24442.7,22481.7
24442.7,22698.3
24442.3,22706
24441.2,22713.6
24439.3,22721.1
24436.7,22728.4
24433.4,22735.4
24429.4,22742
24424.8,22748.2
24419.6,22753.9
24413.9,22759.1
24407.7,22763.7
24401.1,22767.7
24394.1,22771
24386.8,22773.6
24379.3,22775.5
24371.7,22776.6
24363.9,22777
24206.5,22777
24198.7,22776.6
24191.1,22775.5
24183.6,22773.6
24176.3,22771
24169.3,22767.7
24162.7,22763.7
24156.5,22759.1
24150.8,22753.9
24145.6,22748.2
24141,22742
24137,22735.4
24133.7,22728.4
24131.1,22721.1
24129.2,22713.6
24128.1,22706
24127.7,22698.3
24127.7,22481.7
24128.1,22474
24129.2,22466.4
24131.1,22458.9
24133.7,22451.6
24137,22444.6
24141,22438
24145.6,22431.8
24150.8,22426.1
24156.5,22420.9
24162.7,22416.3
24169.3,22412.3
24176.3,22409
24183.6,22406.4
24191.1,22404.5
24198.7,22403.4
24206.5,22403
24363.9,22403
Z" /> 
</g>
<g >
</g>
<g style="fill:#FFFFFF; fill-opacity:1.0; 
stroke:#FFFFFF; stroke-width:0; stroke-opacity:1; 
stroke-linecap:round; stroke-linejoin:round;">
<path style="fill:#FFFFFF; fill-opacity:1.0; 
stroke:#FFFFFF; stroke-width:0; stroke-opacity:1; 
stroke-linecap:round; stroke-linejoin:round;fill-rule:evenodd;"
d="M 23696,19068.1
23703.6,19069.2
23711.1,19071.1
23718.4,19073.7
23725.4,19077
23732,19081
23738.2,19085.6
23743.9,19090.8
23749.1,19096.5
23753.7,19102.7
23757.7,19109.3
23761,19116.3
23763.6,19123.6
23765.5,19131.1
23766.6,19138.7
23767,19146.5
23767,19303.9
23766.6,19311.7
23765.5,19319.3
23763.6,19326.8
23761,19334.1
23757.7,19341.1
23753.7,19347.7
23749.1,19353.9
23743.9,19359.6
23738.2,19364.8
23732,19369.4
23725.4,19373.4
23718.4,19376.7
23711.1,19379.3
23703.6,19381.2
23696,19382.3
23688.3,19382.7
23471.7,19382.7
23464,19382.3
23456.4,19381.2
23448.9,19379.3
23441.6,19376.7
23434.6,19373.4
23428,19369.4
23421.8,19364.8
23416.1,19359.6
23410.9,19353.9
23406.3,19347.7
23402.3,19341.1
23399,19334.1
23396.4,19326.8
23394.5,19319.3
23393.4,19311.7
23393,19303.9
23393,19146.5
23393.4,19138.7
23394.5,19131.1
23396.4,19123.6
23399,19116.3
23402.3,19109.3
23406.3,19102.7
23410.9,19096.5
23416.1,19090.8
23421.8,19085.6
23428,19081
23434.6,19077
23441.6,19073.7
23448.9,19071.1
23456.4,19069.2
23464,19068.1
23471.7,19067.7
23688.3,19067.7
Z" /> 
<path style="fill:#FFFFFF; fill-opacity:1.0; 
stroke:#FFFFFF; stroke-width:0; stroke-opacity:1; 
stroke-linecap:round; stroke-linejoin:round;fill-rule:evenodd;"
d="M 23696,19717.7
23703.6,19718.8
23711.1,19720.7
23718.4,19723.3
23725.4,19726.6
23732,19730.6
23738.2,19735.2
23743.9,19740.4
23749.1,19746.1
23753.7,19752.3
23757.7,19758.9
23761,19765.9
23763.6,19773.2
23765.5,19780.7
23766.6,19788.3
23767,19796.1
23767,19953.5
23766.6,19961.3
23765.5,19968.9
23763.6,19976.4
23761,19983.7
23757.7,19990.7
23753.7,19997.3
23749.1,20003.5
23743.9,20009.2
23738.2,20014.4
23732,20019
23725.4,20023
23718.4,20026.3
23711.1,20028.9
23703.6,20030.8
23696,20031.9
23688.3,20032.3
23471.7,20032.3
23464,20031.9
23456.4,20030.8
23448.9,20028.9
23441.6,20026.3
23434.6,20023
23428,20019
23421.8,20014.4
23416.1,20009.2
23410.9,20003.5
23406.3,19997.3
23402.3,19990.7
23399,19983.7
23396.4,19976.4
23394.5,19968.9
23393.4,19961.3
23393,19953.5
23393,19796.1
23393.4,19788.3
23394.5,19780.7
23396.4,19773.2
23399,19765.9
23402.3,19758.9
23406.3,19752.3
23410.9,19746.1
23416.1,19740.4
23421.8,19735.2
23428,19730.6
23434.6,19726.6
23441.6,19723.3
23448.9,19720.7
23456.4,19718.8
23464,19717.7
23471.7,19717.3
23688.3,19717.3
Z" /> 
</g>
<g >
</g>
<g style="fill:#FFFFFF; fill-opacity:1.0; 
stroke:#FFFFFF; stroke-width:0; stroke-opacity:1; 
stroke-linecap:round; stroke-linejoin:round;">
<path style="fill:#FFFFFF; fill-opacity:1.0; 
stroke:#FFFFFF; stroke-width:0; stroke-opacity:1; 
stroke-linecap:round; stroke-linejoin:round;fill-rule:evenodd;"
d="M 24296,19068.1
24303.6,19069.2
24311.1,19071.1
24318.4,19073.7
24325.4,19077
24332,19081
24338.2,19085.6
24343.9,19090.8
24349.1,19096.5
24353.7,19102.7
24357.7,19109.3
24361,19116.3
24363.6,19123.6
24365.5,19131.1
24366.6,19138.7
24367,19146.5
24367,19303.9
24366.6,19311.7
24365.5,19319.3
24363.6,19326.8
24361,19334.1
24357.7,19341.1
24353.7,19347.7
24349.1,19353.9
24343.9,19359.6
24338.2,19364.8
24332,19369.4
24325.4,19373.4
24318.4,19376.7
24311.1,19379.3
24303.6,19381.2
24296,19382.3
24288.3,19382.7
24071.7,19382.7
24064,19382.3
24056.4,19381.2
24048.9,19379.3
24041.6,19376.7
24034.6,19373.4
24028,19369.4
24021.8,19364.8
24016.1,19359.6
24010.9,19353.9
24006.3,19347.7
24002.3,19341.1
23999,19334.1
23996.4,19326.8
23994.5,19319.3
23993.4,19311.7
23993,19303.9
23993,19146.5
23993.4,19138.7
23994.5,19131.1
23996.4,19123.6
23999,19116.3
24002.3,19109.3
24006.3,19102.7
24010.9,19096.5
24016.1,19090.8
24021.8,19085.6
24028,19081
24034.6,19077
24041.6,19073.7
24048.9,19071.1
24056.4,19069.2
24064,19068.1
24071.7,19067.7
24288.3,19067.7
Z" /> 
<path style="fill:#FFFFFF; fill-opacity:1.0; 
stroke:#FFFFFF; stroke-width:0; stroke-opacity:1; 
stroke-linecap:round; stroke-linejoin:round;fill-rule:evenodd;"
d="M 24296,19717.7
24303.6,19718.8
24311.1,19720.7
24318.4,19723.3
24325.4,19726.6
24332,19730.6
24338.2,19735.2
24343.9,19740.4
24349.1,19746.1
24353.7,19752.3
24357.7,19758.9
24361,19765.9
24363.6,19773.2
24365.5,19780.7
24366.6,19788.3
24367,19796.1
24367,19953.5
24366.6,19961.3
24365.5,19968.9
24363.6,19976.4
24361,19983.7
24357.7,19990.7
24353.7,19997.3
24349.1,20003.5
24343.9,20009.2
24338.2,20014.4
24332,20019
24325.4,20023
24318.4,20026.3
24311.1,20028.9
24303.6,20030.8
24296,20031.9
24288.3,20032.3
24071.7,20032.3
24064,20031.9
24056.4,20030.8
24048.9,20028.9
24041.6,20026.3
24034.6,20023
24028,20019
24021.8,20014.4
24016.1,20009.2
24010.9,20003.5
24006.3,19997.3
24002.3,19990.7
23999,19983.7
23996.4,19976.4
23994.5,19968.9
23993.4,19961.3
23993,19953.5
23993,19796.1
23993.4,19788.3
23994.5,19780.7
23996.4,19773.2
23999,19765.9
24002.3,19758.9
24006.3,19752.3
24010.9,19746.1
24016.1,19740.4
24021.8,19735.2
24028,19730.6
24034.6,19726.6
24041.6,19723.3
24048.9,19720.7
24056.4,19718.8
24064,19717.7
24071.7,19717.3
24288.3,19717.3
Z" /> 
</g>
<g >
</g>
<g style="fill:#FFFFFF; fill-opacity:1.0; 
stroke:#FFFFFF; stroke-width:0; stroke-opacity:1; 
stroke-linecap:round; stroke-linejoin:round;">
<path style="fill:#FFFFFF; fill-opacity:1.0; 
stroke:#FFFFFF; stroke-width:0; stroke-opacity:1; 
stroke-linecap:round; stroke-linejoin:round;fill-rule:evenodd;"
d="M 27462.1,21295
27471.6,21296.5
27481,21298.8
27490.1,21302.1
27498.8,21306.2
27507.1,21311.2
27514.9,21316.9
27522,21323.4
27528.5,21330.6
27534.3,21338.3
27539.2,21346.6
27543.4,21355.3
27546.6,21364.4
27549,21373.8
27550.4,21383.3
27550.9,21393
27550.9,21767
27550.4,21776.7
27549,21786.2
27546.6,21795.6
27543.4,21804.7
27539.2,21813.4
27534.3,21821.7
27528.5,21829.4
27522,21836.6
27514.9,21843.1
27507.1,21848.8
27498.8,21853.8
27490.1,21857.9
27481,21861.2
27471.6,21863.5
27462.1,21865
27452.4,21865.4
27255.6,21865.4
27245.9,21865
27236.4,21863.5
27227,21861.2
27217.9,21857.9
27209.2,21853.8
27200.9,21848.8
27193.2,21843.1
27186,21836.6
27179.5,21829.4
27173.8,21821.7
27168.8,21813.4
27164.7,21804.7
27161.4,21795.6
27159.1,21786.2
27157.6,21776.7
27157.2,21767
27157.2,21393
27157.6,21383.3
27159.1,21373.8
27161.4,21364.4
27164.7,21355.3
27168.8,21346.6
27173.8,21338.3
27179.5,21330.6
27186,21323.4
27193.2,21316.9
27200.9,21311.2
27209.2,21306.2
27217.9,21302.1
27227,21298.8
27236.4,21296.5
27245.9,21295
27255.6,21294.6
27452.4,21294.6
Z" /> 
<path style="fill:#FFFFFF; fill-opacity:1.0; 
stroke:#FFFFFF; stroke-width:0; stroke-opacity:1; 
stroke-linecap:round; stroke-linejoin:round;fill-rule:evenodd;"
d="M 26714.1,21295
26723.6,21296.5
26733,21298.8
26742.1,21302.1
26750.8,21306.2
26759.1,21311.2
26766.8,21316.9
26774,21323.4
26780.5,21330.6
26786.2,21338.3
26791.2,21346.6
26795.3,21355.3
26798.6,21364.4
26800.9,21373.8
26802.4,21383.3
26802.8,21393
26802.8,21767
26802.4,21776.7
26800.9,21786.2
26798.6,21795.6
26795.3,21804.7
26791.2,21813.4
26786.2,21821.7
26780.5,21829.4
26774,21836.6
26766.8,21843.1
26759.1,21848.8
26750.8,21853.8
26742.1,21857.9
26733,21861.2
26723.6,21863.5
26714.1,21865
26704.4,21865.4
26507.6,21865.4
26497.9,21865
26488.4,21863.5
26479,21861.2
26469.9,21857.9
26461.2,21853.8
26452.9,21848.8
26445.1,21843.1
26438,21836.6
26431.5,21829.4
26425.7,21821.7
26420.8,21813.4
26416.6,21804.7
26413.4,21795.6
26411,21786.2
26409.6,21776.7
26409.1,21767
26409.1,21393
26409.6,21383.3
26411,21373.8
26413.4,21364.4
26416.6,21355.3
26420.8,21346.6
26425.7,21338.3
26431.5,21330.6
26438,21323.4
26445.1,21316.9
26452.9,21311.2
26461.2,21306.2
26469.9,21302.1
26479,21298.8
26488.4,21296.5
26497.9,21295
26507.6,21294.6
26704.4,21294.6
Z" /> 
</g>
<g >
</g>
<g style="fill:#FFFFFF; fill-opacity:1.0; 
stroke:#FFFFFF; stroke-width:0; stroke-opacity:1; 
stroke-linecap:round; stroke-linejoin:round;">
<path style="fill:#FFFFFF; fill-opacity:1.0; 
stroke:#FFFFFF; stroke-width:0; stroke-opacity:1; 
stroke-linecap:round; stroke-linejoin:round;fill-rule:evenodd;"
d="M 26097.1,13518.1
26105.7,13519.4
26114.1,13521.5
26122.3,13524.5
26130.2,13528.2
26137.6,13532.6
26144.6,13537.8
26151.1,13543.7
26156.9,13550.1
26162.1,13557.1
26166.5,13564.5
26170.3,13572.4
26173.2,13580.6
26175.3,13589
26176.6,13597.6
26177,13606.3
26177,13783.5
26176.6,13792.1
26175.3,13800.7
26173.2,13809.2
26170.3,13817.4
26166.5,13825.2
26162.1,13832.7
26156.9,13839.7
26151.1,13846.1
26144.6,13851.9
26137.6,13857.1
26130.2,13861.6
26122.3,13865.3
26114.1,13868.2
26105.7,13870.3
26097.1,13871.6
26088.4,13872
25891.6,13872
25882.9,13871.6
25874.3,13870.3
25865.9,13868.2
25857.7,13865.3
25849.8,13861.6
25842.4,13857.1
25835.4,13851.9
25828.9,13846.1
25823.1,13839.7
25817.9,13832.7
25813.5,13825.2
25809.7,13817.4
25806.8,13809.2
25804.7,13800.7
25803.4,13792.1
25803,13783.5
25803,13606.3
25803.4,13597.6
25804.7,13589
25806.8,13580.6
25809.7,13572.4
25813.5,13564.5
25817.9,13557.1
25823.1,13550.1
25828.9,13543.7
25835.4,13537.8
25842.4,13532.6
25849.8,13528.2
25857.7,13524.5
25865.9,13521.5
25874.3,13519.4
25882.9,13518.1
25891.6,13517.7
26088.4,13517.7
Z" /> 
<path style="fill:#FFFFFF; fill-opacity:1.0; 
stroke:#FFFFFF; stroke-width:0; stroke-opacity:1; 
stroke-linecap:round; stroke-linejoin:round;fill-rule:evenodd;"
d="M 26097.1,14128.4
26105.7,14129.7
26114.1,14131.8
26122.3,14134.7
26130.2,14138.4
26137.6,14142.9
26144.6,14148.1
26151.1,14153.9
26156.9,14160.3
26162.1,14167.3
26166.5,14174.8
26170.3,14182.6
26173.2,14190.8
26175.3,14199.3
26176.6,14207.9
26177,14216.5
26177,14393.7
26176.6,14402.4
26175.3,14411
26173.2,14419.4
26170.3,14427.6
26166.5,14435.5
26162.1,14442.9
26156.9,14449.9
26151.1,14456.3
26144.6,14462.2
26137.6,14467.4
26130.2,14471.8
26122.3,14475.5
26114.1,14478.5
26105.7,14480.6
26097.1,14481.9
26088.4,14482.3
25891.6,14482.3
25882.9,14481.9
25874.3,14480.6
25865.9,14478.5
25857.7,14475.5
25849.8,14471.8
25842.4,14467.4
25835.4,14462.2
25828.9,14456.3
25823.1,14449.9
25817.9,14442.9
25813.5,14435.5
25809.7,14427.6
25806.8,14419.4
25804.7,14411
25803.4,14402.4
25803,14393.7
25803,14216.5
25803.4,14207.9
25804.7,14199.3
25806.8,14190.8
25809.7,14182.6
25813.5,14174.8
25817.9,14167.3
25823.1,14160.3
25828.9,14153.9
25835.4,14148.1
25842.4,14142.9
25849.8,14138.4
25857.7,14134.7
25865.9,14131.8
25874.3,14129.7
25882.9,14128.4
25891.6,14128
26088.4,14128
Z" /> 
</g>
<g >
</g>
<g style="fill:#FFFFFF; fill-opacity:1.0; 
stroke:#FFFFFF; stroke-width:0; stroke-opacity:1; 
stroke-linecap:round; stroke-linejoin:round;">
<path style="fill:#FFFFFF; fill-opacity:1.0; 
stroke:#FFFFFF; stroke-width:0; stroke-opacity:1; 
stroke-linecap:round; stroke-linejoin:round;fill-rule:evenodd;"
d="M 22127.1,16538.1
22135.7,16539.4
22144.1,16541.5
22152.3,16544.5
22160.2,16548.2
22167.6,16552.6
22174.6,16557.8
22181.1,16563.7
22186.9,16570.1
22192.1,16577.1
22196.5,16584.5
22200.3,16592.4
22203.2,16600.6
22205.3,16609
22206.6,16617.6
22207,16626.3
22207,16803.5
22206.6,16812.1
22205.3,16820.7
22203.2,16829.2
22200.3,16837.4
22196.5,16845.2
22192.1,16852.7
22186.9,16859.7
22181.1,16866.1
22174.6,16871.9
22167.6,16877.1
22160.2,16881.6
22152.3,16885.3
22144.1,16888.2
22135.7,16890.3
22127.1,16891.6
22118.4,16892
21921.6,16892
21912.9,16891.6
21904.3,16890.3
21895.9,16888.2
21887.7,16885.3
21879.8,16881.6
21872.4,16877.1
21865.4,16871.9
21858.9,16866.1
21853.1,16859.7
21847.9,16852.7
21843.5,16845.2
21839.7,16837.4
21836.8,16829.2
21834.7,16820.7
21833.4,16812.1
21833,16803.5
21833,16626.3
21833.4,16617.6
21834.7,16609
21836.8,16600.6
21839.7,16592.4
21843.5,16584.5
21847.9,16577.1
21853.1,16570.1
21858.9,16563.7
21865.4,16557.8
21872.4,16552.6
21879.8,16548.2
21887.7,16544.5
21895.9,16541.5
21904.3,16539.4
21912.9,16538.1
21921.6,16537.7
22118.4,16537.7
Z" /> 
<path style="fill:#FFFFFF; fill-opacity:1.0; 
stroke:#FFFFFF; stroke-width:0; stroke-opacity:1; 
stroke-linecap:round; stroke-linejoin:round;fill-rule:evenodd;"
d="M 22127.1,17148.4
22135.7,17149.7
22144.1,17151.8
22152.3,17154.7
22160.2,17158.4
22167.6,17162.9
22174.6,17168.1
22181.1,17173.9
22186.9,17180.3
22192.1,17187.3
22196.5,17194.8
22200.3,17202.6
22203.2,17210.8
22205.3,17219.3
22206.6,17227.9
22207,17236.5
22207,17413.7
22206.6,17422.4
22205.3,17431
22203.2,17439.4
22200.3,17447.6
22196.5,17455.5
22192.1,17462.9
22186.9,17469.9
22181.1,17476.3
22174.6,17482.2
22167.6,17487.4
22160.2,17491.8
22152.3,17495.5
22144.1,17498.5
22135.7,17500.6
22127.1,17501.9
22118.4,17502.3
21921.6,17502.3
21912.9,17501.9
21904.3,17500.6
21895.9,17498.5
21887.7,17495.5
21879.8,17491.8
21872.4,17487.4
21865.4,17482.2
21858.9,17476.3
21853.1,17469.9
21847.9,17462.9
21843.5,17455.5
21839.7,17447.6
21836.8,17439.4
21834.7,17431
21833.4,17422.4
21833,17413.7
21833,17236.5
21833.4,17227.9
21834.7,17219.3
21836.8,17210.8
21839.7,17202.6
21843.5,17194.8
21847.9,17187.3
21853.1,17180.3
21858.9,17173.9
21865.4,17168.1
21872.4,17162.9
21879.8,17158.4
21887.7,17154.7
21895.9,17151.8
21904.3,17149.7
21912.9,17148.4
21921.6,17148
22118.4,17148
Z" /> 
</g>
<g >
</g>
<g style="fill:#FFFFFF; fill-opacity:1.0; 
stroke:#FFFFFF; stroke-width:0; stroke-opacity:1; 
stroke-linecap:round; stroke-linejoin:round;">
<path style="fill:#FFFFFF; fill-opacity:1.0; 
stroke:#FFFFFF; stroke-width:0; stroke-opacity:1; 
stroke-linecap:round; stroke-linejoin:round;fill-rule:evenodd;"
d="M 24482.4,13373.4
24491,13374.7
24499.4,13376.8
24507.6,13379.7
24515.5,13383.5
24522.9,13387.9
24529.9,13393.1
24536.3,13398.9
24542.2,13405.4
24547.4,13412.4
24551.8,13419.8
24555.5,13427.7
24558.5,13435.9
24560.6,13444.3
24561.9,13452.9
24562.3,13461.6
24562.3,13658.4
24561.9,13667.1
24560.6,13675.7
24558.5,13684.1
24555.5,13692.3
24551.8,13700.2
24547.4,13707.6
24542.2,13714.6
24536.3,13721.1
24529.9,13726.9
24522.9,13732.1
24515.5,13736.5
24507.6,13740.3
24499.4,13743.2
24491,13745.3
24482.4,13746.6
24473.7,13747
24296.5,13747
24287.9,13746.6
24279.3,13745.3
24270.8,13743.2
24262.6,13740.3
24254.8,13736.5
24247.3,13732.1
24240.3,13726.9
24233.9,13721.1
24228.1,13714.6
24222.9,13707.6
24218.4,13700.2
24214.7,13692.3
24211.8,13684.1
24209.7,13675.7
24208.4,13667.1
24208,13658.4
24208,13461.6
24208.4,13452.9
24209.7,13444.3
24211.8,13435.9
24214.7,13427.7
24218.4,13419.8
24222.9,13412.4
24228.1,13405.4
24233.9,13398.9
24240.3,13393.1
24247.3,13387.9
24254.8,13383.5
24262.6,13379.7
24270.8,13376.8
24279.3,13374.7
24287.9,13373.4
24296.5,13373
24473.7,13373
Z" /> 
<path style="fill:#FFFFFF; fill-opacity:1.0; 
stroke:#FFFFFF; stroke-width:0; stroke-opacity:1; 
stroke-linecap:round; stroke-linejoin:round;fill-rule:evenodd;"
d="M 23872.1,13373.4
23880.7,13374.7
23889.2,13376.8
23897.4,13379.7
23905.2,13383.5
23912.7,13387.9
23919.7,13393.1
23926.1,13398.9
23931.9,13405.4
23937.1,13412.4
23941.6,13419.8
23945.3,13427.7
23948.2,13435.9
23950.3,13444.3
23951.6,13452.9
23952,13461.6
23952,13658.4
23951.6,13667.1
23950.3,13675.7
23948.2,13684.1
23945.3,13692.3
23941.6,13700.2
23937.1,13707.6
23931.9,13714.6
23926.1,13721.1
23919.7,13726.9
23912.7,13732.1
23905.2,13736.5
23897.4,13740.3
23889.2,13743.2
23880.7,13745.3
23872.1,13746.6
23863.5,13747
23686.3,13747
23677.6,13746.6
23669,13745.3
23660.6,13743.2
23652.4,13740.3
23644.5,13736.5
23637.1,13732.1
23630.1,13726.9
23623.7,13721.1
23617.8,13714.6
23612.6,13707.6
23608.2,13700.2
23604.5,13692.3
23601.5,13684.1
23599.4,13675.7
23598.1,13667.1
23597.7,13658.4
23597.7,13461.6
23598.1,13452.9
23599.4,13444.3
23601.5,13435.9
23604.5,13427.7
23608.2,13419.8
23612.6,13412.4
23617.8,13405.4
23623.7,13398.9
23630.1,13393.1
23637.1,13387.9
23644.5,13383.5
23652.4,13379.7
23660.6,13376.8
23669,13374.7
23677.6,13373.4
23686.3,13373
23863.5,13373
Z" /> 
</g>
<g >
</g>
<g style="fill:#FFFFFF; fill-opacity:1.0; 
stroke:#FFFFFF; stroke-width:0; stroke-opacity:1; 
stroke-linecap:round; stroke-linejoin:round;">
<path style="fill:#FFFFFF; fill-opacity:1.0; 
stroke:#FFFFFF; stroke-width:0; stroke-opacity:1; 
stroke-linecap:round; stroke-linejoin:round;fill-rule:evenodd;"
d="M 27382.4,20793.4
27391,20794.7
27399.4,20796.8
27407.6,20799.7
27415.5,20803.5
27422.9,20807.9
27429.9,20813.1
27436.3,20818.9
27442.2,20825.4
27447.4,20832.4
27451.8,20839.8
27455.5,20847.7
27458.5,20855.9
27460.6,20864.3
27461.9,20872.9
27462.3,20881.6
27462.3,21078.4
27461.9,21087.1
27460.6,21095.7
27458.5,21104.1
27455.5,21112.3
27451.8,21120.2
27447.4,21127.6
27442.2,21134.6
27436.3,21141.1
27429.9,21146.9
27422.9,21152.1
27415.5,21156.5
27407.6,21160.3
27399.4,21163.2
27391,21165.3
27382.4,21166.6
27373.7,21167
27196.5,21167
27187.9,21166.6
27179.3,21165.3
27170.8,21163.2
27162.6,21160.3
27154.8,21156.5
27147.3,21152.1
27140.3,21146.9
27133.9,21141.1
27128.1,21134.6
27122.9,21127.6
27118.4,21120.2
27114.7,21112.3
27111.8,21104.1
27109.7,21095.7
27108.4,21087.1
27108,21078.4
27108,20881.6
27108.4,20872.9
27109.7,20864.3
27111.8,20855.9
27114.7,20847.7
27118.4,20839.8
27122.9,20832.4
27128.1,20825.4
27133.9,20818.9
27140.3,20813.1
27147.3,20807.9
27154.8,20803.5
27162.6,20799.7
27170.8,20796.8
27179.3,20794.7
27187.9,20793.4
27196.5,20793
27373.7,20793
Z" /> 
<path style="fill:#FFFFFF; fill-opacity:1.0; 
stroke:#FFFFFF; stroke-width:0; stroke-opacity:1; 
stroke-linecap:round; stroke-linejoin:round;fill-rule:evenodd;"
d="M 26772.1,20793.4
26780.7,20794.7
26789.2,20796.8
26797.4,20799.7
26805.2,20803.5
26812.7,20807.9
26819.7,20813.1
26826.1,20818.9
26831.9,20825.4
26837.1,20832.4
26841.6,20839.8
26845.3,20847.7
26848.2,20855.9
26850.3,20864.3
26851.6,20872.9
26852,20881.6
26852,21078.4
26851.6,21087.1
26850.3,21095.7
26848.2,21104.1
26845.3,21112.3
26841.6,21120.2
26837.1,21127.6
26831.9,21134.6
26826.1,21141.1
26819.7,21146.9
26812.7,21152.1
26805.2,21156.5
26797.4,21160.3
26789.2,21163.2
26780.7,21165.3
26772.1,21166.6
26763.5,21167
26586.3,21167
26577.6,21166.6
26569,21165.3
26560.6,21163.2
26552.4,21160.3
26544.5,21156.5
26537.1,21152.1
26530.1,21146.9
26523.7,21141.1
26517.8,21134.6
26512.6,21127.6
26508.2,21120.2
26504.5,21112.3
26501.5,21104.1
26499.4,21095.7
26498.1,21087.1
26497.7,21078.4
26497.7,20881.6
26498.1,20872.9
26499.4,20864.3
26501.5,20855.9
26504.5,20847.7
26508.2,20839.8
26512.6,20832.4
26517.8,20825.4
26523.7,20818.9
26530.1,20813.1
26537.1,20807.9
26544.5,20803.5
26552.4,20799.7
26560.6,20796.8
26569,20794.7
26577.6,20793.4
26586.3,20793
26763.5,20793
Z" /> 
</g>
<g >
</g>
<g style="fill:#FFFFFF; fill-opacity:1.0; 
stroke:#FFFFFF; stroke-width:0; stroke-opacity:1; 
stroke-linecap:round; stroke-linejoin:round;">
<path style="fill:#FFFFFF; fill-opacity:1.0; 
stroke:#FFFFFF; stroke-width:0; stroke-opacity:1; 
stroke-linecap:round; stroke-linejoin:round;fill-rule:evenodd;"
d="M 27252.4,18023.4
27261,18024.7
27269.4,18026.8
27277.6,18029.7
27285.5,18033.5
27292.9,18037.9
27299.9,18043.1
27306.3,18048.9
27312.2,18055.4
27317.4,18062.4
27321.8,18069.8
27325.5,18077.7
27328.5,18085.9
27330.6,18094.3
27331.9,18102.9
27332.3,18111.6
27332.3,18308.4
27331.9,18317.1
27330.6,18325.7
27328.5,18334.1
27325.5,18342.3
27321.8,18350.2
27317.4,18357.6
27312.2,18364.6
27306.3,18371.1
27299.9,18376.9
27292.9,18382.1
27285.5,18386.5
27277.6,18390.3
27269.4,18393.2
27261,18395.3
27252.4,18396.6
27243.7,18397
27066.5,18397
27057.9,18396.6
27049.3,18395.3
27040.8,18393.2
27032.6,18390.3
27024.8,18386.5
27017.3,18382.1
27010.3,18376.9
27003.9,18371.1
26998.1,18364.6
26992.9,18357.6
26988.4,18350.2
26984.7,18342.3
26981.8,18334.1
26979.7,18325.7
26978.4,18317.1
26978,18308.4
26978,18111.6
26978.4,18102.9
26979.7,18094.3
26981.8,18085.9
26984.7,18077.7
26988.4,18069.8
26992.9,18062.4
26998.1,18055.4
27003.9,18048.9
27010.3,18043.1
27017.3,18037.9
27024.8,18033.5
27032.6,18029.7
27040.8,18026.8
27049.3,18024.7
27057.9,18023.4
27066.5,18023
27243.7,18023
Z" /> 
<path style="fill:#FFFFFF; fill-opacity:1.0; 
stroke:#FFFFFF; stroke-width:0; stroke-opacity:1; 
stroke-linecap:round; stroke-linejoin:round;fill-rule:evenodd;"
d="M 26642.1,18023.4
26650.7,18024.7
26659.2,18026.8
26667.4,18029.7
26675.2,18033.5
26682.7,18037.9
26689.7,18043.1
26696.1,18048.9
26701.9,18055.4
26707.1,18062.4
26711.6,18069.8
26715.3,18077.7
26718.2,18085.9
26720.3,18094.3
26721.6,18102.9
26722,18111.6
26722,18308.4
26721.6,18317.1
26720.3,18325.7
26718.2,18334.1
26715.3,18342.3
26711.6,18350.2
26707.1,18357.6
26701.9,18364.6
26696.1,18371.1
26689.7,18376.9
26682.7,18382.1
26675.2,18386.5
26667.4,18390.3
26659.2,18393.2
26650.7,18395.3
26642.1,18396.6
26633.5,18397
26456.3,18397
26447.6,18396.6
26439,18395.3
26430.6,18393.2
26422.4,18390.3
26414.5,18386.5
26407.1,18382.1
26400.1,18376.9
26393.7,18371.1
26387.8,18364.6
26382.6,18357.6
26378.2,18350.2
26374.5,18342.3
26371.5,18334.1
26369.4,18325.7
26368.1,18317.1
26367.7,18308.4
26367.7,18111.6
26368.1,18102.9
26369.4,18094.3
26371.5,18085.9
26374.5,18077.7
26378.2,18069.8
26382.6,18062.4
26387.8,18055.4
26393.7,18048.9
26400.1,18043.1
26407.1,18037.9
26414.5,18033.5
26422.4,18029.7
26430.6,18026.8
26439,18024.7
26447.6,18023.4
26456.3,18023
26633.5,18023
Z" /> 
</g>
<g >
</g>
<g style="fill:#FFFFFF; fill-opacity:1.0; 
stroke:#FFFFFF; stroke-width:0; stroke-opacity:1; 
stroke-linecap:round; stroke-linejoin:round;">
<path style="fill:#FFFFFF; fill-opacity:1.0; 
stroke:#FFFFFF; stroke-width:0; stroke-opacity:1; 
stroke-linecap:round; stroke-linejoin:round;fill-rule:evenodd;"
d="M 27862.1,18615
27871.6,18616.5
27881,18618.8
27890.1,18622.1
27898.8,18626.2
27907.1,18631.2
27914.9,18636.9
27922,18643.4
27928.5,18650.6
27934.3,18658.3
27939.2,18666.6
27943.4,18675.3
27946.6,18684.4
27949,18693.8
27950.4,18703.3
27950.9,18713
27950.9,19087
27950.4,19096.7
27949,19106.2
27946.6,19115.6
27943.4,19124.7
27939.2,19133.4
27934.3,19141.7
27928.5,19149.4
27922,19156.6
27914.9,19163.1
27907.1,19168.8
27898.8,19173.8
27890.1,19177.9
27881,19181.2
27871.6,19183.5
27862.1,19185
27852.4,19185.4
27655.6,19185.4
27645.9,19185
27636.4,19183.5
27627,19181.2
27617.9,19177.9
27609.2,19173.8
27600.9,19168.8
27593.2,19163.1
27586,19156.6
27579.5,19149.4
27573.8,19141.7
27568.8,19133.4
27564.7,19124.7
27561.4,19115.6
27559.1,19106.2
27557.6,19096.7
27557.2,19087
27557.2,18713
27557.6,18703.3
27559.1,18693.8
27561.4,18684.4
27564.7,18675.3
27568.8,18666.6
27573.8,18658.3
27579.5,18650.6
27586,18643.4
27593.2,18636.9
27600.9,18631.2
27609.2,18626.2
27617.9,18622.1
27627,18618.8
27636.4,18616.5
27645.9,18615
27655.6,18614.6
27852.4,18614.6
Z" /> 
<path style="fill:#FFFFFF; fill-opacity:1.0; 
stroke:#FFFFFF; stroke-width:0; stroke-opacity:1; 
stroke-linecap:round; stroke-linejoin:round;fill-rule:evenodd;"
d="M 27114.1,18615
27123.6,18616.5
27133,18618.8
27142.1,18622.1
27150.8,18626.2
27159.1,18631.2
27166.8,18636.9
27174,18643.4
27180.5,18650.6
27186.2,18658.3
27191.2,18666.6
27195.3,18675.3
27198.6,18684.4
27200.9,18693.8
27202.4,18703.3
27202.8,18713
27202.8,19087
27202.4,19096.7
27200.9,19106.2
27198.6,19115.6
27195.3,19124.7
27191.2,19133.4
27186.2,19141.7
27180.5,19149.4
27174,19156.6
27166.8,19163.1
27159.1,19168.8
27150.8,19173.8
27142.1,19177.9
27133,19181.2
27123.6,19183.5
27114.1,19185
27104.4,19185.4
26907.6,19185.4
26897.9,19185
26888.4,19183.5
26879,19181.2
26869.9,19177.9
26861.2,19173.8
26852.9,19168.8
26845.1,19163.1
26838,19156.6
26831.5,19149.4
26825.7,19141.7
26820.8,19133.4
26816.6,19124.7
26813.4,19115.6
26811,19106.2
26809.6,19096.7
26809.1,19087
26809.1,18713
26809.6,18703.3
26811,18693.8
26813.4,18684.4
26816.6,18675.3
26820.8,18666.6
26825.7,18658.3
26831.5,18650.6
26838,18643.4
26845.1,18636.9
26852.9,18631.2
26861.2,18626.2
26869.9,18622.1
26879,18618.8
26888.4,18616.5
26897.9,18615
26907.6,18614.6
27104.4,18614.6
Z" /> 
</g>
<g >
</g>
<g style="fill:#FFFFFF; fill-opacity:1.0; 
stroke:#FFFFFF; stroke-width:0; stroke-opacity:1; 
stroke-linecap:round; stroke-linejoin:round;">
<path style="fill:#FFFFFF; fill-opacity:1.0; 
stroke:#FFFFFF; stroke-width:0; stroke-opacity:1; 
stroke-linecap:round; stroke-linejoin:round;fill-rule:evenodd;"
d="M 25654.9,19503.6
25664.5,19505
25673.8,19507.4
25682.9,19510.6
25691.7,19514.8
25700,19519.7
25707.7,19525.5
25714.9,19532
25721.4,19539.1
25727.1,19546.9
25732.1,19555.2
25736.2,19563.9
25739.5,19573
25741.8,19582.4
25743.2,19591.9
25743.7,19601.6
25743.7,19798.4
25743.2,19808.1
25741.8,19817.6
25739.5,19827
25736.2,19836.1
25732.1,19844.8
25727.1,19853.1
25721.4,19860.9
25714.9,19868
25707.7,19874.5
25700,19880.3
25691.7,19885.2
25682.9,19889.4
25673.8,19892.6
25664.5,19895
25654.9,19896.4
25645.3,19896.9
25054.7,19896.9
25045.1,19896.4
25035.5,19895
25026.2,19892.6
25017.1,19889.4
25008.3,19885.2
25000,19880.3
24992.3,19874.5
24985.1,19868
24978.6,19860.9
24972.9,19853.1
24967.9,19844.8
24963.8,19836.1
24960.5,19827
24958.2,19817.6
24956.8,19808.1
24956.3,19798.4
24956.3,19601.6
24956.8,19591.9
24958.2,19582.4
24960.5,19573
24963.8,19563.9
24967.9,19555.2
24972.9,19546.9
24978.6,19539.1
24985.1,19532
24992.3,19525.5
25000,19519.7
25008.3,19514.8
25017.1,19510.6
25026.2,19507.4
25035.5,19505
25045.1,19503.6
25054.7,19503.1
25645.3,19503.1
Z" /> 
<path style="fill:#FFFFFF; fill-opacity:1.0; 
stroke:#FFFFFF; stroke-width:0; stroke-opacity:1; 
stroke-linecap:round; stroke-linejoin:round;fill-rule:evenodd;"
d="M 25654.9,20468.2
25664.5,20469.6
25673.8,20472
25682.9,20475.2
25691.7,20479.3
25700,20484.3
25707.7,20490.1
25714.9,20496.5
25721.4,20503.7
25727.1,20511.5
25732.1,20519.7
25736.2,20528.5
25739.5,20537.6
25741.8,20546.9
25743.2,20556.5
25743.7,20566.1
25743.7,20763
25743.2,20772.6
25741.8,20782.2
25739.5,20791.6
25736.2,20800.7
25732.1,20809.4
25727.1,20817.7
25721.4,20825.4
25714.9,20832.6
25707.7,20839.1
25700,20844.8
25691.7,20849.8
25682.9,20853.9
25673.8,20857.2
25664.5,20859.5
25654.9,20860.9
25645.3,20861.4
25054.7,20861.4
25045.1,20860.9
25035.5,20859.5
25026.2,20857.2
25017.1,20853.9
25008.3,20849.8
25000,20844.8
24992.3,20839.1
24985.1,20832.6
24978.6,20825.4
24972.9,20817.7
24967.9,20809.4
24963.8,20800.7
24960.5,20791.6
24958.2,20782.2
24956.8,20772.6
24956.3,20763
24956.3,20566.1
24956.8,20556.5
24958.2,20546.9
24960.5,20537.6
24963.8,20528.5
24967.9,20519.7
24972.9,20511.5
24978.6,20503.7
24985.1,20496.5
24992.3,20490.1
25000,20484.3
25008.3,20479.3
25017.1,20475.2
25026.2,20472
25035.5,20469.6
25045.1,20468.2
25054.7,20467.7
25645.3,20467.7
Z" /> 
<path style="fill:#FFFFFF; fill-opacity:1.0; 
stroke:#FFFFFF; stroke-width:0; stroke-opacity:1; 
stroke-linecap:round; stroke-linejoin:round;fill-rule:evenodd;"
d="M 25654.9,18539.1
25664.5,18540.5
25673.8,18542.8
25682.9,18546.1
25691.7,18550.2
25700,18555.2
25707.7,18560.9
25714.9,18567.4
25721.4,18574.6
25727.1,18582.3
25732.1,18590.6
25736.2,18599.3
25739.5,18608.4
25741.8,18617.8
25743.2,18627.4
25743.7,18637
25743.7,18833.9
25743.2,18843.5
25741.8,18853.1
25739.5,18862.4
25736.2,18871.5
25732.1,18880.3
25727.1,18888.5
25721.4,18896.3
25714.9,18903.5
25707.7,18909.9
25700,18915.7
25691.7,18920.7
25682.9,18924.8
25673.8,18928
25664.5,18930.4
25654.9,18931.8
25645.3,18932.3
25054.7,18932.3
25045.1,18931.8
25035.5,18930.4
25026.2,18928
25017.1,18924.8
25008.3,18920.7
25000,18915.7
24992.3,18909.9
24985.1,18903.5
24978.6,18896.3
24972.9,18888.5
24967.9,18880.3
24963.8,18871.5
24960.5,18862.4
24958.2,18853.1
24956.8,18843.5
24956.3,18833.9
24956.3,18637
24956.8,18627.4
24958.2,18617.8
24960.5,18608.4
24963.8,18599.3
24967.9,18590.6
24972.9,18582.3
24978.6,18574.6
24985.1,18567.4
24992.3,18560.9
25000,18555.2
25008.3,18550.2
25017.1,18546.1
25026.2,18542.8
25035.5,18540.5
25045.1,18539.1
25054.7,18538.6
25645.3,18538.6
Z" /> 
</g>
<g >
</g>
<g >
</g>
<g style="fill:#FFFFFF; fill-opacity:1.0; 
stroke:#FFFFFF; stroke-width:0; stroke-opacity:1; 
stroke-linecap:round; stroke-linejoin:round;">
<path style="fill:#FFFFFF; fill-opacity:1.0; 
stroke:#FFFFFF; stroke-width:0; stroke-opacity:1; 
stroke-linecap:round; stroke-linejoin:round;fill-rule:evenodd;"
d="M 25836.7,14906.5
25836.7,14808.1
26348.5,14808.1
26348.5,14906.5
Z" /> 
<path style="fill:#FFFFFF; fill-opacity:1.0; 
stroke:#FFFFFF; stroke-width:0; stroke-opacity:1; 
stroke-linecap:round; stroke-linejoin:round;fill-rule:evenodd;"
d="M 25836.7,15103.4
25836.7,15005
26348.5,15005
26348.5,15103.4
Z" /> 
<path style="fill:#FFFFFF; fill-opacity:1.0; 
stroke:#FFFFFF; stroke-width:0; stroke-opacity:1; 
stroke-linecap:round; stroke-linejoin:round;fill-rule:evenodd;"
d="M 25836.7,15300.2
25836.7,15201.8
26348.5,15201.8
26348.5,15300.2
Z" /> 
<path style="fill:#FFFFFF; fill-opacity:1.0; 
stroke:#FFFFFF; stroke-width:0; stroke-opacity:1; 
stroke-linecap:round; stroke-linejoin:round;fill-rule:evenodd;"
d="M 25836.7,15497.1
25836.7,15398.7
26348.5,15398.7
26348.5,15497.1
Z" /> 
<path style="fill:#FFFFFF; fill-opacity:1.0; 
stroke:#FFFFFF; stroke-width:0; stroke-opacity:1; 
stroke-linecap:round; stroke-linejoin:round;fill-rule:evenodd;"
d="M 25836.7,15693.9
25836.7,15595.5
26348.5,15595.5
26348.5,15693.9
Z" /> 
<path style="fill:#FFFFFF; fill-opacity:1.0; 
stroke:#FFFFFF; stroke-width:0; stroke-opacity:1; 
stroke-linecap:round; stroke-linejoin:round;fill-rule:evenodd;"
d="M 25836.7,15890.8
25836.7,15792.4
26348.5,15792.4
26348.5,15890.8
Z" /> 
<path style="fill:#FFFFFF; fill-opacity:1.0; 
stroke:#FFFFFF; stroke-width:0; stroke-opacity:1; 
stroke-linecap:round; stroke-linejoin:round;fill-rule:evenodd;"
d="M 25836.7,16087.6
25836.7,15989.2
26348.5,15989.2
26348.5,16087.6
Z" /> 
<path style="fill:#FFFFFF; fill-opacity:1.0; 
stroke:#FFFFFF; stroke-width:0; stroke-opacity:1; 
stroke-linecap:round; stroke-linejoin:round;fill-rule:evenodd;"
d="M 25836.7,16284.5
25836.7,16186.1
26348.5,16186.1
26348.5,16284.5
Z" /> 
<path style="fill:#FFFFFF; fill-opacity:1.0; 
stroke:#FFFFFF; stroke-width:0; stroke-opacity:1; 
stroke-linecap:round; stroke-linejoin:round;fill-rule:evenodd;"
d="M 25836.7,16481.3
25836.7,16382.9
26348.5,16382.9
26348.5,16481.3
Z" /> 
<path style="fill:#FFFFFF; fill-opacity:1.0; 
stroke:#FFFFFF; stroke-width:0; stroke-opacity:1; 
stroke-linecap:round; stroke-linejoin:round;fill-rule:evenodd;"
d="M 25836.7,16678.2
25836.7,16579.8
26348.5,16579.8
26348.5,16678.2
Z" /> 
<path style="fill:#FFFFFF; fill-opacity:1.0; 
stroke:#FFFFFF; stroke-width:0; stroke-opacity:1; 
stroke-linecap:round; stroke-linejoin:round;fill-rule:evenodd;"
d="M 25836.7,16875
25836.7,16776.6
26348.5,16776.6
26348.5,16875
Z" /> 
<path style="fill:#FFFFFF; fill-opacity:1.0; 
stroke:#FFFFFF; stroke-width:0; stroke-opacity:1; 
stroke-linecap:round; stroke-linejoin:round;fill-rule:evenodd;"
d="M 25836.7,17071.9
25836.7,16973.5
26348.5,16973.5
26348.5,17071.9
Z" /> 
<path style="fill:#FFFFFF; fill-opacity:1.0; 
stroke:#FFFFFF; stroke-width:0; stroke-opacity:1; 
stroke-linecap:round; stroke-linejoin:round;fill-rule:evenodd;"
d="M 25413.5,17396.7
25511.9,17396.7
25511.9,17908.5
25413.5,17908.5
Z" /> 
<path style="fill:#FFFFFF; fill-opacity:1.0; 
stroke:#FFFFFF; stroke-width:0; stroke-opacity:1; 
stroke-linecap:round; stroke-linejoin:round;fill-rule:evenodd;"
d="M 25216.6,17396.7
25315,17396.7
25315,17908.5
25216.6,17908.5
Z" /> 
<path style="fill:#FFFFFF; fill-opacity:1.0; 
stroke:#FFFFFF; stroke-width:0; stroke-opacity:1; 
stroke-linecap:round; stroke-linejoin:round;fill-rule:evenodd;"
d="M 25019.8,17396.7
25118.2,17396.7
25118.2,17908.5
25019.8,17908.5
Z" /> 
<path style="fill:#FFFFFF; fill-opacity:1.0; 
stroke:#FFFFFF; stroke-width:0; stroke-opacity:1; 
stroke-linecap:round; stroke-linejoin:round;fill-rule:evenodd;"
d="M 24822.9,17396.7
24921.3,17396.7
24921.3,17908.5
24822.9,17908.5
Z" /> 
<path style="fill:#FFFFFF; fill-opacity:1.0; 
stroke:#FFFFFF; stroke-width:0; stroke-opacity:1; 
stroke-linecap:round; stroke-linejoin:round;fill-rule:evenodd;"
d="M 24626.1,17396.7
24724.5,17396.7
24724.5,17908.5
24626.1,17908.5
Z" /> 
<path style="fill:#FFFFFF; fill-opacity:1.0; 
stroke:#FFFFFF; stroke-width:0; stroke-opacity:1; 
stroke-linecap:round; stroke-linejoin:round;fill-rule:evenodd;"
d="M 24429.2,17396.7
24527.6,17396.7
24527.6,17908.5
24429.2,17908.5
Z" /> 
<path style="fill:#FFFFFF; fill-opacity:1.0; 
stroke:#FFFFFF; stroke-width:0; stroke-opacity:1; 
stroke-linecap:round; stroke-linejoin:round;fill-rule:evenodd;"
d="M 24232.4,17396.7
24330.8,17396.7
24330.8,17908.5
24232.4,17908.5
Z" /> 
<path style="fill:#FFFFFF; fill-opacity:1.0; 
stroke:#FFFFFF; stroke-width:0; stroke-opacity:1; 
stroke-linecap:round; stroke-linejoin:round;fill-rule:evenodd;"
d="M 24035.5,17396.7
24133.9,17396.7
24133.9,17908.5
24035.5,17908.5
Z" /> 
<path style="fill:#FFFFFF; fill-opacity:1.0; 
stroke:#FFFFFF; stroke-width:0; stroke-opacity:1; 
stroke-linecap:round; stroke-linejoin:round;fill-rule:evenodd;"
d="M 23838.7,17396.7
23937.1,17396.7
23937.1,17908.5
23838.7,17908.5
Z" /> 
<path style="fill:#FFFFFF; fill-opacity:1.0; 
stroke:#FFFFFF; stroke-width:0; stroke-opacity:1; 
stroke-linecap:round; stroke-linejoin:round;fill-rule:evenodd;"
d="M 23641.8,17396.7
23740.2,17396.7
23740.2,17908.5
23641.8,17908.5
Z" /> 
<path style="fill:#FFFFFF; fill-opacity:1.0; 
stroke:#FFFFFF; stroke-width:0; stroke-opacity:1; 
stroke-linecap:round; stroke-linejoin:round;fill-rule:evenodd;"
d="M 23445,17396.7
23543.4,17396.7
23543.4,17908.5
23445,17908.5
Z" /> 
<path style="fill:#FFFFFF; fill-opacity:1.0; 
stroke:#FFFFFF; stroke-width:0; stroke-opacity:1; 
stroke-linecap:round; stroke-linejoin:round;fill-rule:evenodd;"
d="M 23248.1,17396.7
23346.5,17396.7
23346.5,17908.5
23248.1,17908.5
Z" /> 
<path style="fill:#FFFFFF; fill-opacity:1.0; 
stroke:#FFFFFF; stroke-width:0; stroke-opacity:1; 
stroke-linecap:round; stroke-linejoin:round;fill-rule:evenodd;"
d="M 22411.5,17071.9
22411.5,16973.5
22923.3,16973.5
22923.3,17071.9
Z" /> 
<path style="fill:#FFFFFF; fill-opacity:1.0; 
stroke:#FFFFFF; stroke-width:0; stroke-opacity:1; 
stroke-linecap:round; stroke-linejoin:round;fill-rule:evenodd;"
d="M 22411.5,16875
22411.5,16776.6
22923.3,16776.6
22923.3,16875
Z" /> 
<path style="fill:#FFFFFF; fill-opacity:1.0; 
stroke:#FFFFFF; stroke-width:0; stroke-opacity:1; 
stroke-linecap:round; stroke-linejoin:round;fill-rule:evenodd;"
d="M 22411.5,16678.2
22411.5,16579.8
22923.3,16579.8
22923.3,16678.2
Z" /> 
<path style="fill:#FFFFFF; fill-opacity:1.0; 
stroke:#FFFFFF; stroke-width:0; stroke-opacity:1; 
stroke-linecap:round; stroke-linejoin:round;fill-rule:evenodd;"
d="M 22411.5,16481.3
22411.5,16382.9
22923.3,16382.9
22923.3,16481.3
Z" /> 
<path style="fill:#FFFFFF; fill-opacity:1.0; 
stroke:#FFFFFF; stroke-width:0; stroke-opacity:1; 
stroke-linecap:round; stroke-linejoin:round;fill-rule:evenodd;"
d="M 22411.5,16284.5
22411.5,16186.1
22923.3,16186.1
22923.3,16284.5
Z" /> 
<path style="fill:#FFFFFF; fill-opacity:1.0; 
stroke:#FFFFFF; stroke-width:0; stroke-opacity:1; 
stroke-linecap:round; stroke-linejoin:round;fill-rule:evenodd;"
d="M 22411.5,16087.6
22411.5,15989.2
22923.3,15989.2
22923.3,16087.6
Z" /> 
<path style="fill:#FFFFFF; fill-opacity:1.0; 
stroke:#FFFFFF; stroke-width:0; stroke-opacity:1; 
stroke-linecap:round; stroke-linejoin:round;fill-rule:evenodd;"
d="M 22411.5,15890.8
22411.5,15792.4
22923.3,15792.4
22923.3,15890.8
Z" /> 
<path style="fill:#FFFFFF; fill-opacity:1.0; 
stroke:#FFFFFF; stroke-width:0; stroke-opacity:1; 
stroke-linecap:round; stroke-linejoin:round;fill-rule:evenodd;"
d="M 22411.5,15693.9
22411.5,15595.5
22923.3,15595.5
22923.3,15693.9
Z" /> 
<path style="fill:#FFFFFF; fill-opacity:1.0; 
stroke:#FFFFFF; stroke-width:0; stroke-opacity:1; 
stroke-linecap:round; stroke-linejoin:round;fill-rule:evenodd;"
d="M 22411.5,15497.1
22411.5,15398.7
22923.3,15398.7
22923.3,15497.1
Z" /> 
<path style="fill:#FFFFFF; fill-opacity:1.0; 
stroke:#FFFFFF; stroke-width:0; stroke-opacity:1; 
stroke-linecap:round; stroke-linejoin:round;fill-rule:evenodd;"
d="M 22411.5,15300.2
22411.5,15201.8
22923.3,15201.8
22923.3,15300.2
Z" /> 
<path style="fill:#FFFFFF; fill-opacity:1.0; 
stroke:#FFFFFF; stroke-width:0; stroke-opacity:1; 
stroke-linecap:round; stroke-linejoin:round;fill-rule:evenodd;"
d="M 22411.5,15103.4
22411.5,15005
22923.3,15005
22923.3,15103.4
Z" /> 
<path style="fill:#FFFFFF; fill-opacity:1.0; 
stroke:#FFFFFF; stroke-width:0; stroke-opacity:1; 
stroke-linecap:round; stroke-linejoin:round;fill-rule:evenodd;"
d="M 22411.5,14906.5
22411.5,14808.1
22923.3,14808.1
22923.3,14906.5
Z" /> 
<path style="fill:#FFFFFF; fill-opacity:1.0; 
stroke:#FFFFFF; stroke-width:0; stroke-opacity:1; 
stroke-linecap:round; stroke-linejoin:round;fill-rule:evenodd;"
d="M 23248.1,13971.5
23346.5,13971.5
23346.5,14483.3
23248.1,14483.3
Z" /> 
<path style="fill:#FFFFFF; fill-opacity:1.0; 
stroke:#FFFFFF; stroke-width:0; stroke-opacity:1; 
stroke-linecap:round; stroke-linejoin:round;fill-rule:evenodd;"
d="M 23445,13971.5
23543.4,13971.5
23543.4,14483.3
23445,14483.3
Z" /> 
<path style="fill:#FFFFFF; fill-opacity:1.0; 
stroke:#FFFFFF; stroke-width:0; stroke-opacity:1; 
stroke-linecap:round; stroke-linejoin:round;fill-rule:evenodd;"
d="M 23641.8,13971.5
23740.2,13971.5
23740.2,14483.3
23641.8,14483.3
Z" /> 
<path style="fill:#FFFFFF; fill-opacity:1.0; 
stroke:#FFFFFF; stroke-width:0; stroke-opacity:1; 
stroke-linecap:round; stroke-linejoin:round;fill-rule:evenodd;"
d="M 23838.7,13971.5
23937.1,13971.5
23937.1,14483.3
23838.7,14483.3
Z" /> 
<path style="fill:#FFFFFF; fill-opacity:1.0; 
stroke:#FFFFFF; stroke-width:0; stroke-opacity:1; 
stroke-linecap:round; stroke-linejoin:round;fill-rule:evenodd;"
d="M 24035.5,13971.5
24133.9,13971.5
24133.9,14483.3
24035.5,14483.3
Z" /> 
<path style="fill:#FFFFFF; fill-opacity:1.0; 
stroke:#FFFFFF; stroke-width:0; stroke-opacity:1; 
stroke-linecap:round; stroke-linejoin:round;fill-rule:evenodd;"
d="M 24232.4,13971.5
24330.8,13971.5
24330.8,14483.3
24232.4,14483.3
Z" /> 
<path style="fill:#FFFFFF; fill-opacity:1.0; 
stroke:#FFFFFF; stroke-width:0; stroke-opacity:1; 
stroke-linecap:round; stroke-linejoin:round;fill-rule:evenodd;"
d="M 24429.2,13971.5
24527.6,13971.5
24527.6,14483.3
24429.2,14483.3
Z" /> 
<path style="fill:#FFFFFF; fill-opacity:1.0; 
stroke:#FFFFFF; stroke-width:0; stroke-opacity:1; 
stroke-linecap:round; stroke-linejoin:round;fill-rule:evenodd;"
d="M 24626.1,13971.5
24724.5,13971.5
24724.5,14483.3
24626.1,14483.3
Z" /> 
<path style="fill:#FFFFFF; fill-opacity:1.0; 
stroke:#FFFFFF; stroke-width:0; stroke-opacity:1; 
stroke-linecap:round; stroke-linejoin:round;fill-rule:evenodd;"
d="M 24822.9,13971.5
24921.3,13971.5
24921.3,14483.3
24822.9,14483.3
Z" /> 
<path style="fill:#FFFFFF; fill-opacity:1.0; 
stroke:#FFFFFF; stroke-width:0; stroke-opacity:1; 
stroke-linecap:round; stroke-linejoin:round;fill-rule:evenodd;"
d="M 25019.8,13971.5
25118.2,13971.5
25118.2,14483.3
25019.8,14483.3
Z" /> 
<path style="fill:#FFFFFF; fill-opacity:1.0; 
stroke:#FFFFFF; stroke-width:0; stroke-opacity:1; 
stroke-linecap:round; stroke-linejoin:round;fill-rule:evenodd;"
d="M 25216.6,13971.5
25315,13971.5
25315,14483.3
25216.6,14483.3
Z" /> 
<path style="fill:#FFFFFF; fill-opacity:1.0; 
stroke:#FFFFFF; stroke-width:0; stroke-opacity:1; 
stroke-linecap:round; stroke-linejoin:round;fill-rule:evenodd;"
d="M 25413.5,13971.5
25511.9,13971.5
25511.9,14483.3
25413.5,14483.3
Z" /> 
</g>
<g >
</g>
<g style="fill:#FFFFFF; fill-opacity:1.0; 
stroke:#FFFFFF; stroke-width:0; stroke-opacity:1; 
stroke-linecap:round; stroke-linejoin:round;">
<path style="fill:#FFFFFF; fill-opacity:1.0; 
stroke:#FFFFFF; stroke-width:0; stroke-opacity:1; 
stroke-linecap:round; stroke-linejoin:round;fill-rule:evenodd;"
d="M 26862.5,20196.5
27177.5,20196.5
27177.5,20550.9
26862.5,20550.9
Z" /> 
<path style="fill:#FFFFFF; fill-opacity:1.0; 
stroke:#FFFFFF; stroke-width:0; stroke-opacity:1; 
stroke-linecap:round; stroke-linejoin:round;fill-rule:evenodd;"
d="M 26488.5,19409.1
26803.5,19409.1
26803.5,19763.5
26488.5,19763.5
Z" /> 
<path style="fill:#FFFFFF; fill-opacity:1.0; 
stroke:#FFFFFF; stroke-width:0; stroke-opacity:1; 
stroke-linecap:round; stroke-linejoin:round;fill-rule:evenodd;"
d="M 27236.5,19409.1
27551.5,19409.1
27551.5,19763.5
27236.5,19763.5
Z" /> 
</g>
<g >
</g>
<g style="fill:#FFFFFF; fill-opacity:1.0; 
stroke:#FFFFFF; stroke-width:0; stroke-opacity:1; 
stroke-linecap:round; stroke-linejoin:round;">
<path style="fill:#FFFFFF; fill-opacity:1.0; 
stroke:#FFFFFF; stroke-width:0; stroke-opacity:1; 
stroke-linecap:round; stroke-linejoin:round;fill-rule:evenodd;"
d="M 21745.3,19473.7
21154.7,19473.7
21154.7,18686.3
21745.3,18686.3
Z" /> 
</g>
<g >
</g>
<g style="fill:#FFFFFF; fill-opacity:1.0; 
stroke:#FFFFFF; stroke-width:0; stroke-opacity:1; 
stroke-linecap:round; stroke-linejoin:round;">
</g>
<g style="fill:#FFFFFF; fill-opacity:1.0; 
stroke:#FFFFFF; stroke-width:748.031; stroke-opacity:1; 
stroke-linecap:round; stroke-linejoin:round;">
</g>
<g style="fill:#FFFFFF; fill-opacity:0.0; 
stroke:#FFFFFF; stroke-width:748.031; stroke-opacity:1; 
stroke-linecap:round; stroke-linejoin:round;">
<path d="M22355 22468
L22355 23098
" />
<path d="M26844 22468
L26844 23098
" />
</g>
<g style="fill:#FFFFFF; fill-opacity:0.0; 
stroke:#FFFFFF; stroke-width:0; stroke-opacity:1; 
stroke-linecap:round; stroke-linejoin:round;">
</g>
<g style="fill:#FFFFFF; fill-opacity:1.0; 
stroke:#FFFFFF; stroke-width:0; stroke-opacity:1; 
stroke-linecap:round; stroke-linejoin:round;">
<path style="fill:#FFFFFF; fill-opacity:1.0; 
stroke:#FFFFFF; stroke-width:0; stroke-opacity:1; 
stroke-linecap:round; stroke-linejoin:round;fill-rule:evenodd;"
d="M 23005.5,21208.7
23438.6,21208.7
23438.6,22192.9
23005.5,22192.9
Z" /> 
<path style="fill:#FFFFFF; fill-opacity:1.0; 
stroke:#FFFFFF; stroke-width:0; stroke-opacity:1; 
stroke-linecap:round; stroke-linejoin:round;fill-rule:evenodd;"
d="M 25761.4,21208.7
26194.5,21208.7
26194.5,22192.9
25761.4,22192.9
Z" /> 
<path style="fill:#FFFFFF; fill-opacity:1.0; 
stroke:#FFFFFF; stroke-width:0; stroke-opacity:1; 
stroke-linecap:round; stroke-linejoin:round;fill-rule:evenodd;"
d="M 23989.8,21208.7
24422.8,21208.7
24422.8,22192.9
23989.8,22192.9
Z" /> 
<path style="fill:#FFFFFF; fill-opacity:1.0; 
stroke:#FFFFFF; stroke-width:0; stroke-opacity:1; 
stroke-linecap:round; stroke-linejoin:round;fill-rule:evenodd;"
d="M 24777.2,21208.7
25210.2,21208.7
25210.2,22192.9
24777.2,22192.9
Z" /> 
</g>
<g >
</g>
<g style="fill:#FFFFFF; fill-opacity:1.0; 
stroke:#FFFFFF; stroke-width:0; stroke-opacity:1; 
stroke-linecap:round; stroke-linejoin:round;">
<circle cx="27749.6" cy="14265.2" r="334.646" /> 
</g>
<g style="fill:#FFFFFF; fill-opacity:1.0; 
stroke:#FFFFFF; stroke-width:7.87402; stroke-opacity:1; 
stroke-linecap:round; stroke-linejoin:round;">
</g>
<g style="fill:#FFFFFF; fill-opacity:1.0; 
stroke:#FFFFFF; stroke-width:0; stroke-opacity:1; 
stroke-linecap:round; stroke-linejoin:round;">
<circle cx="27749.6" cy="15840" r="334.646" /> 
</g>
<g style="fill:#FFFFFF; fill-opacity:1.0; 
stroke:#FFFFFF; stroke-width:7.87402; stroke-opacity:1; 
stroke-linecap:round; stroke-linejoin:round;">
</g>
<g style="fill:#FFFFFF; fill-opacity:1.0; 
stroke:#FFFFFF; stroke-width:0; stroke-opacity:1; 
stroke-linecap:round; stroke-linejoin:round;">
<circle cx="27749.6" cy="13477.8" r="334.646" /> 
</g>
<g style="fill:#FFFFFF; fill-opacity:1.0; 
stroke:#FFFFFF; stroke-width:7.87402; stroke-opacity:1; 
stroke-linecap:round; stroke-linejoin:round;">
</g>
<g style="fill:#FFFFFF; fill-opacity:1.0; 
stroke:#FFFFFF; stroke-width:0; stroke-opacity:1; 
stroke-linecap:round; stroke-linejoin:round;">
<circle cx="21450.4" cy="15052.6" r="334.646" /> 
</g>
<g style="fill:#FFFFFF; fill-opacity:1.0; 
stroke:#FFFFFF; stroke-width:7.87402; stroke-opacity:1; 
stroke-linecap:round; stroke-linejoin:round;">
</g>
<g style="fill:#FFFFFF; fill-opacity:1.0; 
stroke:#FFFFFF; stroke-width:0; stroke-opacity:1; 
stroke-linecap:round; stroke-linejoin:round;">
<circle cx="21450.4" cy="13477.8" r="334.646" /> 
</g>
<g style="fill:#FFFFFF; fill-opacity:1.0; 
stroke:#FFFFFF; stroke-width:7.87402; stroke-opacity:1; 
stroke-linecap:round; stroke-linejoin:round;">
</g>
<g style="fill:#FFFFFF; fill-opacity:1.0; 
stroke:#FFFFFF; stroke-width:0; stroke-opacity:1; 
stroke-linecap:round; stroke-linejoin:round;">
<circle cx="21450.4" cy="14265.2" r="334.646" /> 
</g>
<g style="fill:#FFFFFF; fill-opacity:1.0; 
stroke:#FFFFFF; stroke-width:7.87402; stroke-opacity:1; 
stroke-linecap:round; stroke-linejoin:round;">
</g>
<g style="fill:#FFFFFF; fill-opacity:1.0; 
stroke:#FFFFFF; stroke-width:0; stroke-opacity:1; 
stroke-linecap:round; stroke-linejoin:round;">
<circle cx="21450.4" cy="16627.4" r="334.646" /> 
</g>
<g style="fill:#FFFFFF; fill-opacity:1.0; 
stroke:#FFFFFF; stroke-width:7.87402; stroke-opacity:1; 
stroke-linecap:round; stroke-linejoin:round;">
</g>
<g style="fill:#FFFFFF; fill-opacity:1.0; 
stroke:#FFFFFF; stroke-width:0; stroke-opacity:1; 
stroke-linecap:round; stroke-linejoin:round;">
<circle cx="27749.6" cy="18202.2" r="334.646" /> 
</g>
<g style="fill:#FFFFFF; fill-opacity:1.0; 
stroke:#FFFFFF; stroke-width:7.87402; stroke-opacity:1; 
stroke-linecap:round; stroke-linejoin:round;">
</g>
<g style="fill:#FFFFFF; fill-opacity:1.0; 
stroke:#FFFFFF; stroke-width:0; stroke-opacity:1; 
stroke-linecap:round; stroke-linejoin:round;">
<circle cx="21450.4" cy="17414.8" r="334.646" /> 
</g>
<g style="fill:#FFFFFF; fill-opacity:1.0; 
stroke:#FFFFFF; stroke-width:7.87402; stroke-opacity:1; 
stroke-linecap:round; stroke-linejoin:round;">
</g>
<g style="fill:#FFFFFF; fill-opacity:1.0; 
stroke:#FFFFFF; stroke-width:0; stroke-opacity:1; 
stroke-linecap:round; stroke-linejoin:round;">
<circle cx="27749.6" cy="16627.4" r="334.646" /> 
</g>
<g style="fill:#FFFFFF; fill-opacity:1.0; 
stroke:#FFFFFF; stroke-width:7.87402; stroke-opacity:1; 
stroke-linecap:round; stroke-linejoin:round;">
</g>
<g style="fill:#FFFFFF; fill-opacity:1.0; 
stroke:#FFFFFF; stroke-width:0; stroke-opacity:1; 
stroke-linecap:round; stroke-linejoin:round;">
<circle cx="27749.6" cy="17414.8" r="334.646" /> 
</g>
<g style="fill:#FFFFFF; fill-opacity:1.0; 
stroke:#FFFFFF; stroke-width:7.87402; stroke-opacity:1; 
stroke-linecap:round; stroke-linejoin:round;">
</g>
<g style="fill:#FFFFFF; fill-opacity:1.0; 
stroke:#FFFFFF; stroke-width:0; stroke-opacity:1; 
stroke-linecap:round; stroke-linejoin:round;">
<circle cx="21450.4" cy="15840" r="334.646" /> 
</g>
<g style="fill:#FFFFFF; fill-opacity:1.0; 
stroke:#FFFFFF; stroke-width:7.87402; stroke-opacity:1; 
stroke-linecap:round; stroke-linejoin:round;">
</g>
<g style="fill:#FFFFFF; fill-opacity:1.0; 
stroke:#FFFFFF; stroke-width:0; stroke-opacity:1; 
stroke-linecap:round; stroke-linejoin:round;">
<circle cx="21450.4" cy="18202.2" r="334.646" /> 
</g>
<g style="fill:#FFFFFF; fill-opacity:1.0; 
stroke:#FFFFFF; stroke-width:7.87402; stroke-opacity:1; 
stroke-linecap:round; stroke-linejoin:round;">
</g>
<g >
</g>
<g style="fill:#FFFFFF; fill-opacity:1.0; 
stroke:#FFFFFF; stroke-width:7.87402; stroke-opacity:1; 
stroke-linecap:round; stroke-linejoin:round;">
</g>
<g style="fill:#FFFFFF; fill-opacity:1.0; 
stroke:#FFFFFF; stroke-width:100; stroke-opacity:1; 
stroke-linecap:round; stroke-linejoin:round;">
</g>
<g style="fill:#FFFFFF; fill-opacity:0.0; 
stroke:#FFFFFF; stroke-width:100; stroke-opacity:1; 
stroke-linecap:round; stroke-linejoin:round;">
<path d="M27238 12868
L27310 12940
" />
<path d="M23420 12868
L27238 12868
" />
<path d="M27325 14265
L27749 14265
" />
<path d="M23297 12991
L23420 12868
" />
<path d="M23297 14227
L23297 12991
" />
<path d="M27310 14250
L27325 14265
" />
<path d="M27310 12940
L27310 14250
" />
<path d="M23494 14227
L23494 13153
" />
<path d="M23494 13153
L23600 13047
" />
<path d="M27131 13091
L27131 15681
" />
<path d="M27087 13047
L27131 13091
" />
<path d="M23600 13047
L27087 13047
" />
<path d="M27290 15840
L27749 15840
" />
<path d="M27131 15681
L27290 15840
" />
<path d="M27749 12999
L27749 13477
" />
<path d="M22860 12690
L27440 12690
" />
<path d="M27440 12690
L27749 12999
" />
<path d="M22610 12940
L22860 12690
" />
<path d="M22610 14160
L22610 12940
" />
<path d="M23410 14960
L22610 14160
" />
<path d="M23410 15280
L23410 14960
" />
<path d="M23242 15447
L23410 15280
" />
<path d="M22667 15447
L23242 15447
" />
<path d="M21880 15100
L21832 15052
" />
<path d="M21880 15640
L21880 15100
" />
<path d="M21884 15644
L21880 15640
" />
<path d="M21832 15052
L21450 15052
" />
<path d="M22667 15644
L21884 15644
" />
<path d="M22667 14857
L22148 14857
" />
<path d="M22038 14747
L22038 13578
" />
<path d="M22148 14857
L22038 14747
" />
<path d="M21937 13477
L21450 13477
" />
<path d="M22038 13578
L21937 13477
" />
<path d="M21805 14265
L21450 14265
" />
<path d="M21860 14320
L21805 14265
" />
<path d="M21860 14827
L21860 14320
" />
<path d="M22058 15025
L21860 14827
" />
<path d="M22058 15220
L22058 15025
" />
<path d="M22089 15251
L22058 15220
" />
<path d="M22667 15251
L22089 15251
" />
</g>
<g style="fill:#FFFFFF; fill-opacity:0.0; 
stroke:#FFFFFF; stroke-width:196.85; stroke-opacity:1; 
stroke-linecap:round; stroke-linejoin:round;">
<path d="M22355 22783
L22355 21744
" />
<path d="M22399 21700
L23222 21700
" />
<path d="M22355 21744
L22399 21700
" />
<path d="M22355 22783
L22355 22855
" />
<path d="M27424 20750
L27374 20800
" />
<path d="M27600 20574
L27374 20800
" />
<path d="M26844 22783
L27016 22783
" />
<path d="M27374 22425
L27374 21550
" />
<path d="M27016 22783
L27374 22425
" />
<path d="M27374 21550
L27374 20800
" />
</g>
<g style="fill:#FFFFFF; fill-opacity:0.0; 
stroke:#FFFFFF; stroke-width:100; stroke-opacity:1; 
stroke-linecap:round; stroke-linejoin:round;">
<path d="M22130 16825
L22020 16714
" />
<path d="M22667 16825
L22130 16825
" />
<path d="M21537 16714
L21450 16627
" />
<path d="M22020 16714
L21537 16714
" />
</g>
<g style="fill:#FFFFFF; fill-opacity:0.0; 
stroke:#FFFFFF; stroke-width:196.85; stroke-opacity:1; 
stroke-linecap:round; stroke-linejoin:round;">
<path d="M27754 18206
L27749 18202
" />
<path d="M27754 18900
L27754 18206
" />
</g>
<g style="fill:#FFFFFF; fill-opacity:0.0; 
stroke:#FFFFFF; stroke-width:100; stroke-opacity:1; 
stroke-linecap:round; stroke-linejoin:round;">
<path d="M27749 18202
L27302 18202
" />
<path d="M26920 17820
L26920 16980
" />
<path d="M26765 16825
L26092 16825
" />
<path d="M26920 16980
L26765 16825
" />
</g>
<g style="fill:#FFFFFF; fill-opacity:0.0; 
stroke:#FFFFFF; stroke-width:196.85; stroke-opacity:1; 
stroke-linecap:round; stroke-linejoin:round;">
<path d="M27754 20420
L27600 20574
" />
<path d="M27394 19586
L27746 19586
" />
<path d="M27746 19586
L27754 19594
" />
<path d="M27754 19594
L27754 20420
" />
<path d="M27754 18900
L27754 19594
" />
</g>
<g style="fill:#FFFFFF; fill-opacity:0.0; 
stroke:#FFFFFF; stroke-width:118.11; stroke-opacity:1; 
stroke-linecap:round; stroke-linejoin:round;">
<path d="M25625 16825
L25560 16760
" />
<path d="M24084 14844
L24084 14227
" />
<path d="M24114 15054
L24084 15024
" />
<path d="M25265 15042
L25254 15054
" />
<path d="M25265 14227
L25265 15042
" />
<path d="M25254 15054
L24114 15054
" />
<path d="M24084 14924
L24084 14844
" />
<path d="M24084 15024
L24084 14924
" />
<path d="M25774 16825
L25625 16825
" />
<path d="M26092 16825
L25774 16825
" />
</g>
<g style="fill:#FFFFFF; fill-opacity:0.0; 
stroke:#FFFFFF; stroke-width:100; stroke-opacity:1; 
stroke-linecap:round; stroke-linejoin:round;">
<path d="M24084 13860
L24385 13560
" />
<path d="M24084 14227
L24084 13860
" />
<path d="M25625 15644
L25560 15710
" />
<path d="M26092 15644
L25625 15644
" />
</g>
<g style="fill:#FFFFFF; fill-opacity:0.0; 
stroke:#FFFFFF; stroke-width:118.11; stroke-opacity:1; 
stroke-linecap:round; stroke-linejoin:round;">
<path d="M25560 16760
L25560 15710
" />
</g>
<g style="fill:#FFFFFF; fill-opacity:0.0; 
stroke:#FFFFFF; stroke-width:100; stroke-opacity:1; 
stroke-linecap:round; stroke-linejoin:round;">
<path d="M26092 15644
L26565 15644
" />
<path d="M26565 15644
L26640 15570
" />
<path d="M26640 15570
L26640 15230
" />
<path d="M26640 15230
L26640 15150
" />
<path d="M26574 13694
L25990 13694
" />
<path d="M26640 13760
L26574 13694
" />
<path d="M25345 13694
L25265 13774
" />
<path d="M25990 13694
L25345 13694
" />
<path d="M25265 14227
L25265 13774
" />
<path d="M26624 15054
L26640 15070
" />
<path d="M26092 15054
L26624 15054
" />
<path d="M26640 15070
L26640 13760
" />
<path d="M26640 15230
L26640 15070
" />
<path d="M25220 18310
L25265 18264
" />
<path d="M25350 19700
L24820 19700
" />
<path d="M24820 19700
L24780 19660
" />
<path d="M24780 19660
L24780 18450
" />
<path d="M24780 18450
L24880 18350
" />
<path d="M25180 18350
L25265 18264
" />
<path d="M24880 18350
L25180 18350
" />
</g>
<g style="fill:#FFFFFF; fill-opacity:0.0; 
stroke:#FFFFFF; stroke-width:118.11; stroke-opacity:1; 
stroke-linecap:round; stroke-linejoin:round;">
<path d="M27162 18202
L27155 18210
" />
<path d="M27749 18202
L27162 18202
" />
<path d="M27155 18210
L27155 18055
" />
</g>
<g style="fill:#FFFFFF; fill-opacity:0.0; 
stroke:#FFFFFF; stroke-width:100; stroke-opacity:1; 
stroke-linecap:round; stroke-linejoin:round;">
<path d="M27015 17915
L26920 17820
" />
<path d="M27302 18202
L27015 17915
" />
</g>
<g style="fill:#FFFFFF; fill-opacity:0.0; 
stroke:#FFFFFF; stroke-width:118.11; stroke-opacity:1; 
stroke-linecap:round; stroke-linejoin:round;">
<path d="M25265 18174
L25755 18174
" />
</g>
<g style="fill:#FFFFFF; fill-opacity:0.0; 
stroke:#FFFFFF; stroke-width:100; stroke-opacity:1; 
stroke-linecap:round; stroke-linejoin:round;">
<path d="M25265 18264
L25265 18174
" />
<path d="M25265 18174
L25265 17652
" />
</g>
<g style="fill:#FFFFFF; fill-opacity:0.0; 
stroke:#FFFFFF; stroke-width:118.11; stroke-opacity:1; 
stroke-linecap:round; stroke-linejoin:round;">
<path d="M25755 18174
L25850 18080
" />
<path d="M25850 18080
L25850 17410
" />
<path d="M25560 17120
L25560 16760
" />
<path d="M25850 17410
L25560 17120
" />
</g>
<g style="fill:#FFFFFF; fill-opacity:0.0; 
stroke:#FFFFFF; stroke-width:196.85; stroke-opacity:1; 
stroke-linecap:round; stroke-linejoin:round;">
<path d="M22355 22783
L22355 23705
" />
<path d="M22355 23705
L22630 23980
" />
<path d="M22630 23980
L26710 23980
" />
<path d="M26844 23845
L26844 22783
" />
<path d="M26710 23980
L26844 23845
" />
</g>
<g style="fill:#FFFFFF; fill-opacity:0.0; 
stroke:#FFFFFF; stroke-width:100; stroke-opacity:1; 
stroke-linecap:round; stroke-linejoin:round;">
<path d="M24959 22700
L25500 22159
" />
<path d="M21540 17325
L21450 17414
" />
<path d="M22020 17325
L21540 17325
" />
<path d="M26092 14857
L26092 14352
" />
<path d="M25967 14227
L25462 14227
" />
<path d="M26092 14352
L25967 14227
" />
<path d="M25985 14209
L25967 14227
" />
</g>
<g style="fill:#FFFFFF; fill-opacity:0.0; 
stroke:#FFFFFF; stroke-width:118.11; stroke-opacity:1; 
stroke-linecap:round; stroke-linejoin:round;">
<path d="M23637 17022
L22667 17022
" />
<path d="M23887 16772
L23637 17022
" />
<path d="M22667 17192
L22667 17022
" />
</g>
<g style="fill:#FFFFFF; fill-opacity:0.0; 
stroke:#FFFFFF; stroke-width:100; stroke-opacity:1; 
stroke-linecap:round; stroke-linejoin:round;">
<path d="M23887 13672
L23774 13560
" />
<path d="M23887 14227
L23887 13672
" />
</g>
<g style="fill:#FFFFFF; fill-opacity:0.0; 
stroke:#FFFFFF; stroke-width:118.11; stroke-opacity:1; 
stroke-linecap:round; stroke-linejoin:round;">
<path d="M23887 15557
L23887 16772
" />
<path d="M23887 14227
L23887 15557
" />
</g>
<g style="fill:#FFFFFF; fill-opacity:0.0; 
stroke:#FFFFFF; stroke-width:100; stroke-opacity:1; 
stroke-linecap:round; stroke-linejoin:round;">
<path d="M25500 22159
L25500 21140
" />
<path d="M25960 21020
L26092 20887
" />
</g>
<g style="fill:#FFFFFF; fill-opacity:0.0; 
stroke:#FFFFFF; stroke-width:118.11; stroke-opacity:1; 
stroke-linecap:round; stroke-linejoin:round;">
<path d="M27020 18914
L27005 18900
" />
<path d="M27020 20373
L27020 18914
" />
<path d="M26180 18900
L26092 18987
" />
<path d="M26083 20896
L25960 21020
" />
<path d="M26180 18900
L26083 18996
" />
<path d="M26083 18996
L26083 20146
" />
<path d="M26083 20146
L26083 20896
" />
<path d="M25620 21020
L25500 21140
" />
<path d="M25960 21020
L25620 21020
" />
<path d="M25061 22590
L24934 22590
" />
<path d="M25500 22151
L25061 22590
" />
<path d="M25500 21140
L25500 22151
" />
<path d="M26544 18795
L26440 18900
" />
<path d="M26544 18210
L26544 18795
" />
<path d="M26440 18900
L26180 18900
" />
<path d="M27005 18900
L26440 18900
" />
<path d="M27005 18900
L26180 18900
" />
<path d="M24750 23230
L24934 23045
" />
<path d="M23250 23010
L23470 23230
" />
<path d="M23520 20690
L23720 20890
" />
<path d="M24934 23045
L24934 22590
" />
<path d="M23720 22140
L23250 22610
" />
<path d="M23010 20690
L23520 20690
" />
<path d="M23470 23230
L24750 23230
" />
<path d="M23720 20890
L23720 22140
" />
<path d="M22667 20347
L23010 20690
" />
<path d="M23250 22610
L23250 23010
" />
</g>
<g style="fill:#FFFFFF; fill-opacity:0.0; 
stroke:#FFFFFF; stroke-width:100; stroke-opacity:1; 
stroke-linecap:round; stroke-linejoin:round;">
<path d="M24938 16772
L23887 16772
" />
<path d="M25462 17296
L24938 16772
" />
<path d="M25462 17652
L25462 17296
" />
</g>
<g style="fill:#FFFFFF; fill-opacity:0.0; 
stroke:#FFFFFF; stroke-width:118.11; stroke-opacity:1; 
stroke-linecap:round; stroke-linejoin:round;">
<path d="M25028 15557
L23887 15557
" />
<path d="M25462 15124
L25028 15557
" />
<path d="M25462 14227
L25462 15124
" />
<path d="M22645 17325
L22667 17347
" />
<path d="M22020 17325
L22645 17325
" />
<path d="M22667 17347
L22667 20347
" />
<path d="M22667 17022
L22667 17347
" />
</g>
<g style="fill:#FFFFFF; fill-opacity:0.0; 
stroke:#FFFFFF; stroke-width:196.85; stroke-opacity:1; 
stroke-linecap:round; stroke-linejoin:round;">
<path d="M26627 20801
L26625 20800
" />
<path d="M26625 20800
L26398 20572
" />
<path d="M26625 20800
L26625 21550
" />
<path d="M26128 21550
L25977 21700
" />
<path d="M26625 21550
L26128 21550
" />
<path d="M26645 19586
L26393 19586
" />
<path d="M26393 19586
L26320 19660
" />
<path d="M26320 20494
L26398 20572
" />
<path d="M26320 19660
L26320 20494
" />
</g>
<g style="fill:#FFFFFF; fill-opacity:0.0; 
stroke:#FFFFFF; stroke-width:100; stroke-opacity:1; 
stroke-linecap:round; stroke-linejoin:round;">
<path d="M24675 14227
L24675 13330
" />
<path d="M24675 13330
L24780 13226
" />
<path d="M26846 13226
L26952 13332
" />
<path d="M24780 13226
L26846 13226
" />
<path d="M26952 13332
L26952 16222
" />
<path d="M27357 16627
L27749 16627
" />
<path d="M26952 16222
L27357 16627
" />
<path d="M26092 16628
L27068 16628
" />
<path d="M27068 16628
L27340 16900
" />
<path d="M27340 16900
L27340 17340
" />
<path d="M27414 17414
L27749 17414
" />
<path d="M27340 17340
L27414 17414
" />
<path d="M21451 15841
L21450 15840
" />
<path d="M22667 15841
L21451 15841
" />
</g>
<g style="fill:#FFFFFF; fill-opacity:0.0; 
stroke:#FFFFFF; stroke-width:196.85; stroke-opacity:1; 
stroke-linecap:round; stroke-linejoin:round;">
<path d="M21450 18202
L21450 18202
" />
<path d="M21450 19080
L21450 18202
" />
<path d="M24240 21735
L24206 21700
" />
<path d="M24240 22700
L24240 21735
" />
</g>
<g style="fill:#FFFFFF; fill-opacity:0.0; 
stroke:#FFFFFF; stroke-width:118.11; stroke-opacity:1; 
stroke-linecap:round; stroke-linejoin:round;">
<path d="M24206 20984
L24206 21700
" />
<path d="M23580 20358
L24206 20984
" />
<path d="M23580 19874
L23580 20358
" />
<path d="M24993 21700
L24993 21233
" />
<path d="M24993 21233
L24730 20970
" />
<path d="M24730 20970
L24470 20970
" />
<path d="M24180 20680
L24180 19874
" />
<path d="M24470 20970
L24180 20680
" />
</g>
<g style="fill:#FFFFFF; fill-opacity:0.0; 
stroke:#FFFFFF; stroke-width:100; stroke-opacity:1; 
stroke-linecap:round; stroke-linejoin:round;">
<path d="M24675 17652
L24675 18049
" />
<path d="M24675 18049
L24352 18371
" />
<path d="M24180 18544
L24352 18371
" />
<path d="M24180 19225
L24180 18544
" />
<path d="M23580 19225
L23580 18870
" />
<path d="M24872 17652
L24872 17122
" />
<path d="M24872 17122
L24770 17020
" />
<path d="M24770 17020
L24140 17020
" />
<path d="M24084 17075
L24084 17652
" />
<path d="M24140 17020
L24084 17075
" />
<path d="M24084 18365
L24065 18385
" />
<path d="M24084 17652
L24084 18365
" />
<path d="M23580 18870
L24065 18385
" />
<path d="M24604 20664
L24744 20664
" />
<path d="M24531 20591
L24604 20664
" />
<path d="M24744 20664
L25350 20664
" />
<path d="M24531 18445
L24531 20591
" />
<path d="M24805 18171
L24531 18445
" />
<path d="M25028 18171
L24805 18171
" />
<path d="M25068 18131
L25028 18171
" />
<path d="M25068 17652
L25068 18131
" />
<path d="M26092 17022
L26092 18597
" />
<path d="M25954 18735
L25350 18735
" />
<path d="M26092 18597
L25954 18735
" />
</g>
<g >
</g>
</g> 
</svg>
